<svg width="40" height="40" viewBox="0 0 40 40" fill="none" xmlns="http://www.w3.org/2000/svg">
<path d="M6.22232 28.3282C5.7988 28.3347 5.49723 28.3979 5.31857 28.5324C5.22233 28.6048 5.15915 28.7002 5.13977 28.8134C5.12118 28.9219 5.14618 29.0272 5.18695 29.1189C5.26683 29.2987 5.42862 29.4745 5.60085 29.6233C5.77634 29.7748 5.97972 29.9127 6.1643 30.0143C6.35157 30.1219 6.55628 30.3097 6.76482 30.5512C6.97223 30.7913 7.1759 31.0757 7.36207 31.3659C7.73449 31.9466 8.02767 32.5364 8.13558 32.8181C8.3441 33.4182 8.7901 34.2986 9.8409 34.9028C10.863 35.4904 12.4303 35.8012 14.8501 35.3773C14.851 36.162 14.8568 36.9161 14.8625 37.5402C14.8644 37.7482 14.8663 37.9416 14.8681 38.1168C14.872 38.5146 14.875 38.8185 14.875 38.9868C14.875 39.2189 14.7939 39.4554 14.6199 39.6134C14.4523 39.7656 14.1716 39.8692 13.7188 39.7908C5.8462 37.0941 0.175 29.4999 0.175 20.5059C0.175 9.26888 9.05075 0.175 20 0.175C30.9493 0.175 39.825 9.26888 39.825 20.5058C39.8243 24.7669 38.5201 28.9199 36.0967 32.3803C33.6756 35.8374 30.2594 38.4289 26.3288 39.7916C25.8771 39.8817 25.5981 39.778 25.4312 39.624C25.2566 39.4629 25.175 39.2197 25.175 38.9868C25.175 38.756 25.1778 38.3566 25.1815 37.8241C25.1833 37.5598 25.1854 37.2628 25.1875 36.9373C25.1937 35.9567 25.2 34.7195 25.2 33.3477C25.2 31.6151 24.7014 30.411 24.0526 29.6841C26.1764 29.4071 28.3489 28.8205 30.0204 27.3831C31.7936 25.8581 32.975 23.4008 32.975 19.4293C32.975 17.1711 32.2118 15.3359 30.9507 13.8818C31.1936 13.2124 31.7743 11.1411 30.713 8.4207L30.6833 8.34454L30.6058 8.31845L30.55 8.48431C30.6058 8.31845 30.6057 8.31839 30.6055 8.31833L30.6051 8.3182L30.6042 8.31789L30.6018 8.31715L30.5954 8.31515C30.5902 8.3136 30.5834 8.31165 30.5749 8.3094C30.5578 8.30491 30.5341 8.29927 30.5035 8.29341C30.4423 8.28168 30.354 8.2691 30.2376 8.26308C30.0046 8.25103 29.6603 8.2653 29.1977 8.36446C28.2838 8.56035 26.9096 9.08716 25.0183 10.3951C23.4253 9.94423 21.7372 9.71908 20.05 9.71908C18.3626 9.71908 16.6744 9.94428 15.0812 10.3952C13.19 9.09976 11.8162 8.57322 10.9029 8.3742C10.4406 8.27346 10.0967 8.25673 9.86406 8.26661C9.7478 8.27155 9.65958 8.28313 9.59853 8.29409C9.56801 8.29956 9.54432 8.30488 9.52733 8.30912C9.52284 8.31024 9.51882 8.31129 9.51527 8.31225C9.5121 8.3131 9.50931 8.31387 9.50689 8.31456L9.50043 8.31646L9.49813 8.31717L9.49722 8.31746L9.49682 8.31758C9.49664 8.31764 9.49646 8.3177 9.55 8.48431L9.49646 8.3177L9.41722 8.34316L9.38697 8.4207C8.32566 11.1411 8.90643 13.2124 9.14929 13.8818C7.88806 15.337 7.125 17.1965 7.125 19.4293C7.125 23.3878 8.30009 25.845 10.0668 27.3731C11.7327 28.8141 13.8999 29.4067 16.024 29.6842C15.5374 30.2327 15.1283 31.0568 14.9648 32.1776C14.3932 32.4334 13.4647 32.7351 12.4727 32.6416C11.4414 32.5444 10.323 32.019 9.45136 30.5172L9.45139 30.5172L9.44943 30.5139C9.25612 30.1968 8.87004 29.6487 8.32665 29.1811C7.78381 28.714 7.06862 28.3145 6.22232 28.3282ZM6.22232 28.3282L6.225 28.5032M6.22232 28.3282C6.22227 28.3282 6.22221 28.3282 6.22215 28.3282L6.225 28.5032M6.225 28.5032C4.55 28.5288 5.55 29.4772 6.25 29.8617L15.125 32.2968C13.975 32.835 11.1 33.7065 9.3 30.605C8.925 29.9898 7.8 28.4775 6.225 28.5032Z" fill="black" stroke="black" stroke-width="0.35"/>
</svg>
