<svg width="44" height="44" viewBox="0 0 44 44" fill="none" xmlns="http://www.w3.org/2000/svg">
<path d="M32 2H12C6.47715 2 2 6.47715 2 12V32C2 37.5228 6.47715 42 12 42H32C37.5228 42 42 37.5228 42 32V12C42 6.47715 37.5228 2 32 2Z" stroke="black" stroke-opacity="0.99" stroke-width="4" stroke-linecap="round" stroke-linejoin="round"/>
<path d="M32 2H12C6.47715 2 2 6.47715 2 12V32C2 37.5228 6.47715 42 12 42H32C37.5228 42 42 37.5228 42 32V12C42 6.47715 37.5228 2 32 2Z" stroke="black" stroke-opacity="0.99" stroke-width="4" stroke-linecap="round" stroke-linejoin="round"/>
<path d="M32 2H12C6.47715 2 2 6.47715 2 12V32C2 37.5228 6.47715 42 12 42H32C37.5228 42 42 37.5228 42 32V12C42 6.47715 37.5228 2 32 2Z" stroke="black" stroke-opacity="0.99" stroke-width="4" stroke-linecap="round" stroke-linejoin="round"/>
<path d="M32 2H12C6.47715 2 2 6.47715 2 12V32C2 37.5228 6.47715 42 12 42H32C37.5228 42 42 37.5228 42 32V12C42 6.47715 37.5228 2 32 2Z" stroke="black" stroke-opacity="0.99" stroke-width="4" stroke-linecap="round" stroke-linejoin="round"/>
<path d="M32 2H12C6.47715 2 2 6.47715 2 12V32C2 37.5228 6.47715 42 12 42H32C37.5228 42 42 37.5228 42 32V12C42 6.47715 37.5228 2 32 2Z" stroke="black" stroke-opacity="0.99" stroke-width="4" stroke-linecap="round" stroke-linejoin="round"/>
<path d="M32 2H12C6.47715 2 2 6.47715 2 12V32C2 37.5228 6.47715 42 12 42H32C37.5228 42 42 37.5228 42 32V12C42 6.47715 37.5228 2 32 2Z" stroke="black" stroke-opacity="0.99" stroke-width="4" stroke-linecap="round" stroke-linejoin="round"/>
<path d="M32 2H12C6.47715 2 2 6.47715 2 12V32C2 37.5228 6.47715 42 12 42H32C37.5228 42 42 37.5228 42 32V12C42 6.47715 37.5228 2 32 2Z" stroke="black" stroke-opacity="0.99" stroke-width="4" stroke-linecap="round" stroke-linejoin="round"/>
<path d="M32 2H12C6.47715 2 2 6.47715 2 12V32C2 37.5228 6.47715 42 12 42H32C37.5228 42 42 37.5228 42 32V12C42 6.47715 37.5228 2 32 2Z" stroke="black" stroke-opacity="0.99" stroke-width="4" stroke-linecap="round" stroke-linejoin="round"/>
<path d="M32 2H12C6.47715 2 2 6.47715 2 12V32C2 37.5228 6.47715 42 12 42H32C37.5228 42 42 37.5228 42 32V12C42 6.47715 37.5228 2 32 2Z" stroke="black" stroke-opacity="0.99" stroke-width="4" stroke-linecap="round" stroke-linejoin="round"/>
<path d="M32 2H12C6.47715 2 2 6.47715 2 12V32C2 37.5228 6.47715 42 12 42H32C37.5228 42 42 37.5228 42 32V12C42 6.47715 37.5228 2 32 2Z" stroke="black" stroke-opacity="0.99" stroke-width="4" stroke-linecap="round" stroke-linejoin="round"/>
<path d="M32 2H12C6.47715 2 2 6.47715 2 12V32C2 37.5228 6.47715 42 12 42H32C37.5228 42 42 37.5228 42 32V12C42 6.47715 37.5228 2 32 2Z" stroke="black" stroke-opacity="0.99" stroke-width="4" stroke-linecap="round" stroke-linejoin="round"/>
<path d="M32 2H12C6.47715 2 2 6.47715 2 12V32C2 37.5228 6.47715 42 12 42H32C37.5228 42 42 37.5228 42 32V12C42 6.47715 37.5228 2 32 2Z" stroke="black" stroke-opacity="0.99" stroke-width="4" stroke-linecap="round" stroke-linejoin="round"/>
<path d="M32 2H12C6.47715 2 2 6.47715 2 12V32C2 37.5228 6.47715 42 12 42H32C37.5228 42 42 37.5228 42 32V12C42 6.47715 37.5228 2 32 2Z" stroke="black" stroke-opacity="0.99" stroke-width="4" stroke-linecap="round" stroke-linejoin="round"/>
<path d="M32 2H12C6.47715 2 2 6.47715 2 12V32C2 37.5228 6.47715 42 12 42H32C37.5228 42 42 37.5228 42 32V12C42 6.47715 37.5228 2 32 2Z" stroke="black" stroke-opacity="0.99" stroke-width="4" stroke-linecap="round" stroke-linejoin="round"/>
<path d="M32 2H12C6.47715 2 2 6.47715 2 12V32C2 37.5228 6.47715 42 12 42H32C37.5228 42 42 37.5228 42 32V12C42 6.47715 37.5228 2 32 2Z" stroke="black" stroke-opacity="0.99" stroke-width="4" stroke-linecap="round" stroke-linejoin="round"/>
<path d="M32 2H12C6.47715 2 2 6.47715 2 12V32C2 37.5228 6.47715 42 12 42H32C37.5228 42 42 37.5228 42 32V12C42 6.47715 37.5228 2 32 2Z" stroke="black" stroke-opacity="0.99" stroke-width="4" stroke-linecap="round" stroke-linejoin="round"/>
<path d="M32 2H12C6.47715 2 2 6.47715 2 12V32C2 37.5228 6.47715 42 12 42H32C37.5228 42 42 37.5228 42 32V12C42 6.47715 37.5228 2 32 2Z" stroke="black" stroke-opacity="0.99" stroke-width="4" stroke-linecap="round" stroke-linejoin="round"/>
<path d="M32 2H12C6.47715 2 2 6.47715 2 12V32C2 37.5228 6.47715 42 12 42H32C37.5228 42 42 37.5228 42 32V12C42 6.47715 37.5228 2 32 2Z" stroke="black" stroke-opacity="0.99" stroke-width="4" stroke-linecap="round" stroke-linejoin="round"/>
<path d="M32 2H12C6.47715 2 2 6.47715 2 12V32C2 37.5228 6.47715 42 12 42H32C37.5228 42 42 37.5228 42 32V12C42 6.47715 37.5228 2 32 2Z" stroke="black" stroke-opacity="0.99" stroke-width="4" stroke-linecap="round" stroke-linejoin="round"/>
<path d="M32 2H12C6.47715 2 2 6.47715 2 12V32C2 37.5228 6.47715 42 12 42H32C37.5228 42 42 37.5228 42 32V12C42 6.47715 37.5228 2 32 2Z" stroke="black" stroke-opacity="0.99" stroke-width="4" stroke-linecap="round" stroke-linejoin="round"/>
<path d="M32 2H12C6.47715 2 2 6.47715 2 12V32C2 37.5228 6.47715 42 12 42H32C37.5228 42 42 37.5228 42 32V12C42 6.47715 37.5228 2 32 2Z" stroke="black" stroke-opacity="0.99" stroke-width="4" stroke-linecap="round" stroke-linejoin="round"/>
<path d="M32 2H12C6.47715 2 2 6.47715 2 12V32C2 37.5228 6.47715 42 12 42H32C37.5228 42 42 37.5228 42 32V12C42 6.47715 37.5228 2 32 2Z" stroke="black" stroke-opacity="0.99" stroke-width="4" stroke-linecap="round" stroke-linejoin="round"/>
<path d="M32 2H12C6.47715 2 2 6.47715 2 12V32C2 37.5228 6.47715 42 12 42H32C37.5228 42 42 37.5228 42 32V12C42 6.47715 37.5228 2 32 2Z" stroke="black" stroke-opacity="0.99" stroke-width="4" stroke-linecap="round" stroke-linejoin="round"/>
<path d="M32 2H12C6.47715 2 2 6.47715 2 12V32C2 37.5228 6.47715 42 12 42H32C37.5228 42 42 37.5228 42 32V12C42 6.47715 37.5228 2 32 2Z" stroke="black" stroke-opacity="0.99" stroke-width="4" stroke-linecap="round" stroke-linejoin="round"/>
<path d="M32 2H12C6.47715 2 2 6.47715 2 12V32C2 37.5228 6.47715 42 12 42H32C37.5228 42 42 37.5228 42 32V12C42 6.47715 37.5228 2 32 2Z" stroke="black" stroke-opacity="0.99" stroke-width="4" stroke-linecap="round" stroke-linejoin="round"/>
<path d="M32 2H12C6.47715 2 2 6.47715 2 12V32C2 37.5228 6.47715 42 12 42H32C37.5228 42 42 37.5228 42 32V12C42 6.47715 37.5228 2 32 2Z" stroke="black" stroke-opacity="0.99" stroke-width="4" stroke-linecap="round" stroke-linejoin="round"/>
<path d="M32 2H12C6.47715 2 2 6.47715 2 12V32C2 37.5228 6.47715 42 12 42H32C37.5228 42 42 37.5228 42 32V12C42 6.47715 37.5228 2 32 2Z" stroke="black" stroke-opacity="0.99" stroke-width="4" stroke-linecap="round" stroke-linejoin="round"/>
<path d="M32 2H12C6.47715 2 2 6.47715 2 12V32C2 37.5228 6.47715 42 12 42H32C37.5228 42 42 37.5228 42 32V12C42 6.47715 37.5228 2 32 2Z" stroke="black" stroke-opacity="0.99" stroke-width="4" stroke-linecap="round" stroke-linejoin="round"/>
<path d="M32 2H12C6.47715 2 2 6.47715 2 12V32C2 37.5228 6.47715 42 12 42H32C37.5228 42 42 37.5228 42 32V12C42 6.47715 37.5228 2 32 2Z" stroke="black" stroke-opacity="0.99" stroke-width="4" stroke-linecap="round" stroke-linejoin="round"/>
<path d="M32 2H12C6.47715 2 2 6.47715 2 12V32C2 37.5228 6.47715 42 12 42H32C37.5228 42 42 37.5228 42 32V12C42 6.47715 37.5228 2 32 2Z" stroke="black" stroke-opacity="0.99" stroke-width="4" stroke-linecap="round" stroke-linejoin="round"/>
<path d="M32 2H12C6.47715 2 2 6.47715 2 12V32C2 37.5228 6.47715 42 12 42H32C37.5228 42 42 37.5228 42 32V12C42 6.47715 37.5228 2 32 2Z" stroke="black" stroke-opacity="0.99" stroke-width="4" stroke-linecap="round" stroke-linejoin="round"/>
<path d="M32 2H12C6.47715 2 2 6.47715 2 12V32C2 37.5228 6.47715 42 12 42H32C37.5228 42 42 37.5228 42 32V12C42 6.47715 37.5228 2 32 2Z" stroke="black" stroke-opacity="0.99" stroke-width="4" stroke-linecap="round" stroke-linejoin="round"/>
<path d="M32 2H12C6.47715 2 2 6.47715 2 12V32C2 37.5228 6.47715 42 12 42H32C37.5228 42 42 37.5228 42 32V12C42 6.47715 37.5228 2 32 2Z" stroke="black" stroke-opacity="0.99" stroke-width="4" stroke-linecap="round" stroke-linejoin="round"/>
<path d="M32 2H12C6.47715 2 2 6.47715 2 12V32C2 37.5228 6.47715 42 12 42H32C37.5228 42 42 37.5228 42 32V12C42 6.47715 37.5228 2 32 2Z" stroke="black" stroke-opacity="0.99" stroke-width="4" stroke-linecap="round" stroke-linejoin="round"/>
<path d="M32 2H12C6.47715 2 2 6.47715 2 12V32C2 37.5228 6.47715 42 12 42H32C37.5228 42 42 37.5228 42 32V12C42 6.47715 37.5228 2 32 2Z" stroke="black" stroke-opacity="0.99" stroke-width="4" stroke-linecap="round" stroke-linejoin="round"/>
<path d="M32 2H12C6.47715 2 2 6.47715 2 12V32C2 37.5228 6.47715 42 12 42H32C37.5228 42 42 37.5228 42 32V12C42 6.47715 37.5228 2 32 2Z" stroke="black" stroke-opacity="0.99" stroke-width="4" stroke-linecap="round" stroke-linejoin="round"/>
<path d="M32 2H12C6.47715 2 2 6.47715 2 12V32C2 37.5228 6.47715 42 12 42H32C37.5228 42 42 37.5228 42 32V12C42 6.47715 37.5228 2 32 2Z" stroke="black" stroke-opacity="0.99" stroke-width="4" stroke-linecap="round" stroke-linejoin="round"/>
<path d="M32 2H12C6.47715 2 2 6.47715 2 12V32C2 37.5228 6.47715 42 12 42H32C37.5228 42 42 37.5228 42 32V12C42 6.47715 37.5228 2 32 2Z" stroke="black" stroke-opacity="0.99" stroke-width="4" stroke-linecap="round" stroke-linejoin="round"/>
<path d="M32 2H12C6.47715 2 2 6.47715 2 12V32C2 37.5228 6.47715 42 12 42H32C37.5228 42 42 37.5228 42 32V12C42 6.47715 37.5228 2 32 2Z" stroke="black" stroke-opacity="0.99" stroke-width="4" stroke-linecap="round" stroke-linejoin="round"/>
<path d="M32 2H12C6.47715 2 2 6.47715 2 12V32C2 37.5228 6.47715 42 12 42H32C37.5228 42 42 37.5228 42 32V12C42 6.47715 37.5228 2 32 2Z" stroke="black" stroke-opacity="0.99" stroke-width="4" stroke-linecap="round" stroke-linejoin="round"/>
<path d="M32 2H12C6.47715 2 2 6.47715 2 12V32C2 37.5228 6.47715 42 12 42H32C37.5228 42 42 37.5228 42 32V12C42 6.47715 37.5228 2 32 2Z" stroke="black" stroke-opacity="0.99" stroke-width="4" stroke-linecap="round" stroke-linejoin="round"/>
<path d="M32 2H12C6.47715 2 2 6.47715 2 12V32C2 37.5228 6.47715 42 12 42H32C37.5228 42 42 37.5228 42 32V12C42 6.47715 37.5228 2 32 2Z" stroke="black" stroke-opacity="0.99" stroke-width="4" stroke-linecap="round" stroke-linejoin="round"/>
<path d="M32 2H12C6.47715 2 2 6.47715 2 12V32C2 37.5228 6.47715 42 12 42H32C37.5228 42 42 37.5228 42 32V12C42 6.47715 37.5228 2 32 2Z" stroke="black" stroke-opacity="0.99" stroke-width="4" stroke-linecap="round" stroke-linejoin="round"/>
<path d="M32 2H12C6.47715 2 2 6.47715 2 12V32C2 37.5228 6.47715 42 12 42H32C37.5228 42 42 37.5228 42 32V12C42 6.47715 37.5228 2 32 2Z" stroke="black" stroke-opacity="0.99" stroke-width="4" stroke-linecap="round" stroke-linejoin="round"/>
<path d="M32 2H12C6.47715 2 2 6.47715 2 12V32C2 37.5228 6.47715 42 12 42H32C37.5228 42 42 37.5228 42 32V12C42 6.47715 37.5228 2 32 2Z" stroke="black" stroke-opacity="0.99" stroke-width="4" stroke-linecap="round" stroke-linejoin="round"/>
<path d="M32 2H12C6.47715 2 2 6.47715 2 12V32C2 37.5228 6.47715 42 12 42H32C37.5228 42 42 37.5228 42 32V12C42 6.47715 37.5228 2 32 2Z" stroke="black" stroke-opacity="0.99" stroke-width="4" stroke-linecap="round" stroke-linejoin="round"/>
<path d="M32 2H12C6.47715 2 2 6.47715 2 12V32C2 37.5228 6.47715 42 12 42H32C37.5228 42 42 37.5228 42 32V12C42 6.47715 37.5228 2 32 2Z" stroke="black" stroke-opacity="0.99" stroke-width="4" stroke-linecap="round" stroke-linejoin="round"/>
<path d="M32 2H12C6.47715 2 2 6.47715 2 12V32C2 37.5228 6.47715 42 12 42H32C37.5228 42 42 37.5228 42 32V12C42 6.47715 37.5228 2 32 2Z" stroke="black" stroke-opacity="0.99" stroke-width="4" stroke-linecap="round" stroke-linejoin="round"/>
<path d="M32 2H12C6.47715 2 2 6.47715 2 12V32C2 37.5228 6.47715 42 12 42H32C37.5228 42 42 37.5228 42 32V12C42 6.47715 37.5228 2 32 2Z" stroke="black" stroke-opacity="0.99" stroke-width="4" stroke-linecap="round" stroke-linejoin="round"/>
<path d="M32 2H12C6.47715 2 2 6.47715 2 12V32C2 37.5228 6.47715 42 12 42H32C37.5228 42 42 37.5228 42 32V12C42 6.47715 37.5228 2 32 2Z" stroke="black" stroke-opacity="0.99" stroke-width="4" stroke-linecap="round" stroke-linejoin="round"/>
<path d="M32 2H12C6.47715 2 2 6.47715 2 12V32C2 37.5228 6.47715 42 12 42H32C37.5228 42 42 37.5228 42 32V12C42 6.47715 37.5228 2 32 2Z" stroke="black" stroke-opacity="0.99" stroke-width="4" stroke-linecap="round" stroke-linejoin="round"/>
<path d="M32 2H12C6.47715 2 2 6.47715 2 12V32C2 37.5228 6.47715 42 12 42H32C37.5228 42 42 37.5228 42 32V12C42 6.47715 37.5228 2 32 2Z" stroke="black" stroke-opacity="0.99" stroke-width="4" stroke-linecap="round" stroke-linejoin="round"/>
<path d="M32 2H12C6.47715 2 2 6.47715 2 12V32C2 37.5228 6.47715 42 12 42H32C37.5228 42 42 37.5228 42 32V12C42 6.47715 37.5228 2 32 2Z" stroke="black" stroke-opacity="0.99" stroke-width="4" stroke-linecap="round" stroke-linejoin="round"/>
<path d="M32 2H12C6.47715 2 2 6.47715 2 12V32C2 37.5228 6.47715 42 12 42H32C37.5228 42 42 37.5228 42 32V12C42 6.47715 37.5228 2 32 2Z" stroke="black" stroke-opacity="0.99" stroke-width="4" stroke-linecap="round" stroke-linejoin="round"/>
<path d="M32 2H12C6.47715 2 2 6.47715 2 12V32C2 37.5228 6.47715 42 12 42H32C37.5228 42 42 37.5228 42 32V12C42 6.47715 37.5228 2 32 2Z" stroke="black" stroke-opacity="0.99" stroke-width="4" stroke-linecap="round" stroke-linejoin="round"/>
<path d="M32 2H12C6.47715 2 2 6.47715 2 12V32C2 37.5228 6.47715 42 12 42H32C37.5228 42 42 37.5228 42 32V12C42 6.47715 37.5228 2 32 2Z" stroke="black" stroke-opacity="0.99" stroke-width="4" stroke-linecap="round" stroke-linejoin="round"/>
<path d="M32 2H12C6.47715 2 2 6.47715 2 12V32C2 37.5228 6.47715 42 12 42H32C37.5228 42 42 37.5228 42 32V12C42 6.47715 37.5228 2 32 2Z" stroke="black" stroke-opacity="0.99" stroke-width="4" stroke-linecap="round" stroke-linejoin="round"/>
<path d="M32 2H12C6.47715 2 2 6.47715 2 12V32C2 37.5228 6.47715 42 12 42H32C37.5228 42 42 37.5228 42 32V12C42 6.47715 37.5228 2 32 2Z" stroke="black" stroke-opacity="0.99" stroke-width="4" stroke-linecap="round" stroke-linejoin="round"/>
<path d="M32 2H12C6.47715 2 2 6.47715 2 12V32C2 37.5228 6.47715 42 12 42H32C37.5228 42 42 37.5228 42 32V12C42 6.47715 37.5228 2 32 2Z" stroke="black" stroke-opacity="0.99" stroke-width="4" stroke-linecap="round" stroke-linejoin="round"/>
<path d="M32 2H12C6.47715 2 2 6.47715 2 12V32C2 37.5228 6.47715 42 12 42H32C37.5228 42 42 37.5228 42 32V12C42 6.47715 37.5228 2 32 2Z" stroke="black" stroke-opacity="0.99" stroke-width="4" stroke-linecap="round" stroke-linejoin="round"/>
<path d="M32 2H12C6.47715 2 2 6.47715 2 12V32C2 37.5228 6.47715 42 12 42H32C37.5228 42 42 37.5228 42 32V12C42 6.47715 37.5228 2 32 2Z" stroke="black" stroke-opacity="0.99" stroke-width="4" stroke-linecap="round" stroke-linejoin="round"/>
<path d="M32 2H12C6.47715 2 2 6.47715 2 12V32C2 37.5228 6.47715 42 12 42H32C37.5228 42 42 37.5228 42 32V12C42 6.47715 37.5228 2 32 2Z" stroke="black" stroke-opacity="0.99" stroke-width="4" stroke-linecap="round" stroke-linejoin="round"/>
<path d="M32 2H12C6.47715 2 2 6.47715 2 12V32C2 37.5228 6.47715 42 12 42H32C37.5228 42 42 37.5228 42 32V12C42 6.47715 37.5228 2 32 2Z" stroke="black" stroke-opacity="0.99" stroke-width="4" stroke-linecap="round" stroke-linejoin="round"/>
<path d="M32 2H12C6.47715 2 2 6.47715 2 12V32C2 37.5228 6.47715 42 12 42H32C37.5228 42 42 37.5228 42 32V12C42 6.47715 37.5228 2 32 2Z" stroke="black" stroke-opacity="0.99" stroke-width="4" stroke-linecap="round" stroke-linejoin="round"/>
<path d="M32 2H12C6.47715 2 2 6.47715 2 12V32C2 37.5228 6.47715 42 12 42H32C37.5228 42 42 37.5228 42 32V12C42 6.47715 37.5228 2 32 2Z" stroke="black" stroke-opacity="0.99" stroke-width="4" stroke-linecap="round" stroke-linejoin="round"/>
<path d="M32 2H12C6.47715 2 2 6.47715 2 12V32C2 37.5228 6.47715 42 12 42H32C37.5228 42 42 37.5228 42 32V12C42 6.47715 37.5228 2 32 2Z" stroke="black" stroke-opacity="0.99" stroke-width="4" stroke-linecap="round" stroke-linejoin="round"/>
<path d="M32 2H12C6.47715 2 2 6.47715 2 12V32C2 37.5228 6.47715 42 12 42H32C37.5228 42 42 37.5228 42 32V12C42 6.47715 37.5228 2 32 2Z" stroke="black" stroke-opacity="0.99" stroke-width="4" stroke-linecap="round" stroke-linejoin="round"/>
<path d="M32 2H12C6.47715 2 2 6.47715 2 12V32C2 37.5228 6.47715 42 12 42H32C37.5228 42 42 37.5228 42 32V12C42 6.47715 37.5228 2 32 2Z" stroke="black" stroke-opacity="0.99" stroke-width="4" stroke-linecap="round" stroke-linejoin="round"/>
<path d="M32 2H12C6.47715 2 2 6.47715 2 12V32C2 37.5228 6.47715 42 12 42H32C37.5228 42 42 37.5228 42 32V12C42 6.47715 37.5228 2 32 2Z" stroke="black" stroke-opacity="0.99" stroke-width="4" stroke-linecap="round" stroke-linejoin="round"/>
<path d="M32 2H12C6.47715 2 2 6.47715 2 12V32C2 37.5228 6.47715 42 12 42H32C37.5228 42 42 37.5228 42 32V12C42 6.47715 37.5228 2 32 2Z" stroke="black" stroke-opacity="0.99" stroke-width="4" stroke-linecap="round" stroke-linejoin="round"/>
<path d="M32 2H12C6.47715 2 2 6.47715 2 12V32C2 37.5228 6.47715 42 12 42H32C37.5228 42 42 37.5228 42 32V12C42 6.47715 37.5228 2 32 2Z" stroke="black" stroke-opacity="0.99" stroke-width="4" stroke-linecap="round" stroke-linejoin="round"/>
<path d="M32 2H12C6.47715 2 2 6.47715 2 12V32C2 37.5228 6.47715 42 12 42H32C37.5228 42 42 37.5228 42 32V12C42 6.47715 37.5228 2 32 2Z" stroke="black" stroke-opacity="0.99" stroke-width="4" stroke-linecap="round" stroke-linejoin="round"/>
<path d="M32 2H12C6.47715 2 2 6.47715 2 12V32C2 37.5228 6.47715 42 12 42H32C37.5228 42 42 37.5228 42 32V12C42 6.47715 37.5228 2 32 2Z" stroke="black" stroke-opacity="0.99" stroke-width="4" stroke-linecap="round" stroke-linejoin="round"/>
<path d="M32 2H12C6.47715 2 2 6.47715 2 12V32C2 37.5228 6.47715 42 12 42H32C37.5228 42 42 37.5228 42 32V12C42 6.47715 37.5228 2 32 2Z" stroke="black" stroke-opacity="0.99" stroke-width="4" stroke-linecap="round" stroke-linejoin="round"/>
<path d="M32 2H12C6.47715 2 2 6.47715 2 12V32C2 37.5228 6.47715 42 12 42H32C37.5228 42 42 37.5228 42 32V12C42 6.47715 37.5228 2 32 2Z" stroke="black" stroke-opacity="0.99" stroke-width="4" stroke-linecap="round" stroke-linejoin="round"/>
<path d="M32 2H12C6.47715 2 2 6.47715 2 12V32C2 37.5228 6.47715 42 12 42H32C37.5228 42 42 37.5228 42 32V12C42 6.47715 37.5228 2 32 2Z" stroke="black" stroke-opacity="0.99" stroke-width="4" stroke-linecap="round" stroke-linejoin="round"/>
<path d="M32 2H12C6.47715 2 2 6.47715 2 12V32C2 37.5228 6.47715 42 12 42H32C37.5228 42 42 37.5228 42 32V12C42 6.47715 37.5228 2 32 2Z" stroke="black" stroke-opacity="0.99" stroke-width="4" stroke-linecap="round" stroke-linejoin="round"/>
<path d="M32 2H12C6.47715 2 2 6.47715 2 12V32C2 37.5228 6.47715 42 12 42H32C37.5228 42 42 37.5228 42 32V12C42 6.47715 37.5228 2 32 2Z" stroke="black" stroke-opacity="0.99" stroke-width="4" stroke-linecap="round" stroke-linejoin="round"/>
<path d="M32 2H12C6.47715 2 2 6.47715 2 12V32C2 37.5228 6.47715 42 12 42H32C37.5228 42 42 37.5228 42 32V12C42 6.47715 37.5228 2 32 2Z" stroke="black" stroke-opacity="0.99" stroke-width="4" stroke-linecap="round" stroke-linejoin="round"/>
<path d="M32 2H12C6.47715 2 2 6.47715 2 12V32C2 37.5228 6.47715 42 12 42H32C37.5228 42 42 37.5228 42 32V12C42 6.47715 37.5228 2 32 2Z" stroke="black" stroke-opacity="0.99" stroke-width="4" stroke-linecap="round" stroke-linejoin="round"/>
<path d="M32 2H12C6.47715 2 2 6.47715 2 12V32C2 37.5228 6.47715 42 12 42H32C37.5228 42 42 37.5228 42 32V12C42 6.47715 37.5228 2 32 2Z" stroke="black" stroke-opacity="0.99" stroke-width="4" stroke-linecap="round" stroke-linejoin="round"/>
<path d="M32 2H12C6.47715 2 2 6.47715 2 12V32C2 37.5228 6.47715 42 12 42H32C37.5228 42 42 37.5228 42 32V12C42 6.47715 37.5228 2 32 2Z" stroke="black" stroke-opacity="0.99" stroke-width="4" stroke-linecap="round" stroke-linejoin="round"/>
<path d="M32 2H12C6.47715 2 2 6.47715 2 12V32C2 37.5228 6.47715 42 12 42H32C37.5228 42 42 37.5228 42 32V12C42 6.47715 37.5228 2 32 2Z" stroke="black" stroke-opacity="0.99" stroke-width="4" stroke-linecap="round" stroke-linejoin="round"/>
<path d="M32 2H12C6.47715 2 2 6.47715 2 12V32C2 37.5228 6.47715 42 12 42H32C37.5228 42 42 37.5228 42 32V12C42 6.47715 37.5228 2 32 2Z" stroke="black" stroke-opacity="0.99" stroke-width="4" stroke-linecap="round" stroke-linejoin="round"/>
<path d="M32 2H12C6.47715 2 2 6.47715 2 12V32C2 37.5228 6.47715 42 12 42H32C37.5228 42 42 37.5228 42 32V12C42 6.47715 37.5228 2 32 2Z" stroke="black" stroke-opacity="0.99" stroke-width="4" stroke-linecap="round" stroke-linejoin="round"/>
<path d="M32 2H12C6.47715 2 2 6.47715 2 12V32C2 37.5228 6.47715 42 12 42H32C37.5228 42 42 37.5228 42 32V12C42 6.47715 37.5228 2 32 2Z" stroke="black" stroke-opacity="0.99" stroke-width="4" stroke-linecap="round" stroke-linejoin="round"/>
<path d="M32 2H12C6.47715 2 2 6.47715 2 12V32C2 37.5228 6.47715 42 12 42H32C37.5228 42 42 37.5228 42 32V12C42 6.47715 37.5228 2 32 2Z" stroke="black" stroke-opacity="0.99" stroke-width="4" stroke-linecap="round" stroke-linejoin="round"/>
<path d="M32 2H12C6.47715 2 2 6.47715 2 12V32C2 37.5228 6.47715 42 12 42H32C37.5228 42 42 37.5228 42 32V12C42 6.47715 37.5228 2 32 2Z" stroke="black" stroke-opacity="0.99" stroke-width="4" stroke-linecap="round" stroke-linejoin="round"/>
<path d="M32 2H12C6.47715 2 2 6.47715 2 12V32C2 37.5228 6.47715 42 12 42H32C37.5228 42 42 37.5228 42 32V12C42 6.47715 37.5228 2 32 2Z" stroke="black" stroke-opacity="0.99" stroke-width="4" stroke-linecap="round" stroke-linejoin="round"/>
<path d="M32 2H12C6.47715 2 2 6.47715 2 12V32C2 37.5228 6.47715 42 12 42H32C37.5228 42 42 37.5228 42 32V12C42 6.47715 37.5228 2 32 2Z" stroke="black" stroke-opacity="0.99" stroke-width="4" stroke-linecap="round" stroke-linejoin="round"/>
<path d="M32 2H12C6.47715 2 2 6.47715 2 12V32C2 37.5228 6.47715 42 12 42H32C37.5228 42 42 37.5228 42 32V12C42 6.47715 37.5228 2 32 2Z" stroke="black" stroke-opacity="0.99" stroke-width="4" stroke-linecap="round" stroke-linejoin="round"/>
<path d="M32 2H12C6.47715 2 2 6.47715 2 12V32C2 37.5228 6.47715 42 12 42H32C37.5228 42 42 37.5228 42 32V12C42 6.47715 37.5228 2 32 2Z" stroke="black" stroke-opacity="0.99" stroke-width="4" stroke-linecap="round" stroke-linejoin="round"/>
<path d="M32 2H12C6.47715 2 2 6.47715 2 12V32C2 37.5228 6.47715 42 12 42H32C37.5228 42 42 37.5228 42 32V12C42 6.47715 37.5228 2 32 2Z" stroke="black" stroke-opacity="0.99" stroke-width="4" stroke-linecap="round" stroke-linejoin="round"/>
<path d="M32 2H12C6.47715 2 2 6.47715 2 12V32C2 37.5228 6.47715 42 12 42H32C37.5228 42 42 37.5228 42 32V12C42 6.47715 37.5228 2 32 2Z" stroke="black" stroke-opacity="0.99" stroke-width="4" stroke-linecap="round" stroke-linejoin="round"/>
<path d="M32 2H12C6.47715 2 2 6.47715 2 12V32C2 37.5228 6.47715 42 12 42H32C37.5228 42 42 37.5228 42 32V12C42 6.47715 37.5228 2 32 2Z" stroke="black" stroke-opacity="0.99" stroke-width="4" stroke-linecap="round" stroke-linejoin="round"/>
<path d="M32 2H12C6.47715 2 2 6.47715 2 12V32C2 37.5228 6.47715 42 12 42H32C37.5228 42 42 37.5228 42 32V12C42 6.47715 37.5228 2 32 2Z" stroke="black" stroke-opacity="0.99" stroke-width="4" stroke-linecap="round" stroke-linejoin="round"/>
<path d="M32 2H12C6.47715 2 2 6.47715 2 12V32C2 37.5228 6.47715 42 12 42H32C37.5228 42 42 37.5228 42 32V12C42 6.47715 37.5228 2 32 2Z" stroke="black" stroke-opacity="0.99" stroke-width="4" stroke-linecap="round" stroke-linejoin="round"/>
<path d="M32 2H12C6.47715 2 2 6.47715 2 12V32C2 37.5228 6.47715 42 12 42H32C37.5228 42 42 37.5228 42 32V12C42 6.47715 37.5228 2 32 2Z" stroke="black" stroke-opacity="0.99" stroke-width="4" stroke-linecap="round" stroke-linejoin="round"/>
<path d="M32 2H12C6.47715 2 2 6.47715 2 12V32C2 37.5228 6.47715 42 12 42H32C37.5228 42 42 37.5228 42 32V12C42 6.47715 37.5228 2 32 2Z" stroke="black" stroke-opacity="0.99" stroke-width="4" stroke-linecap="round" stroke-linejoin="round"/>
<path d="M32 2H12C6.47715 2 2 6.47715 2 12V32C2 37.5228 6.47715 42 12 42H32C37.5228 42 42 37.5228 42 32V12C42 6.47715 37.5228 2 32 2Z" stroke="black" stroke-opacity="0.99" stroke-width="4" stroke-linecap="round" stroke-linejoin="round"/>
<path d="M32 2H12C6.47715 2 2 6.47715 2 12V32C2 37.5228 6.47715 42 12 42H32C37.5228 42 42 37.5228 42 32V12C42 6.47715 37.5228 2 32 2Z" stroke="black" stroke-opacity="0.99" stroke-width="4" stroke-linecap="round" stroke-linejoin="round"/>
<path d="M32 2H12C6.47715 2 2 6.47715 2 12V32C2 37.5228 6.47715 42 12 42H32C37.5228 42 42 37.5228 42 32V12C42 6.47715 37.5228 2 32 2Z" stroke="black" stroke-opacity="0.99" stroke-width="4" stroke-linecap="round" stroke-linejoin="round"/>
<path d="M32 2H12C6.47715 2 2 6.47715 2 12V32C2 37.5228 6.47715 42 12 42H32C37.5228 42 42 37.5228 42 32V12C42 6.47715 37.5228 2 32 2Z" stroke="black" stroke-opacity="0.99" stroke-width="4" stroke-linecap="round" stroke-linejoin="round"/>
<path d="M32 2H12C6.47715 2 2 6.47715 2 12V32C2 37.5228 6.47715 42 12 42H32C37.5228 42 42 37.5228 42 32V12C42 6.47715 37.5228 2 32 2Z" stroke="black" stroke-opacity="0.99" stroke-width="4" stroke-linecap="round" stroke-linejoin="round"/>
<path d="M32 2H12C6.47715 2 2 6.47715 2 12V32C2 37.5228 6.47715 42 12 42H32C37.5228 42 42 37.5228 42 32V12C42 6.47715 37.5228 2 32 2Z" stroke="black" stroke-opacity="0.99" stroke-width="4" stroke-linecap="round" stroke-linejoin="round"/>
<path d="M32 2H12C6.47715 2 2 6.47715 2 12V32C2 37.5228 6.47715 42 12 42H32C37.5228 42 42 37.5228 42 32V12C42 6.47715 37.5228 2 32 2Z" stroke="black" stroke-opacity="0.99" stroke-width="4" stroke-linecap="round" stroke-linejoin="round"/>
<path d="M32 2H12C6.47715 2 2 6.47715 2 12V32C2 37.5228 6.47715 42 12 42H32C37.5228 42 42 37.5228 42 32V12C42 6.47715 37.5228 2 32 2Z" stroke="black" stroke-opacity="0.99" stroke-width="4" stroke-linecap="round" stroke-linejoin="round"/>
<path d="M32 2H12C6.47715 2 2 6.47715 2 12V32C2 37.5228 6.47715 42 12 42H32C37.5228 42 42 37.5228 42 32V12C42 6.47715 37.5228 2 32 2Z" stroke="black" stroke-opacity="0.99" stroke-width="4" stroke-linecap="round" stroke-linejoin="round"/>
<path d="M32 2H12C6.47715 2 2 6.47715 2 12V32C2 37.5228 6.47715 42 12 42H32C37.5228 42 42 37.5228 42 32V12C42 6.47715 37.5228 2 32 2Z" stroke="black" stroke-opacity="0.99" stroke-width="4" stroke-linecap="round" stroke-linejoin="round"/>
<path d="M32 2H12C6.47715 2 2 6.47715 2 12V32C2 37.5228 6.47715 42 12 42H32C37.5228 42 42 37.5228 42 32V12C42 6.47715 37.5228 2 32 2Z" stroke="black" stroke-opacity="0.99" stroke-width="4" stroke-linecap="round" stroke-linejoin="round"/>
<path d="M32 2H12C6.47715 2 2 6.47715 2 12V32C2 37.5228 6.47715 42 12 42H32C37.5228 42 42 37.5228 42 32V12C42 6.47715 37.5228 2 32 2Z" stroke="black" stroke-opacity="0.99" stroke-width="4" stroke-linecap="round" stroke-linejoin="round"/>
<path d="M32 2H12C6.47715 2 2 6.47715 2 12V32C2 37.5228 6.47715 42 12 42H32C37.5228 42 42 37.5228 42 32V12C42 6.47715 37.5228 2 32 2Z" stroke="black" stroke-opacity="0.99" stroke-width="4" stroke-linecap="round" stroke-linejoin="round"/>
<path d="M32 2H12C6.47715 2 2 6.47715 2 12V32C2 37.5228 6.47715 42 12 42H32C37.5228 42 42 37.5228 42 32V12C42 6.47715 37.5228 2 32 2Z" stroke="black" stroke-opacity="0.99" stroke-width="4" stroke-linecap="round" stroke-linejoin="round"/>
<path d="M32 2H12C6.47715 2 2 6.47715 2 12V32C2 37.5228 6.47715 42 12 42H32C37.5228 42 42 37.5228 42 32V12C42 6.47715 37.5228 2 32 2Z" stroke="black" stroke-opacity="0.99" stroke-width="4" stroke-linecap="round" stroke-linejoin="round"/>
<path d="M32 2H12C6.47715 2 2 6.47715 2 12V32C2 37.5228 6.47715 42 12 42H32C37.5228 42 42 37.5228 42 32V12C42 6.47715 37.5228 2 32 2Z" stroke="black" stroke-opacity="0.99" stroke-width="4" stroke-linecap="round" stroke-linejoin="round"/>
<path d="M32 2H12C6.47715 2 2 6.47715 2 12V32C2 37.5228 6.47715 42 12 42H32C37.5228 42 42 37.5228 42 32V12C42 6.47715 37.5228 2 32 2Z" stroke="black" stroke-opacity="0.99" stroke-width="4" stroke-linecap="round" stroke-linejoin="round"/>
<path d="M32 2H12C6.47715 2 2 6.47715 2 12V32C2 37.5228 6.47715 42 12 42H32C37.5228 42 42 37.5228 42 32V12C42 6.47715 37.5228 2 32 2Z" stroke="black" stroke-opacity="0.99" stroke-width="4" stroke-linecap="round" stroke-linejoin="round"/>
<path d="M32 2H12C6.47715 2 2 6.47715 2 12V32C2 37.5228 6.47715 42 12 42H32C37.5228 42 42 37.5228 42 32V12C42 6.47715 37.5228 2 32 2Z" stroke="black" stroke-opacity="0.99" stroke-width="4" stroke-linecap="round" stroke-linejoin="round"/>
<path d="M32 2H12C6.47715 2 2 6.47715 2 12V32C2 37.5228 6.47715 42 12 42H32C37.5228 42 42 37.5228 42 32V12C42 6.47715 37.5228 2 32 2Z" stroke="black" stroke-opacity="0.99" stroke-width="4" stroke-linecap="round" stroke-linejoin="round"/>
<path d="M32 2H12C6.47715 2 2 6.47715 2 12V32C2 37.5228 6.47715 42 12 42H32C37.5228 42 42 37.5228 42 32V12C42 6.47715 37.5228 2 32 2Z" stroke="black" stroke-opacity="0.99" stroke-width="4" stroke-linecap="round" stroke-linejoin="round"/>
<path d="M32 2H12C6.47715 2 2 6.47715 2 12V32C2 37.5228 6.47715 42 12 42H32C37.5228 42 42 37.5228 42 32V12C42 6.47715 37.5228 2 32 2Z" stroke="black" stroke-opacity="0.99" stroke-width="4" stroke-linecap="round" stroke-linejoin="round"/>
<path d="M32 2H12C6.47715 2 2 6.47715 2 12V32C2 37.5228 6.47715 42 12 42H32C37.5228 42 42 37.5228 42 32V12C42 6.47715 37.5228 2 32 2Z" stroke="black" stroke-opacity="0.99" stroke-width="4" stroke-linecap="round" stroke-linejoin="round"/>
<path d="M32 2H12C6.47715 2 2 6.47715 2 12V32C2 37.5228 6.47715 42 12 42H32C37.5228 42 42 37.5228 42 32V12C42 6.47715 37.5228 2 32 2Z" stroke="black" stroke-opacity="0.99" stroke-width="4" stroke-linecap="round" stroke-linejoin="round"/>
<path d="M32 2H12C6.47715 2 2 6.47715 2 12V32C2 37.5228 6.47715 42 12 42H32C37.5228 42 42 37.5228 42 32V12C42 6.47715 37.5228 2 32 2Z" stroke="black" stroke-opacity="0.99" stroke-width="4" stroke-linecap="round" stroke-linejoin="round"/>
<path d="M32 2H12C6.47715 2 2 6.47715 2 12V32C2 37.5228 6.47715 42 12 42H32C37.5228 42 42 37.5228 42 32V12C42 6.47715 37.5228 2 32 2Z" stroke="black" stroke-opacity="0.99" stroke-width="4" stroke-linecap="round" stroke-linejoin="round"/>
<path d="M32 2H12C6.47715 2 2 6.47715 2 12V32C2 37.5228 6.47715 42 12 42H32C37.5228 42 42 37.5228 42 32V12C42 6.47715 37.5228 2 32 2Z" stroke="black" stroke-opacity="0.99" stroke-width="4" stroke-linecap="round" stroke-linejoin="round"/>
<path d="M32 2H12C6.47715 2 2 6.47715 2 12V32C2 37.5228 6.47715 42 12 42H32C37.5228 42 42 37.5228 42 32V12C42 6.47715 37.5228 2 32 2Z" stroke="black" stroke-opacity="0.99" stroke-width="4" stroke-linecap="round" stroke-linejoin="round"/>
<path d="M32 2H12C6.47715 2 2 6.47715 2 12V32C2 37.5228 6.47715 42 12 42H32C37.5228 42 42 37.5228 42 32V12C42 6.47715 37.5228 2 32 2Z" stroke="black" stroke-opacity="0.99" stroke-width="4" stroke-linecap="round" stroke-linejoin="round"/>
<path d="M32 2H12C6.47715 2 2 6.47715 2 12V32C2 37.5228 6.47715 42 12 42H32C37.5228 42 42 37.5228 42 32V12C42 6.47715 37.5228 2 32 2Z" stroke="black" stroke-opacity="0.99" stroke-width="4" stroke-linecap="round" stroke-linejoin="round"/>
<path d="M32 2H12C6.47715 2 2 6.47715 2 12V32C2 37.5228 6.47715 42 12 42H32C37.5228 42 42 37.5228 42 32V12C42 6.47715 37.5228 2 32 2Z" stroke="black" stroke-opacity="0.99" stroke-width="4" stroke-linecap="round" stroke-linejoin="round"/>
<path d="M32 2H12C6.47715 2 2 6.47715 2 12V32C2 37.5228 6.47715 42 12 42H32C37.5228 42 42 37.5228 42 32V12C42 6.47715 37.5228 2 32 2Z" stroke="black" stroke-opacity="0.99" stroke-width="4" stroke-linecap="round" stroke-linejoin="round"/>
<path d="M32 2H12C6.47715 2 2 6.47715 2 12V32C2 37.5228 6.47715 42 12 42H32C37.5228 42 42 37.5228 42 32V12C42 6.47715 37.5228 2 32 2Z" stroke="black" stroke-opacity="0.99" stroke-width="4" stroke-linecap="round" stroke-linejoin="round"/>
<path d="M32 2H12C6.47715 2 2 6.47715 2 12V32C2 37.5228 6.47715 42 12 42H32C37.5228 42 42 37.5228 42 32V12C42 6.47715 37.5228 2 32 2Z" stroke="black" stroke-opacity="0.99" stroke-width="4" stroke-linecap="round" stroke-linejoin="round"/>
<path d="M32 2H12C6.47715 2 2 6.47715 2 12V32C2 37.5228 6.47715 42 12 42H32C37.5228 42 42 37.5228 42 32V12C42 6.47715 37.5228 2 32 2Z" stroke="black" stroke-opacity="0.99" stroke-width="4" stroke-linecap="round" stroke-linejoin="round"/>
<path d="M32 2H12C6.47715 2 2 6.47715 2 12V32C2 37.5228 6.47715 42 12 42H32C37.5228 42 42 37.5228 42 32V12C42 6.47715 37.5228 2 32 2Z" stroke="black" stroke-opacity="0.99" stroke-width="4" stroke-linecap="round" stroke-linejoin="round"/>
<path d="M32 2H12C6.47715 2 2 6.47715 2 12V32C2 37.5228 6.47715 42 12 42H32C37.5228 42 42 37.5228 42 32V12C42 6.47715 37.5228 2 32 2Z" stroke="black" stroke-opacity="0.99" stroke-width="4" stroke-linecap="round" stroke-linejoin="round"/>
<path d="M32 2H12C6.47715 2 2 6.47715 2 12V32C2 37.5228 6.47715 42 12 42H32C37.5228 42 42 37.5228 42 32V12C42 6.47715 37.5228 2 32 2Z" stroke="black" stroke-opacity="0.99" stroke-width="4" stroke-linecap="round" stroke-linejoin="round"/>
<path d="M32 2H12C6.47715 2 2 6.47715 2 12V32C2 37.5228 6.47715 42 12 42H32C37.5228 42 42 37.5228 42 32V12C42 6.47715 37.5228 2 32 2Z" stroke="black" stroke-opacity="0.99" stroke-width="4" stroke-linecap="round" stroke-linejoin="round"/>
<path d="M32 2H12C6.47715 2 2 6.47715 2 12V32C2 37.5228 6.47715 42 12 42H32C37.5228 42 42 37.5228 42 32V12C42 6.47715 37.5228 2 32 2Z" stroke="black" stroke-opacity="0.99" stroke-width="4" stroke-linecap="round" stroke-linejoin="round"/>
<path d="M32 2H12C6.47715 2 2 6.47715 2 12V32C2 37.5228 6.47715 42 12 42H32C37.5228 42 42 37.5228 42 32V12C42 6.47715 37.5228 2 32 2Z" stroke="black" stroke-opacity="0.99" stroke-width="4" stroke-linecap="round" stroke-linejoin="round"/>
<path d="M32 2H12C6.47715 2 2 6.47715 2 12V32C2 37.5228 6.47715 42 12 42H32C37.5228 42 42 37.5228 42 32V12C42 6.47715 37.5228 2 32 2Z" stroke="black" stroke-opacity="0.99" stroke-width="4" stroke-linecap="round" stroke-linejoin="round"/>
<path d="M32 2H12C6.47715 2 2 6.47715 2 12V32C2 37.5228 6.47715 42 12 42H32C37.5228 42 42 37.5228 42 32V12C42 6.47715 37.5228 2 32 2Z" stroke="black" stroke-opacity="0.99" stroke-width="4" stroke-linecap="round" stroke-linejoin="round"/>
<path d="M32 2H12C6.47715 2 2 6.47715 2 12V32C2 37.5228 6.47715 42 12 42H32C37.5228 42 42 37.5228 42 32V12C42 6.47715 37.5228 2 32 2Z" stroke="black" stroke-opacity="0.99" stroke-width="4" stroke-linecap="round" stroke-linejoin="round"/>
<path d="M32 2H12C6.47715 2 2 6.47715 2 12V32C2 37.5228 6.47715 42 12 42H32C37.5228 42 42 37.5228 42 32V12C42 6.47715 37.5228 2 32 2Z" stroke="black" stroke-opacity="0.99" stroke-width="4" stroke-linecap="round" stroke-linejoin="round"/>
<path d="M32 2H12C6.47715 2 2 6.47715 2 12V32C2 37.5228 6.47715 42 12 42H32C37.5228 42 42 37.5228 42 32V12C42 6.47715 37.5228 2 32 2Z" stroke="black" stroke-opacity="0.99" stroke-width="4" stroke-linecap="round" stroke-linejoin="round"/>
<path d="M32 2H12C6.47715 2 2 6.47715 2 12V32C2 37.5228 6.47715 42 12 42H32C37.5228 42 42 37.5228 42 32V12C42 6.47715 37.5228 2 32 2Z" stroke="black" stroke-opacity="0.99" stroke-width="4" stroke-linecap="round" stroke-linejoin="round"/>
<path d="M32 2H12C6.47715 2 2 6.47715 2 12V32C2 37.5228 6.47715 42 12 42H32C37.5228 42 42 37.5228 42 32V12C42 6.47715 37.5228 2 32 2Z" stroke="black" stroke-opacity="0.99" stroke-width="4" stroke-linecap="round" stroke-linejoin="round"/>
<path d="M32 2H12C6.47715 2 2 6.47715 2 12V32C2 37.5228 6.47715 42 12 42H32C37.5228 42 42 37.5228 42 32V12C42 6.47715 37.5228 2 32 2Z" stroke="black" stroke-opacity="0.99" stroke-width="4" stroke-linecap="round" stroke-linejoin="round"/>
<path d="M32 2H12C6.47715 2 2 6.47715 2 12V32C2 37.5228 6.47715 42 12 42H32C37.5228 42 42 37.5228 42 32V12C42 6.47715 37.5228 2 32 2Z" stroke="black" stroke-opacity="0.99" stroke-width="4" stroke-linecap="round" stroke-linejoin="round"/>
<path d="M32 2H12C6.47715 2 2 6.47715 2 12V32C2 37.5228 6.47715 42 12 42H32C37.5228 42 42 37.5228 42 32V12C42 6.47715 37.5228 2 32 2Z" stroke="black" stroke-opacity="0.99" stroke-width="4" stroke-linecap="round" stroke-linejoin="round"/>
<path d="M32 2H12C6.47715 2 2 6.47715 2 12V32C2 37.5228 6.47715 42 12 42H32C37.5228 42 42 37.5228 42 32V12C42 6.47715 37.5228 2 32 2Z" stroke="black" stroke-opacity="0.99" stroke-width="4" stroke-linecap="round" stroke-linejoin="round"/>
<path d="M32 2H12C6.47715 2 2 6.47715 2 12V32C2 37.5228 6.47715 42 12 42H32C37.5228 42 42 37.5228 42 32V12C42 6.47715 37.5228 2 32 2Z" stroke="black" stroke-opacity="0.99" stroke-width="4" stroke-linecap="round" stroke-linejoin="round"/>
<path d="M32 2H12C6.47715 2 2 6.47715 2 12V32C2 37.5228 6.47715 42 12 42H32C37.5228 42 42 37.5228 42 32V12C42 6.47715 37.5228 2 32 2Z" stroke="black" stroke-opacity="0.99" stroke-width="4" stroke-linecap="round" stroke-linejoin="round"/>
<path d="M32 2H12C6.47715 2 2 6.47715 2 12V32C2 37.5228 6.47715 42 12 42H32C37.5228 42 42 37.5228 42 32V12C42 6.47715 37.5228 2 32 2Z" stroke="black" stroke-opacity="0.99" stroke-width="4" stroke-linecap="round" stroke-linejoin="round"/>
<path d="M32 2H12C6.47715 2 2 6.47715 2 12V32C2 37.5228 6.47715 42 12 42H32C37.5228 42 42 37.5228 42 32V12C42 6.47715 37.5228 2 32 2Z" stroke="black" stroke-opacity="0.99" stroke-width="4" stroke-linecap="round" stroke-linejoin="round"/>
<path d="M32 2H12C6.47715 2 2 6.47715 2 12V32C2 37.5228 6.47715 42 12 42H32C37.5228 42 42 37.5228 42 32V12C42 6.47715 37.5228 2 32 2Z" stroke="black" stroke-opacity="0.99" stroke-width="4" stroke-linecap="round" stroke-linejoin="round"/>
<path d="M32 2H12C6.47715 2 2 6.47715 2 12V32C2 37.5228 6.47715 42 12 42H32C37.5228 42 42 37.5228 42 32V12C42 6.47715 37.5228 2 32 2Z" stroke="black" stroke-opacity="0.99" stroke-width="4" stroke-linecap="round" stroke-linejoin="round"/>
<path d="M32 2H12C6.47715 2 2 6.47715 2 12V32C2 37.5228 6.47715 42 12 42H32C37.5228 42 42 37.5228 42 32V12C42 6.47715 37.5228 2 32 2Z" stroke="black" stroke-opacity="0.99" stroke-width="4" stroke-linecap="round" stroke-linejoin="round"/>
<path d="M32 2H12C6.47715 2 2 6.47715 2 12V32C2 37.5228 6.47715 42 12 42H32C37.5228 42 42 37.5228 42 32V12C42 6.47715 37.5228 2 32 2Z" stroke="black" stroke-opacity="0.99" stroke-width="4" stroke-linecap="round" stroke-linejoin="round"/>
<path d="M32 2H12C6.47715 2 2 6.47715 2 12V32C2 37.5228 6.47715 42 12 42H32C37.5228 42 42 37.5228 42 32V12C42 6.47715 37.5228 2 32 2Z" stroke="black" stroke-opacity="0.99" stroke-width="4" stroke-linecap="round" stroke-linejoin="round"/>
<path d="M32 2H12C6.47715 2 2 6.47715 2 12V32C2 37.5228 6.47715 42 12 42H32C37.5228 42 42 37.5228 42 32V12C42 6.47715 37.5228 2 32 2Z" stroke="black" stroke-opacity="0.99" stroke-width="4" stroke-linecap="round" stroke-linejoin="round"/>
<path d="M32 2H12C6.47715 2 2 6.47715 2 12V32C2 37.5228 6.47715 42 12 42H32C37.5228 42 42 37.5228 42 32V12C42 6.47715 37.5228 2 32 2Z" stroke="black" stroke-opacity="0.99" stroke-width="4" stroke-linecap="round" stroke-linejoin="round"/>
<path d="M32 2H12C6.47715 2 2 6.47715 2 12V32C2 37.5228 6.47715 42 12 42H32C37.5228 42 42 37.5228 42 32V12C42 6.47715 37.5228 2 32 2Z" stroke="black" stroke-opacity="0.99" stroke-width="4" stroke-linecap="round" stroke-linejoin="round"/>
<path d="M32 2H12C6.47715 2 2 6.47715 2 12V32C2 37.5228 6.47715 42 12 42H32C37.5228 42 42 37.5228 42 32V12C42 6.47715 37.5228 2 32 2Z" stroke="black" stroke-opacity="0.99" stroke-width="4" stroke-linecap="round" stroke-linejoin="round"/>
<path d="M32 2H12C6.47715 2 2 6.47715 2 12V32C2 37.5228 6.47715 42 12 42H32C37.5228 42 42 37.5228 42 32V12C42 6.47715 37.5228 2 32 2Z" stroke="black" stroke-opacity="0.99" stroke-width="4" stroke-linecap="round" stroke-linejoin="round"/>
<path d="M32 2H12C6.47715 2 2 6.47715 2 12V32C2 37.5228 6.47715 42 12 42H32C37.5228 42 42 37.5228 42 32V12C42 6.47715 37.5228 2 32 2Z" stroke="black" stroke-opacity="0.99" stroke-width="4" stroke-linecap="round" stroke-linejoin="round"/>
<path d="M32 2H12C6.47715 2 2 6.47715 2 12V32C2 37.5228 6.47715 42 12 42H32C37.5228 42 42 37.5228 42 32V12C42 6.47715 37.5228 2 32 2Z" stroke="black" stroke-opacity="0.99" stroke-width="4" stroke-linecap="round" stroke-linejoin="round"/>
<path d="M32 2H12C6.47715 2 2 6.47715 2 12V32C2 37.5228 6.47715 42 12 42H32C37.5228 42 42 37.5228 42 32V12C42 6.47715 37.5228 2 32 2Z" stroke="black" stroke-opacity="0.99" stroke-width="4" stroke-linecap="round" stroke-linejoin="round"/>
<path d="M32 2H12C6.47715 2 2 6.47715 2 12V32C2 37.5228 6.47715 42 12 42H32C37.5228 42 42 37.5228 42 32V12C42 6.47715 37.5228 2 32 2Z" stroke="black" stroke-opacity="0.99" stroke-width="4" stroke-linecap="round" stroke-linejoin="round"/>
<path d="M32 2H12C6.47715 2 2 6.47715 2 12V32C2 37.5228 6.47715 42 12 42H32C37.5228 42 42 37.5228 42 32V12C42 6.47715 37.5228 2 32 2Z" stroke="black" stroke-opacity="0.99" stroke-width="4" stroke-linecap="round" stroke-linejoin="round"/>
<path d="M32 2H12C6.47715 2 2 6.47715 2 12V32C2 37.5228 6.47715 42 12 42H32C37.5228 42 42 37.5228 42 32V12C42 6.47715 37.5228 2 32 2Z" stroke="black" stroke-opacity="0.99" stroke-width="4" stroke-linecap="round" stroke-linejoin="round"/>
<path d="M32 2H12C6.47715 2 2 6.47715 2 12V32C2 37.5228 6.47715 42 12 42H32C37.5228 42 42 37.5228 42 32V12C42 6.47715 37.5228 2 32 2Z" stroke="black" stroke-opacity="0.99" stroke-width="4" stroke-linecap="round" stroke-linejoin="round"/>
<path d="M32 2H12C6.47715 2 2 6.47715 2 12V32C2 37.5228 6.47715 42 12 42H32C37.5228 42 42 37.5228 42 32V12C42 6.47715 37.5228 2 32 2Z" stroke="black" stroke-opacity="0.99" stroke-width="4" stroke-linecap="round" stroke-linejoin="round"/>
<path d="M32 2H12C6.47715 2 2 6.47715 2 12V32C2 37.5228 6.47715 42 12 42H32C37.5228 42 42 37.5228 42 32V12C42 6.47715 37.5228 2 32 2Z" stroke="black" stroke-opacity="0.99" stroke-width="4" stroke-linecap="round" stroke-linejoin="round"/>
<path d="M32 2H12C6.47715 2 2 6.47715 2 12V32C2 37.5228 6.47715 42 12 42H32C37.5228 42 42 37.5228 42 32V12C42 6.47715 37.5228 2 32 2Z" stroke="black" stroke-opacity="0.99" stroke-width="4" stroke-linecap="round" stroke-linejoin="round"/>
<path d="M32 2H12C6.47715 2 2 6.47715 2 12V32C2 37.5228 6.47715 42 12 42H32C37.5228 42 42 37.5228 42 32V12C42 6.47715 37.5228 2 32 2Z" stroke="black" stroke-opacity="0.99" stroke-width="4" stroke-linecap="round" stroke-linejoin="round"/>
<path d="M32 2H12C6.47715 2 2 6.47715 2 12V32C2 37.5228 6.47715 42 12 42H32C37.5228 42 42 37.5228 42 32V12C42 6.47715 37.5228 2 32 2Z" stroke="black" stroke-opacity="0.99" stroke-width="4" stroke-linecap="round" stroke-linejoin="round"/>
<path d="M32 2H12C6.47715 2 2 6.47715 2 12V32C2 37.5228 6.47715 42 12 42H32C37.5228 42 42 37.5228 42 32V12C42 6.47715 37.5228 2 32 2Z" stroke="black" stroke-opacity="0.99" stroke-width="4" stroke-linecap="round" stroke-linejoin="round"/>
<path d="M32 2H12C6.47715 2 2 6.47715 2 12V32C2 37.5228 6.47715 42 12 42H32C37.5228 42 42 37.5228 42 32V12C42 6.47715 37.5228 2 32 2Z" stroke="black" stroke-opacity="0.99" stroke-width="4" stroke-linecap="round" stroke-linejoin="round"/>
<path d="M32 2H12C6.47715 2 2 6.47715 2 12V32C2 37.5228 6.47715 42 12 42H32C37.5228 42 42 37.5228 42 32V12C42 6.47715 37.5228 2 32 2Z" stroke="black" stroke-opacity="0.99" stroke-width="4" stroke-linecap="round" stroke-linejoin="round"/>
<path d="M32 2H12C6.47715 2 2 6.47715 2 12V32C2 37.5228 6.47715 42 12 42H32C37.5228 42 42 37.5228 42 32V12C42 6.47715 37.5228 2 32 2Z" stroke="black" stroke-opacity="0.99" stroke-width="4" stroke-linecap="round" stroke-linejoin="round"/>
<path d="M32 2H12C6.47715 2 2 6.47715 2 12V32C2 37.5228 6.47715 42 12 42H32C37.5228 42 42 37.5228 42 32V12C42 6.47715 37.5228 2 32 2Z" stroke="black" stroke-opacity="0.99" stroke-width="4" stroke-linecap="round" stroke-linejoin="round"/>
<path d="M32 2H12C6.47715 2 2 6.47715 2 12V32C2 37.5228 6.47715 42 12 42H32C37.5228 42 42 37.5228 42 32V12C42 6.47715 37.5228 2 32 2Z" stroke="black" stroke-opacity="0.99" stroke-width="4" stroke-linecap="round" stroke-linejoin="round"/>
<path d="M32 2H12C6.47715 2 2 6.47715 2 12V32C2 37.5228 6.47715 42 12 42H32C37.5228 42 42 37.5228 42 32V12C42 6.47715 37.5228 2 32 2Z" stroke="black" stroke-opacity="0.99" stroke-width="4" stroke-linecap="round" stroke-linejoin="round"/>
<path d="M32 2H12C6.47715 2 2 6.47715 2 12V32C2 37.5228 6.47715 42 12 42H32C37.5228 42 42 37.5228 42 32V12C42 6.47715 37.5228 2 32 2Z" stroke="black" stroke-opacity="0.99" stroke-width="4" stroke-linecap="round" stroke-linejoin="round"/>
<path d="M32 2H12C6.47715 2 2 6.47715 2 12V32C2 37.5228 6.47715 42 12 42H32C37.5228 42 42 37.5228 42 32V12C42 6.47715 37.5228 2 32 2Z" stroke="black" stroke-opacity="0.99" stroke-width="4" stroke-linecap="round" stroke-linejoin="round"/>
<path d="M32 2H12C6.47715 2 2 6.47715 2 12V32C2 37.5228 6.47715 42 12 42H32C37.5228 42 42 37.5228 42 32V12C42 6.47715 37.5228 2 32 2Z" stroke="black" stroke-opacity="0.99" stroke-width="4" stroke-linecap="round" stroke-linejoin="round"/>
<path d="M32 2H12C6.47715 2 2 6.47715 2 12V32C2 37.5228 6.47715 42 12 42H32C37.5228 42 42 37.5228 42 32V12C42 6.47715 37.5228 2 32 2Z" stroke="black" stroke-opacity="0.99" stroke-width="4" stroke-linecap="round" stroke-linejoin="round"/>
<path d="M32 2H12C6.47715 2 2 6.47715 2 12V32C2 37.5228 6.47715 42 12 42H32C37.5228 42 42 37.5228 42 32V12C42 6.47715 37.5228 2 32 2Z" stroke="black" stroke-opacity="0.99" stroke-width="4" stroke-linecap="round" stroke-linejoin="round"/>
<path d="M32 2H12C6.47715 2 2 6.47715 2 12V32C2 37.5228 6.47715 42 12 42H32C37.5228 42 42 37.5228 42 32V12C42 6.47715 37.5228 2 32 2Z" stroke="black" stroke-opacity="0.99" stroke-width="4" stroke-linecap="round" stroke-linejoin="round"/>
<path d="M32 2H12C6.47715 2 2 6.47715 2 12V32C2 37.5228 6.47715 42 12 42H32C37.5228 42 42 37.5228 42 32V12C42 6.47715 37.5228 2 32 2Z" stroke="black" stroke-opacity="0.99" stroke-width="4" stroke-linecap="round" stroke-linejoin="round"/>
<path d="M32 2H12C6.47715 2 2 6.47715 2 12V32C2 37.5228 6.47715 42 12 42H32C37.5228 42 42 37.5228 42 32V12C42 6.47715 37.5228 2 32 2Z" stroke="black" stroke-opacity="0.99" stroke-width="4" stroke-linecap="round" stroke-linejoin="round"/>
<path d="M32 2H12C6.47715 2 2 6.47715 2 12V32C2 37.5228 6.47715 42 12 42H32C37.5228 42 42 37.5228 42 32V12C42 6.47715 37.5228 2 32 2Z" stroke="black" stroke-opacity="0.99" stroke-width="4" stroke-linecap="round" stroke-linejoin="round"/>
<path d="M32 2H12C6.47715 2 2 6.47715 2 12V32C2 37.5228 6.47715 42 12 42H32C37.5228 42 42 37.5228 42 32V12C42 6.47715 37.5228 2 32 2Z" stroke="black" stroke-opacity="0.99" stroke-width="4" stroke-linecap="round" stroke-linejoin="round"/>
<path d="M32 2H12C6.47715 2 2 6.47715 2 12V32C2 37.5228 6.47715 42 12 42H32C37.5228 42 42 37.5228 42 32V12C42 6.47715 37.5228 2 32 2Z" stroke="black" stroke-opacity="0.99" stroke-width="4" stroke-linecap="round" stroke-linejoin="round"/>
<path d="M32 2H12C6.47715 2 2 6.47715 2 12V32C2 37.5228 6.47715 42 12 42H32C37.5228 42 42 37.5228 42 32V12C42 6.47715 37.5228 2 32 2Z" stroke="black" stroke-opacity="0.99" stroke-width="4" stroke-linecap="round" stroke-linejoin="round"/>
<path d="M32 2H12C6.47715 2 2 6.47715 2 12V32C2 37.5228 6.47715 42 12 42H32C37.5228 42 42 37.5228 42 32V12C42 6.47715 37.5228 2 32 2Z" stroke="black" stroke-opacity="0.99" stroke-width="4" stroke-linecap="round" stroke-linejoin="round"/>
<path d="M32 2H12C6.47715 2 2 6.47715 2 12V32C2 37.5228 6.47715 42 12 42H32C37.5228 42 42 37.5228 42 32V12C42 6.47715 37.5228 2 32 2Z" stroke="black" stroke-opacity="0.99" stroke-width="4" stroke-linecap="round" stroke-linejoin="round"/>
<path d="M32 2H12C6.47715 2 2 6.47715 2 12V32C2 37.5228 6.47715 42 12 42H32C37.5228 42 42 37.5228 42 32V12C42 6.47715 37.5228 2 32 2Z" stroke="black" stroke-opacity="0.99" stroke-width="4" stroke-linecap="round" stroke-linejoin="round"/>
<path d="M32 2H12C6.47715 2 2 6.47715 2 12V32C2 37.5228 6.47715 42 12 42H32C37.5228 42 42 37.5228 42 32V12C42 6.47715 37.5228 2 32 2Z" stroke="black" stroke-opacity="0.99" stroke-width="4" stroke-linecap="round" stroke-linejoin="round"/>
<path d="M32 2H12C6.47715 2 2 6.47715 2 12V32C2 37.5228 6.47715 42 12 42H32C37.5228 42 42 37.5228 42 32V12C42 6.47715 37.5228 2 32 2Z" stroke="black" stroke-opacity="0.99" stroke-width="4" stroke-linecap="round" stroke-linejoin="round"/>
<path d="M32 2H12C6.47715 2 2 6.47715 2 12V32C2 37.5228 6.47715 42 12 42H32C37.5228 42 42 37.5228 42 32V12C42 6.47715 37.5228 2 32 2Z" stroke="black" stroke-opacity="0.99" stroke-width="4" stroke-linecap="round" stroke-linejoin="round"/>
<path d="M32 2H12C6.47715 2 2 6.47715 2 12V32C2 37.5228 6.47715 42 12 42H32C37.5228 42 42 37.5228 42 32V12C42 6.47715 37.5228 2 32 2Z" stroke="black" stroke-opacity="0.99" stroke-width="4" stroke-linecap="round" stroke-linejoin="round"/>
<path d="M32 2H12C6.47715 2 2 6.47715 2 12V32C2 37.5228 6.47715 42 12 42H32C37.5228 42 42 37.5228 42 32V12C42 6.47715 37.5228 2 32 2Z" stroke="black" stroke-opacity="0.99" stroke-width="4" stroke-linecap="round" stroke-linejoin="round"/>
<path d="M32 2H12C6.47715 2 2 6.47715 2 12V32C2 37.5228 6.47715 42 12 42H32C37.5228 42 42 37.5228 42 32V12C42 6.47715 37.5228 2 32 2Z" stroke="black" stroke-opacity="0.99" stroke-width="4" stroke-linecap="round" stroke-linejoin="round"/>
<path d="M32 2H12C6.47715 2 2 6.47715 2 12V32C2 37.5228 6.47715 42 12 42H32C37.5228 42 42 37.5228 42 32V12C42 6.47715 37.5228 2 32 2Z" stroke="black" stroke-opacity="0.99" stroke-width="4" stroke-linecap="round" stroke-linejoin="round"/>
<path d="M32 2H12C6.47715 2 2 6.47715 2 12V32C2 37.5228 6.47715 42 12 42H32C37.5228 42 42 37.5228 42 32V12C42 6.47715 37.5228 2 32 2Z" stroke="black" stroke-opacity="0.99" stroke-width="4" stroke-linecap="round" stroke-linejoin="round"/>
<path d="M32 2H12C6.47715 2 2 6.47715 2 12V32C2 37.5228 6.47715 42 12 42H32C37.5228 42 42 37.5228 42 32V12C42 6.47715 37.5228 2 32 2Z" stroke="black" stroke-opacity="0.99" stroke-width="4" stroke-linecap="round" stroke-linejoin="round"/>
<path d="M32 2H12C6.47715 2 2 6.47715 2 12V32C2 37.5228 6.47715 42 12 42H32C37.5228 42 42 37.5228 42 32V12C42 6.47715 37.5228 2 32 2Z" stroke="black" stroke-opacity="0.99" stroke-width="4" stroke-linecap="round" stroke-linejoin="round"/>
<path d="M32 2H12C6.47715 2 2 6.47715 2 12V32C2 37.5228 6.47715 42 12 42H32C37.5228 42 42 37.5228 42 32V12C42 6.47715 37.5228 2 32 2Z" stroke="black" stroke-opacity="0.99" stroke-width="4" stroke-linecap="round" stroke-linejoin="round"/>
<path d="M32 2H12C6.47715 2 2 6.47715 2 12V32C2 37.5228 6.47715 42 12 42H32C37.5228 42 42 37.5228 42 32V12C42 6.47715 37.5228 2 32 2Z" stroke="black" stroke-opacity="0.99" stroke-width="4" stroke-linecap="round" stroke-linejoin="round"/>
<path d="M32 2H12C6.47715 2 2 6.47715 2 12V32C2 37.5228 6.47715 42 12 42H32C37.5228 42 42 37.5228 42 32V12C42 6.47715 37.5228 2 32 2Z" stroke="black" stroke-opacity="0.99" stroke-width="4" stroke-linecap="round" stroke-linejoin="round"/>
<path d="M32 2H12C6.47715 2 2 6.47715 2 12V32C2 37.5228 6.47715 42 12 42H32C37.5228 42 42 37.5228 42 32V12C42 6.47715 37.5228 2 32 2Z" stroke="black" stroke-opacity="0.99" stroke-width="4" stroke-linecap="round" stroke-linejoin="round"/>
<path d="M32 2H12C6.47715 2 2 6.47715 2 12V32C2 37.5228 6.47715 42 12 42H32C37.5228 42 42 37.5228 42 32V12C42 6.47715 37.5228 2 32 2Z" stroke="black" stroke-opacity="0.99" stroke-width="4" stroke-linecap="round" stroke-linejoin="round"/>
<path d="M32 2H12C6.47715 2 2 6.47715 2 12V32C2 37.5228 6.47715 42 12 42H32C37.5228 42 42 37.5228 42 32V12C42 6.47715 37.5228 2 32 2Z" stroke="black" stroke-opacity="0.99" stroke-width="4" stroke-linecap="round" stroke-linejoin="round"/>
<path d="M32 2H12C6.47715 2 2 6.47715 2 12V32C2 37.5228 6.47715 42 12 42H32C37.5228 42 42 37.5228 42 32V12C42 6.47715 37.5228 2 32 2Z" stroke="black" stroke-opacity="0.99" stroke-width="4" stroke-linecap="round" stroke-linejoin="round"/>
<path d="M32 2H12C6.47715 2 2 6.47715 2 12V32C2 37.5228 6.47715 42 12 42H32C37.5228 42 42 37.5228 42 32V12C42 6.47715 37.5228 2 32 2Z" stroke="black" stroke-opacity="0.99" stroke-width="4" stroke-linecap="round" stroke-linejoin="round"/>
<path d="M32 2H12C6.47715 2 2 6.47715 2 12V32C2 37.5228 6.47715 42 12 42H32C37.5228 42 42 37.5228 42 32V12C42 6.47715 37.5228 2 32 2Z" stroke="black" stroke-opacity="0.99" stroke-width="4" stroke-linecap="round" stroke-linejoin="round"/>
<path d="M32 2H12C6.47715 2 2 6.47715 2 12V32C2 37.5228 6.47715 42 12 42H32C37.5228 42 42 37.5228 42 32V12C42 6.47715 37.5228 2 32 2Z" stroke="black" stroke-opacity="0.99" stroke-width="4" stroke-linecap="round" stroke-linejoin="round"/>
<path d="M32 2H12C6.47715 2 2 6.47715 2 12V32C2 37.5228 6.47715 42 12 42H32C37.5228 42 42 37.5228 42 32V12C42 6.47715 37.5228 2 32 2Z" stroke="black" stroke-opacity="0.99" stroke-width="4" stroke-linecap="round" stroke-linejoin="round"/>
<path d="M32 2H12C6.47715 2 2 6.47715 2 12V32C2 37.5228 6.47715 42 12 42H32C37.5228 42 42 37.5228 42 32V12C42 6.47715 37.5228 2 32 2Z" stroke="black" stroke-opacity="0.99" stroke-width="4" stroke-linecap="round" stroke-linejoin="round"/>
<path d="M32 2H12C6.47715 2 2 6.47715 2 12V32C2 37.5228 6.47715 42 12 42H32C37.5228 42 42 37.5228 42 32V12C42 6.47715 37.5228 2 32 2Z" stroke="black" stroke-opacity="0.99" stroke-width="4" stroke-linecap="round" stroke-linejoin="round"/>
<path d="M32 2H12C6.47715 2 2 6.47715 2 12V32C2 37.5228 6.47715 42 12 42H32C37.5228 42 42 37.5228 42 32V12C42 6.47715 37.5228 2 32 2Z" stroke="black" stroke-opacity="0.99" stroke-width="4" stroke-linecap="round" stroke-linejoin="round"/>
<path d="M32 2H12C6.47715 2 2 6.47715 2 12V32C2 37.5228 6.47715 42 12 42H32C37.5228 42 42 37.5228 42 32V12C42 6.47715 37.5228 2 32 2Z" stroke="black" stroke-opacity="0.99" stroke-width="4" stroke-linecap="round" stroke-linejoin="round"/>
<path d="M32 2H12C6.47715 2 2 6.47715 2 12V32C2 37.5228 6.47715 42 12 42H32C37.5228 42 42 37.5228 42 32V12C42 6.47715 37.5228 2 32 2Z" stroke="black" stroke-opacity="0.99" stroke-width="4" stroke-linecap="round" stroke-linejoin="round"/>
<path d="M32 2H12C6.47715 2 2 6.47715 2 12V32C2 37.5228 6.47715 42 12 42H32C37.5228 42 42 37.5228 42 32V12C42 6.47715 37.5228 2 32 2Z" stroke="black" stroke-opacity="0.99" stroke-width="4" stroke-linecap="round" stroke-linejoin="round"/>
<path d="M32 2H12C6.47715 2 2 6.47715 2 12V32C2 37.5228 6.47715 42 12 42H32C37.5228 42 42 37.5228 42 32V12C42 6.47715 37.5228 2 32 2Z" stroke="black" stroke-opacity="0.99" stroke-width="4" stroke-linecap="round" stroke-linejoin="round"/>
<path d="M32 2H12C6.47715 2 2 6.47715 2 12V32C2 37.5228 6.47715 42 12 42H32C37.5228 42 42 37.5228 42 32V12C42 6.47715 37.5228 2 32 2Z" stroke="black" stroke-opacity="0.99" stroke-width="4" stroke-linecap="round" stroke-linejoin="round"/>
<path d="M32 2H12C6.47715 2 2 6.47715 2 12V32C2 37.5228 6.47715 42 12 42H32C37.5228 42 42 37.5228 42 32V12C42 6.47715 37.5228 2 32 2Z" stroke="black" stroke-opacity="0.99" stroke-width="4" stroke-linecap="round" stroke-linejoin="round"/>
<path d="M32 2H12C6.47715 2 2 6.47715 2 12V32C2 37.5228 6.47715 42 12 42H32C37.5228 42 42 37.5228 42 32V12C42 6.47715 37.5228 2 32 2Z" stroke="black" stroke-opacity="0.99" stroke-width="4" stroke-linecap="round" stroke-linejoin="round"/>
<path d="M32 2H12C6.47715 2 2 6.47715 2 12V32C2 37.5228 6.47715 42 12 42H32C37.5228 42 42 37.5228 42 32V12C42 6.47715 37.5228 2 32 2Z" stroke="black" stroke-opacity="0.99" stroke-width="4" stroke-linecap="round" stroke-linejoin="round"/>
<path d="M32 2H12C6.47715 2 2 6.47715 2 12V32C2 37.5228 6.47715 42 12 42H32C37.5228 42 42 37.5228 42 32V12C42 6.47715 37.5228 2 32 2Z" stroke="black" stroke-opacity="0.99" stroke-width="4" stroke-linecap="round" stroke-linejoin="round"/>
<path d="M32 2H12C6.47715 2 2 6.47715 2 12V32C2 37.5228 6.47715 42 12 42H32C37.5228 42 42 37.5228 42 32V12C42 6.47715 37.5228 2 32 2Z" stroke="black" stroke-opacity="0.99" stroke-width="4" stroke-linecap="round" stroke-linejoin="round"/>
<path d="M32 2H12C6.47715 2 2 6.47715 2 12V32C2 37.5228 6.47715 42 12 42H32C37.5228 42 42 37.5228 42 32V12C42 6.47715 37.5228 2 32 2Z" stroke="black" stroke-opacity="0.99" stroke-width="4" stroke-linecap="round" stroke-linejoin="round"/>
<path d="M32 2H12C6.47715 2 2 6.47715 2 12V32C2 37.5228 6.47715 42 12 42H32C37.5228 42 42 37.5228 42 32V12C42 6.47715 37.5228 2 32 2Z" stroke="black" stroke-opacity="0.99" stroke-width="4" stroke-linecap="round" stroke-linejoin="round"/>
<path d="M32 2H12C6.47715 2 2 6.47715 2 12V32C2 37.5228 6.47715 42 12 42H32C37.5228 42 42 37.5228 42 32V12C42 6.47715 37.5228 2 32 2Z" stroke="black" stroke-opacity="0.99" stroke-width="4" stroke-linecap="round" stroke-linejoin="round"/>
<path d="M32 2H12C6.47715 2 2 6.47715 2 12V32C2 37.5228 6.47715 42 12 42H32C37.5228 42 42 37.5228 42 32V12C42 6.47715 37.5228 2 32 2Z" stroke="black" stroke-opacity="0.99" stroke-width="4" stroke-linecap="round" stroke-linejoin="round"/>
<path d="M32 2H12C6.47715 2 2 6.47715 2 12V32C2 37.5228 6.47715 42 12 42H32C37.5228 42 42 37.5228 42 32V12C42 6.47715 37.5228 2 32 2Z" stroke="black" stroke-opacity="0.99" stroke-width="4" stroke-linecap="round" stroke-linejoin="round"/>
<path d="M32 2H12C6.47715 2 2 6.47715 2 12V32C2 37.5228 6.47715 42 12 42H32C37.5228 42 42 37.5228 42 32V12C42 6.47715 37.5228 2 32 2Z" stroke="black" stroke-opacity="0.99" stroke-width="4" stroke-linecap="round" stroke-linejoin="round"/>
<path d="M32 2H12C6.47715 2 2 6.47715 2 12V32C2 37.5228 6.47715 42 12 42H32C37.5228 42 42 37.5228 42 32V12C42 6.47715 37.5228 2 32 2Z" stroke="black" stroke-opacity="0.99" stroke-width="4" stroke-linecap="round" stroke-linejoin="round"/>
<path d="M32 2H12C6.47715 2 2 6.47715 2 12V32C2 37.5228 6.47715 42 12 42H32C37.5228 42 42 37.5228 42 32V12C42 6.47715 37.5228 2 32 2Z" stroke="black" stroke-opacity="0.99" stroke-width="4" stroke-linecap="round" stroke-linejoin="round"/>
<path d="M32 2H12C6.47715 2 2 6.47715 2 12V32C2 37.5228 6.47715 42 12 42H32C37.5228 42 42 37.5228 42 32V12C42 6.47715 37.5228 2 32 2Z" stroke="black" stroke-opacity="0.99" stroke-width="4" stroke-linecap="round" stroke-linejoin="round"/>
<path d="M32 2H12C6.47715 2 2 6.47715 2 12V32C2 37.5228 6.47715 42 12 42H32C37.5228 42 42 37.5228 42 32V12C42 6.47715 37.5228 2 32 2Z" stroke="black" stroke-opacity="0.99" stroke-width="4" stroke-linecap="round" stroke-linejoin="round"/>
<path d="M32 2H12C6.47715 2 2 6.47715 2 12V32C2 37.5228 6.47715 42 12 42H32C37.5228 42 42 37.5228 42 32V12C42 6.47715 37.5228 2 32 2Z" stroke="black" stroke-opacity="0.99" stroke-width="4" stroke-linecap="round" stroke-linejoin="round"/>
<path d="M32 2H12C6.47715 2 2 6.47715 2 12V32C2 37.5228 6.47715 42 12 42H32C37.5228 42 42 37.5228 42 32V12C42 6.47715 37.5228 2 32 2Z" stroke="black" stroke-opacity="0.99" stroke-width="4" stroke-linecap="round" stroke-linejoin="round"/>
<path d="M32 2H12C6.47715 2 2 6.47715 2 12V32C2 37.5228 6.47715 42 12 42H32C37.5228 42 42 37.5228 42 32V12C42 6.47715 37.5228 2 32 2Z" stroke="black" stroke-opacity="0.99" stroke-width="4" stroke-linecap="round" stroke-linejoin="round"/>
<path d="M32 2H12C6.47715 2 2 6.47715 2 12V32C2 37.5228 6.47715 42 12 42H32C37.5228 42 42 37.5228 42 32V12C42 6.47715 37.5228 2 32 2Z" stroke="black" stroke-opacity="0.99" stroke-width="4" stroke-linecap="round" stroke-linejoin="round"/>
<path d="M32 2H12C6.47715 2 2 6.47715 2 12V32C2 37.5228 6.47715 42 12 42H32C37.5228 42 42 37.5228 42 32V12C42 6.47715 37.5228 2 32 2Z" stroke="black" stroke-opacity="0.99" stroke-width="4" stroke-linecap="round" stroke-linejoin="round"/>
<path d="M32 2H12C6.47715 2 2 6.47715 2 12V32C2 37.5228 6.47715 42 12 42H32C37.5228 42 42 37.5228 42 32V12C42 6.47715 37.5228 2 32 2Z" stroke="black" stroke-opacity="0.99" stroke-width="4" stroke-linecap="round" stroke-linejoin="round"/>
<path d="M32 2H12C6.47715 2 2 6.47715 2 12V32C2 37.5228 6.47715 42 12 42H32C37.5228 42 42 37.5228 42 32V12C42 6.47715 37.5228 2 32 2Z" stroke="black" stroke-opacity="0.99" stroke-width="4" stroke-linecap="round" stroke-linejoin="round"/>
<path d="M32 2H12C6.47715 2 2 6.47715 2 12V32C2 37.5228 6.47715 42 12 42H32C37.5228 42 42 37.5228 42 32V12C42 6.47715 37.5228 2 32 2Z" stroke="black" stroke-opacity="0.99" stroke-width="4" stroke-linecap="round" stroke-linejoin="round"/>
<path d="M32 2H12C6.47715 2 2 6.47715 2 12V32C2 37.5228 6.47715 42 12 42H32C37.5228 42 42 37.5228 42 32V12C42 6.47715 37.5228 2 32 2Z" stroke="black" stroke-opacity="0.99" stroke-width="4" stroke-linecap="round" stroke-linejoin="round"/>
<path d="M32 2H12C6.47715 2 2 6.47715 2 12V32C2 37.5228 6.47715 42 12 42H32C37.5228 42 42 37.5228 42 32V12C42 6.47715 37.5228 2 32 2Z" stroke="black" stroke-opacity="0.99" stroke-width="4" stroke-linecap="round" stroke-linejoin="round"/>
<path d="M32 2H12C6.47715 2 2 6.47715 2 12V32C2 37.5228 6.47715 42 12 42H32C37.5228 42 42 37.5228 42 32V12C42 6.47715 37.5228 2 32 2Z" stroke="black" stroke-opacity="0.99" stroke-width="4" stroke-linecap="round" stroke-linejoin="round"/>
<path d="M32 2H12C6.47715 2 2 6.47715 2 12V32C2 37.5228 6.47715 42 12 42H32C37.5228 42 42 37.5228 42 32V12C42 6.47715 37.5228 2 32 2Z" stroke="black" stroke-opacity="0.99" stroke-width="4" stroke-linecap="round" stroke-linejoin="round"/>
<path d="M32 2H12C6.47715 2 2 6.47715 2 12V32C2 37.5228 6.47715 42 12 42H32C37.5228 42 42 37.5228 42 32V12C42 6.47715 37.5228 2 32 2Z" stroke="black" stroke-opacity="0.99" stroke-width="4" stroke-linecap="round" stroke-linejoin="round"/>
<path d="M32 2H12C6.47715 2 2 6.47715 2 12V32C2 37.5228 6.47715 42 12 42H32C37.5228 42 42 37.5228 42 32V12C42 6.47715 37.5228 2 32 2Z" stroke="black" stroke-opacity="0.99" stroke-width="4" stroke-linecap="round" stroke-linejoin="round"/>
<path d="M32 2H12C6.47715 2 2 6.47715 2 12V32C2 37.5228 6.47715 42 12 42H32C37.5228 42 42 37.5228 42 32V12C42 6.47715 37.5228 2 32 2Z" stroke="black" stroke-opacity="0.99" stroke-width="4" stroke-linecap="round" stroke-linejoin="round"/>
<path d="M29.8012 21.1405C30.048 22.805 29.7637 24.5049 28.9887 25.9985C28.2137 27.4921 26.9875 28.7033 25.4844 29.4599C23.9814 30.2164 22.2781 30.4797 20.6167 30.2124C18.9554 29.945 17.4207 29.1607 16.2308 27.9708C15.041 26.781 14.2566 25.2463 13.9893 23.5849C13.722 21.9236 13.9853 20.2203 14.7418 18.7173C15.4983 17.2142 16.7095 15.988 18.2031 15.213C19.6967 14.438 21.3967 14.1537 23.0612 14.4005C24.759 14.6523 26.3309 15.4434 27.5446 16.6571C28.7582 17.8708 29.5494 19.4427 29.8012 21.1405Z" stroke="black" stroke-opacity="0.99" stroke-width="4" stroke-linecap="round" stroke-linejoin="round"/>
<path d="M32.7939 11.3989H32.8174" stroke="black" stroke-opacity="0.99" stroke-width="4" stroke-linecap="round" stroke-linejoin="round"/>
</svg>
