<svg width="44" height="44" viewBox="0 0 44 44" fill="none" xmlns="http://www.w3.org/2000/svg">
<path d="M29.9961 14.6311C33.1787 14.6311 36.2309 15.9619 38.4814 18.3308C40.7318 20.6996 41.9961 23.9125 41.9961 27.2626V41.9993H33.9961V27.2626C33.9961 26.1459 33.5747 25.075 32.8245 24.2853C32.0744 23.4957 31.057 23.0521 29.9961 23.0521C28.9352 23.0521 27.9178 23.4957 27.1677 24.2853C26.4175 25.075 25.9961 26.1459 25.9961 27.2626V41.9993H17.9961V27.2626C17.9961 23.9125 19.2604 20.6996 21.5108 18.3308C23.7612 15.9619 26.8135 14.6311 29.9961 14.6311V14.6311Z" stroke="black" stroke-width="4" stroke-linecap="round" stroke-linejoin="round"/>
<path d="M29.9961 14.6311C33.1787 14.6311 36.2309 15.9619 38.4814 18.3308C40.7318 20.6996 41.9961 23.9125 41.9961 27.2626V41.9993H33.9961V27.2626C33.9961 26.1459 33.5747 25.075 32.8245 24.2853C32.0744 23.4957 31.057 23.0521 29.9961 23.0521C28.9352 23.0521 27.9178 23.4957 27.1677 24.2853C26.4175 25.075 25.9961 26.1459 25.9961 27.2626V41.9993H17.9961V27.2626C17.9961 23.9125 19.2604 20.6996 21.5108 18.3308C23.7612 15.9619 26.8135 14.6311 29.9961 14.6311V14.6311Z" stroke="black" stroke-width="4" stroke-linecap="round" stroke-linejoin="round"/>
<path d="M29.9961 14.6311C33.1787 14.6311 36.2309 15.9619 38.4814 18.3308C40.7318 20.6996 41.9961 23.9125 41.9961 27.2626V41.9993H33.9961V27.2626C33.9961 26.1459 33.5747 25.075 32.8245 24.2853C32.0744 23.4957 31.057 23.0521 29.9961 23.0521C28.9352 23.0521 27.9178 23.4957 27.1677 24.2853C26.4175 25.075 25.9961 26.1459 25.9961 27.2626V41.9993H17.9961V27.2626C17.9961 23.9125 19.2604 20.6996 21.5108 18.3308C23.7612 15.9619 26.8135 14.6311 29.9961 14.6311V14.6311Z" stroke="black" stroke-width="4" stroke-linecap="round" stroke-linejoin="round"/>
<path d="M29.9961 14.6311C33.1787 14.6311 36.2309 15.9619 38.4814 18.3308C40.7318 20.6996 41.9961 23.9125 41.9961 27.2626V41.9993H33.9961V27.2626C33.9961 26.1459 33.5747 25.075 32.8245 24.2853C32.0744 23.4957 31.057 23.0521 29.9961 23.0521C28.9352 23.0521 27.9178 23.4957 27.1677 24.2853C26.4175 25.075 25.9961 26.1459 25.9961 27.2626V41.9993H17.9961V27.2626C17.9961 23.9125 19.2604 20.6996 21.5108 18.3308C23.7612 15.9619 26.8135 14.6311 29.9961 14.6311V14.6311Z" stroke="black" stroke-width="4" stroke-linecap="round" stroke-linejoin="round"/>
<path d="M29.9961 14.6311C33.1787 14.6311 36.2309 15.9619 38.4814 18.3308C40.7318 20.6996 41.9961 23.9125 41.9961 27.2626V41.9993H33.9961V27.2626C33.9961 26.1459 33.5747 25.075 32.8245 24.2853C32.0744 23.4957 31.057 23.0521 29.9961 23.0521C28.9352 23.0521 27.9178 23.4957 27.1677 24.2853C26.4175 25.075 25.9961 26.1459 25.9961 27.2626V41.9993H17.9961V27.2626C17.9961 23.9125 19.2604 20.6996 21.5108 18.3308C23.7612 15.9619 26.8135 14.6311 29.9961 14.6311V14.6311Z" stroke="black" stroke-width="4" stroke-linecap="round" stroke-linejoin="round"/>
<path d="M29.9961 14.6311C33.1787 14.6311 36.2309 15.9619 38.4814 18.3308C40.7318 20.6996 41.9961 23.9125 41.9961 27.2626V41.9993H33.9961V27.2626C33.9961 26.1459 33.5747 25.075 32.8245 24.2853C32.0744 23.4957 31.057 23.0521 29.9961 23.0521C28.9352 23.0521 27.9178 23.4957 27.1677 24.2853C26.4175 25.075 25.9961 26.1459 25.9961 27.2626V41.9993H17.9961V27.2626C17.9961 23.9125 19.2604 20.6996 21.5108 18.3308C23.7612 15.9619 26.8135 14.6311 29.9961 14.6311V14.6311Z" stroke="black" stroke-width="4" stroke-linecap="round" stroke-linejoin="round"/>
<path d="M29.9961 14.6311C33.1787 14.6311 36.2309 15.9619 38.4814 18.3308C40.7318 20.6996 41.9961 23.9125 41.9961 27.2626V41.9993H33.9961V27.2626C33.9961 26.1459 33.5747 25.075 32.8245 24.2853C32.0744 23.4957 31.057 23.0521 29.9961 23.0521C28.9352 23.0521 27.9178 23.4957 27.1677 24.2853C26.4175 25.075 25.9961 26.1459 25.9961 27.2626V41.9993H17.9961V27.2626C17.9961 23.9125 19.2604 20.6996 21.5108 18.3308C23.7612 15.9619 26.8135 14.6311 29.9961 14.6311V14.6311Z" stroke="black" stroke-width="4" stroke-linecap="round" stroke-linejoin="round"/>
<path d="M29.9961 14.6311C33.1787 14.6311 36.2309 15.9619 38.4814 18.3308C40.7318 20.6996 41.9961 23.9125 41.9961 27.2626V41.9993H33.9961V27.2626C33.9961 26.1459 33.5747 25.075 32.8245 24.2853C32.0744 23.4957 31.057 23.0521 29.9961 23.0521C28.9352 23.0521 27.9178 23.4957 27.1677 24.2853C26.4175 25.075 25.9961 26.1459 25.9961 27.2626V41.9993H17.9961V27.2626C17.9961 23.9125 19.2604 20.6996 21.5108 18.3308C23.7612 15.9619 26.8135 14.6311 29.9961 14.6311V14.6311Z" stroke="black" stroke-width="4" stroke-linecap="round" stroke-linejoin="round"/>
<path d="M29.9961 14.6311C33.1787 14.6311 36.2309 15.9619 38.4814 18.3308C40.7318 20.6996 41.9961 23.9125 41.9961 27.2626V41.9993H33.9961V27.2626C33.9961 26.1459 33.5747 25.075 32.8245 24.2853C32.0744 23.4957 31.057 23.0521 29.9961 23.0521C28.9352 23.0521 27.9178 23.4957 27.1677 24.2853C26.4175 25.075 25.9961 26.1459 25.9961 27.2626V41.9993H17.9961V27.2626C17.9961 23.9125 19.2604 20.6996 21.5108 18.3308C23.7612 15.9619 26.8135 14.6311 29.9961 14.6311V14.6311Z" stroke="black" stroke-width="4" stroke-linecap="round" stroke-linejoin="round"/>
<path d="M29.9961 14.6311C33.1787 14.6311 36.2309 15.9619 38.4814 18.3308C40.7318 20.6996 41.9961 23.9125 41.9961 27.2626V41.9993H33.9961V27.2626C33.9961 26.1459 33.5747 25.075 32.8245 24.2853C32.0744 23.4957 31.057 23.0521 29.9961 23.0521C28.9352 23.0521 27.9178 23.4957 27.1677 24.2853C26.4175 25.075 25.9961 26.1459 25.9961 27.2626V41.9993H17.9961V27.2626C17.9961 23.9125 19.2604 20.6996 21.5108 18.3308C23.7612 15.9619 26.8135 14.6311 29.9961 14.6311V14.6311Z" stroke="black" stroke-width="4" stroke-linecap="round" stroke-linejoin="round"/>
<path d="M29.9961 14.6311C33.1787 14.6311 36.2309 15.9619 38.4814 18.3308C40.7318 20.6996 41.9961 23.9125 41.9961 27.2626V41.9993H33.9961V27.2626C33.9961 26.1459 33.5747 25.075 32.8245 24.2853C32.0744 23.4957 31.057 23.0521 29.9961 23.0521C28.9352 23.0521 27.9178 23.4957 27.1677 24.2853C26.4175 25.075 25.9961 26.1459 25.9961 27.2626V41.9993H17.9961V27.2626C17.9961 23.9125 19.2604 20.6996 21.5108 18.3308C23.7612 15.9619 26.8135 14.6311 29.9961 14.6311V14.6311Z" stroke="black" stroke-width="4" stroke-linecap="round" stroke-linejoin="round"/>
<path d="M29.9961 14.6311C33.1787 14.6311 36.2309 15.9619 38.4814 18.3308C40.7318 20.6996 41.9961 23.9125 41.9961 27.2626V41.9993H33.9961V27.2626C33.9961 26.1459 33.5747 25.075 32.8245 24.2853C32.0744 23.4957 31.057 23.0521 29.9961 23.0521C28.9352 23.0521 27.9178 23.4957 27.1677 24.2853C26.4175 25.075 25.9961 26.1459 25.9961 27.2626V41.9993H17.9961V27.2626C17.9961 23.9125 19.2604 20.6996 21.5108 18.3308C23.7612 15.9619 26.8135 14.6311 29.9961 14.6311V14.6311Z" stroke="black" stroke-width="4" stroke-linecap="round" stroke-linejoin="round"/>
<path d="M29.9961 14.6311C33.1787 14.6311 36.2309 15.9619 38.4814 18.3308C40.7318 20.6996 41.9961 23.9125 41.9961 27.2626V41.9993H33.9961V27.2626C33.9961 26.1459 33.5747 25.075 32.8245 24.2853C32.0744 23.4957 31.057 23.0521 29.9961 23.0521C28.9352 23.0521 27.9178 23.4957 27.1677 24.2853C26.4175 25.075 25.9961 26.1459 25.9961 27.2626V41.9993H17.9961V27.2626C17.9961 23.9125 19.2604 20.6996 21.5108 18.3308C23.7612 15.9619 26.8135 14.6311 29.9961 14.6311V14.6311Z" stroke="black" stroke-width="4" stroke-linecap="round" stroke-linejoin="round"/>
<path d="M29.9961 14.6311C33.1787 14.6311 36.2309 15.9619 38.4814 18.3308C40.7318 20.6996 41.9961 23.9125 41.9961 27.2626V41.9993H33.9961V27.2626C33.9961 26.1459 33.5747 25.075 32.8245 24.2853C32.0744 23.4957 31.057 23.0521 29.9961 23.0521C28.9352 23.0521 27.9178 23.4957 27.1677 24.2853C26.4175 25.075 25.9961 26.1459 25.9961 27.2626V41.9993H17.9961V27.2626C17.9961 23.9125 19.2604 20.6996 21.5108 18.3308C23.7612 15.9619 26.8135 14.6311 29.9961 14.6311V14.6311Z" stroke="black" stroke-width="4" stroke-linecap="round" stroke-linejoin="round"/>
<path d="M29.9961 14.6311C33.1787 14.6311 36.2309 15.9619 38.4814 18.3308C40.7318 20.6996 41.9961 23.9125 41.9961 27.2626V41.9993H33.9961V27.2626C33.9961 26.1459 33.5747 25.075 32.8245 24.2853C32.0744 23.4957 31.057 23.0521 29.9961 23.0521C28.9352 23.0521 27.9178 23.4957 27.1677 24.2853C26.4175 25.075 25.9961 26.1459 25.9961 27.2626V41.9993H17.9961V27.2626C17.9961 23.9125 19.2604 20.6996 21.5108 18.3308C23.7612 15.9619 26.8135 14.6311 29.9961 14.6311V14.6311Z" stroke="black" stroke-width="4" stroke-linecap="round" stroke-linejoin="round"/>
<path d="M29.9961 14.6311C33.1787 14.6311 36.2309 15.9619 38.4814 18.3308C40.7318 20.6996 41.9961 23.9125 41.9961 27.2626V41.9993H33.9961V27.2626C33.9961 26.1459 33.5747 25.075 32.8245 24.2853C32.0744 23.4957 31.057 23.0521 29.9961 23.0521C28.9352 23.0521 27.9178 23.4957 27.1677 24.2853C26.4175 25.075 25.9961 26.1459 25.9961 27.2626V41.9993H17.9961V27.2626C17.9961 23.9125 19.2604 20.6996 21.5108 18.3308C23.7612 15.9619 26.8135 14.6311 29.9961 14.6311V14.6311Z" stroke="black" stroke-width="4" stroke-linecap="round" stroke-linejoin="round"/>
<path d="M29.9961 14.6311C33.1787 14.6311 36.2309 15.9619 38.4814 18.3308C40.7318 20.6996 41.9961 23.9125 41.9961 27.2626V41.9993H33.9961V27.2626C33.9961 26.1459 33.5747 25.075 32.8245 24.2853C32.0744 23.4957 31.057 23.0521 29.9961 23.0521C28.9352 23.0521 27.9178 23.4957 27.1677 24.2853C26.4175 25.075 25.9961 26.1459 25.9961 27.2626V41.9993H17.9961V27.2626C17.9961 23.9125 19.2604 20.6996 21.5108 18.3308C23.7612 15.9619 26.8135 14.6311 29.9961 14.6311V14.6311Z" stroke="black" stroke-width="4" stroke-linecap="round" stroke-linejoin="round"/>
<path d="M29.9961 14.6311C33.1787 14.6311 36.2309 15.9619 38.4814 18.3308C40.7318 20.6996 41.9961 23.9125 41.9961 27.2626V41.9993H33.9961V27.2626C33.9961 26.1459 33.5747 25.075 32.8245 24.2853C32.0744 23.4957 31.057 23.0521 29.9961 23.0521C28.9352 23.0521 27.9178 23.4957 27.1677 24.2853C26.4175 25.075 25.9961 26.1459 25.9961 27.2626V41.9993H17.9961V27.2626C17.9961 23.9125 19.2604 20.6996 21.5108 18.3308C23.7612 15.9619 26.8135 14.6311 29.9961 14.6311V14.6311Z" stroke="black" stroke-width="4" stroke-linecap="round" stroke-linejoin="round"/>
<path d="M29.9961 14.6311C33.1787 14.6311 36.2309 15.9619 38.4814 18.3308C40.7318 20.6996 41.9961 23.9125 41.9961 27.2626V41.9993H33.9961V27.2626C33.9961 26.1459 33.5747 25.075 32.8245 24.2853C32.0744 23.4957 31.057 23.0521 29.9961 23.0521C28.9352 23.0521 27.9178 23.4957 27.1677 24.2853C26.4175 25.075 25.9961 26.1459 25.9961 27.2626V41.9993H17.9961V27.2626C17.9961 23.9125 19.2604 20.6996 21.5108 18.3308C23.7612 15.9619 26.8135 14.6311 29.9961 14.6311V14.6311Z" stroke="black" stroke-width="4" stroke-linecap="round" stroke-linejoin="round"/>
<path d="M29.9961 14.6311C33.1787 14.6311 36.2309 15.9619 38.4814 18.3308C40.7318 20.6996 41.9961 23.9125 41.9961 27.2626V41.9993H33.9961V27.2626C33.9961 26.1459 33.5747 25.075 32.8245 24.2853C32.0744 23.4957 31.057 23.0521 29.9961 23.0521C28.9352 23.0521 27.9178 23.4957 27.1677 24.2853C26.4175 25.075 25.9961 26.1459 25.9961 27.2626V41.9993H17.9961V27.2626C17.9961 23.9125 19.2604 20.6996 21.5108 18.3308C23.7612 15.9619 26.8135 14.6311 29.9961 14.6311V14.6311Z" stroke="black" stroke-width="4" stroke-linecap="round" stroke-linejoin="round"/>
<path d="M29.9961 14.6311C33.1787 14.6311 36.2309 15.9619 38.4814 18.3308C40.7318 20.6996 41.9961 23.9125 41.9961 27.2626V41.9993H33.9961V27.2626C33.9961 26.1459 33.5747 25.075 32.8245 24.2853C32.0744 23.4957 31.057 23.0521 29.9961 23.0521C28.9352 23.0521 27.9178 23.4957 27.1677 24.2853C26.4175 25.075 25.9961 26.1459 25.9961 27.2626V41.9993H17.9961V27.2626C17.9961 23.9125 19.2604 20.6996 21.5108 18.3308C23.7612 15.9619 26.8135 14.6311 29.9961 14.6311V14.6311Z" stroke="black" stroke-width="4" stroke-linecap="round" stroke-linejoin="round"/>
<path d="M29.9961 14.6311C33.1787 14.6311 36.2309 15.9619 38.4814 18.3308C40.7318 20.6996 41.9961 23.9125 41.9961 27.2626V41.9993H33.9961V27.2626C33.9961 26.1459 33.5747 25.075 32.8245 24.2853C32.0744 23.4957 31.057 23.0521 29.9961 23.0521C28.9352 23.0521 27.9178 23.4957 27.1677 24.2853C26.4175 25.075 25.9961 26.1459 25.9961 27.2626V41.9993H17.9961V27.2626C17.9961 23.9125 19.2604 20.6996 21.5108 18.3308C23.7612 15.9619 26.8135 14.6311 29.9961 14.6311V14.6311Z" stroke="black" stroke-width="4" stroke-linecap="round" stroke-linejoin="round"/>
<path d="M29.9961 14.6311C33.1787 14.6311 36.2309 15.9619 38.4814 18.3308C40.7318 20.6996 41.9961 23.9125 41.9961 27.2626V41.9993H33.9961V27.2626C33.9961 26.1459 33.5747 25.075 32.8245 24.2853C32.0744 23.4957 31.057 23.0521 29.9961 23.0521C28.9352 23.0521 27.9178 23.4957 27.1677 24.2853C26.4175 25.075 25.9961 26.1459 25.9961 27.2626V41.9993H17.9961V27.2626C17.9961 23.9125 19.2604 20.6996 21.5108 18.3308C23.7612 15.9619 26.8135 14.6311 29.9961 14.6311V14.6311Z" stroke="black" stroke-width="4" stroke-linecap="round" stroke-linejoin="round"/>
<path d="M29.9961 14.6311C33.1787 14.6311 36.2309 15.9619 38.4814 18.3308C40.7318 20.6996 41.9961 23.9125 41.9961 27.2626V41.9993H33.9961V27.2626C33.9961 26.1459 33.5747 25.075 32.8245 24.2853C32.0744 23.4957 31.057 23.0521 29.9961 23.0521C28.9352 23.0521 27.9178 23.4957 27.1677 24.2853C26.4175 25.075 25.9961 26.1459 25.9961 27.2626V41.9993H17.9961V27.2626C17.9961 23.9125 19.2604 20.6996 21.5108 18.3308C23.7612 15.9619 26.8135 14.6311 29.9961 14.6311V14.6311Z" stroke="black" stroke-width="4" stroke-linecap="round" stroke-linejoin="round"/>
<path d="M29.9961 14.6311C33.1787 14.6311 36.2309 15.9619 38.4814 18.3308C40.7318 20.6996 41.9961 23.9125 41.9961 27.2626V41.9993H33.9961V27.2626C33.9961 26.1459 33.5747 25.075 32.8245 24.2853C32.0744 23.4957 31.057 23.0521 29.9961 23.0521C28.9352 23.0521 27.9178 23.4957 27.1677 24.2853C26.4175 25.075 25.9961 26.1459 25.9961 27.2626V41.9993H17.9961V27.2626C17.9961 23.9125 19.2604 20.6996 21.5108 18.3308C23.7612 15.9619 26.8135 14.6311 29.9961 14.6311V14.6311Z" stroke="black" stroke-width="4" stroke-linecap="round" stroke-linejoin="round"/>
<path d="M29.9961 14.6311C33.1787 14.6311 36.2309 15.9619 38.4814 18.3308C40.7318 20.6996 41.9961 23.9125 41.9961 27.2626V41.9993H33.9961V27.2626C33.9961 26.1459 33.5747 25.075 32.8245 24.2853C32.0744 23.4957 31.057 23.0521 29.9961 23.0521C28.9352 23.0521 27.9178 23.4957 27.1677 24.2853C26.4175 25.075 25.9961 26.1459 25.9961 27.2626V41.9993H17.9961V27.2626C17.9961 23.9125 19.2604 20.6996 21.5108 18.3308C23.7612 15.9619 26.8135 14.6311 29.9961 14.6311V14.6311Z" stroke="black" stroke-width="4" stroke-linecap="round" stroke-linejoin="round"/>
<path d="M29.9961 14.6311C33.1787 14.6311 36.2309 15.9619 38.4814 18.3308C40.7318 20.6996 41.9961 23.9125 41.9961 27.2626V41.9993H33.9961V27.2626C33.9961 26.1459 33.5747 25.075 32.8245 24.2853C32.0744 23.4957 31.057 23.0521 29.9961 23.0521C28.9352 23.0521 27.9178 23.4957 27.1677 24.2853C26.4175 25.075 25.9961 26.1459 25.9961 27.2626V41.9993H17.9961V27.2626C17.9961 23.9125 19.2604 20.6996 21.5108 18.3308C23.7612 15.9619 26.8135 14.6311 29.9961 14.6311V14.6311Z" stroke="black" stroke-width="4" stroke-linecap="round" stroke-linejoin="round"/>
<path d="M29.9961 14.6311C33.1787 14.6311 36.2309 15.9619 38.4814 18.3308C40.7318 20.6996 41.9961 23.9125 41.9961 27.2626V41.9993H33.9961V27.2626C33.9961 26.1459 33.5747 25.075 32.8245 24.2853C32.0744 23.4957 31.057 23.0521 29.9961 23.0521C28.9352 23.0521 27.9178 23.4957 27.1677 24.2853C26.4175 25.075 25.9961 26.1459 25.9961 27.2626V41.9993H17.9961V27.2626C17.9961 23.9125 19.2604 20.6996 21.5108 18.3308C23.7612 15.9619 26.8135 14.6311 29.9961 14.6311V14.6311Z" stroke="black" stroke-width="4" stroke-linecap="round" stroke-linejoin="round"/>
<path d="M29.9961 14.6311C33.1787 14.6311 36.2309 15.9619 38.4814 18.3308C40.7318 20.6996 41.9961 23.9125 41.9961 27.2626V41.9993H33.9961V27.2626C33.9961 26.1459 33.5747 25.075 32.8245 24.2853C32.0744 23.4957 31.057 23.0521 29.9961 23.0521C28.9352 23.0521 27.9178 23.4957 27.1677 24.2853C26.4175 25.075 25.9961 26.1459 25.9961 27.2626V41.9993H17.9961V27.2626C17.9961 23.9125 19.2604 20.6996 21.5108 18.3308C23.7612 15.9619 26.8135 14.6311 29.9961 14.6311V14.6311Z" stroke="black" stroke-width="4" stroke-linecap="round" stroke-linejoin="round"/>
<path d="M29.9961 14.6311C33.1787 14.6311 36.2309 15.9619 38.4814 18.3308C40.7318 20.6996 41.9961 23.9125 41.9961 27.2626V41.9993H33.9961V27.2626C33.9961 26.1459 33.5747 25.075 32.8245 24.2853C32.0744 23.4957 31.057 23.0521 29.9961 23.0521C28.9352 23.0521 27.9178 23.4957 27.1677 24.2853C26.4175 25.075 25.9961 26.1459 25.9961 27.2626V41.9993H17.9961V27.2626C17.9961 23.9125 19.2604 20.6996 21.5108 18.3308C23.7612 15.9619 26.8135 14.6311 29.9961 14.6311V14.6311Z" stroke="black" stroke-width="4" stroke-linecap="round" stroke-linejoin="round"/>
<path d="M29.9961 14.6311C33.1787 14.6311 36.2309 15.9619 38.4814 18.3308C40.7318 20.6996 41.9961 23.9125 41.9961 27.2626V41.9993H33.9961V27.2626C33.9961 26.1459 33.5747 25.075 32.8245 24.2853C32.0744 23.4957 31.057 23.0521 29.9961 23.0521C28.9352 23.0521 27.9178 23.4957 27.1677 24.2853C26.4175 25.075 25.9961 26.1459 25.9961 27.2626V41.9993H17.9961V27.2626C17.9961 23.9125 19.2604 20.6996 21.5108 18.3308C23.7612 15.9619 26.8135 14.6311 29.9961 14.6311V14.6311Z" stroke="black" stroke-width="4" stroke-linecap="round" stroke-linejoin="round"/>
<path d="M29.9961 14.6311C33.1787 14.6311 36.2309 15.9619 38.4814 18.3308C40.7318 20.6996 41.9961 23.9125 41.9961 27.2626V41.9993H33.9961V27.2626C33.9961 26.1459 33.5747 25.075 32.8245 24.2853C32.0744 23.4957 31.057 23.0521 29.9961 23.0521C28.9352 23.0521 27.9178 23.4957 27.1677 24.2853C26.4175 25.075 25.9961 26.1459 25.9961 27.2626V41.9993H17.9961V27.2626C17.9961 23.9125 19.2604 20.6996 21.5108 18.3308C23.7612 15.9619 26.8135 14.6311 29.9961 14.6311V14.6311Z" stroke="black" stroke-width="4" stroke-linecap="round" stroke-linejoin="round"/>
<path d="M29.9961 14.6311C33.1787 14.6311 36.2309 15.9619 38.4814 18.3308C40.7318 20.6996 41.9961 23.9125 41.9961 27.2626V41.9993H33.9961V27.2626C33.9961 26.1459 33.5747 25.075 32.8245 24.2853C32.0744 23.4957 31.057 23.0521 29.9961 23.0521C28.9352 23.0521 27.9178 23.4957 27.1677 24.2853C26.4175 25.075 25.9961 26.1459 25.9961 27.2626V41.9993H17.9961V27.2626C17.9961 23.9125 19.2604 20.6996 21.5108 18.3308C23.7612 15.9619 26.8135 14.6311 29.9961 14.6311V14.6311Z" stroke="black" stroke-width="4" stroke-linecap="round" stroke-linejoin="round"/>
<path d="M29.9961 14.6311C33.1787 14.6311 36.2309 15.9619 38.4814 18.3308C40.7318 20.6996 41.9961 23.9125 41.9961 27.2626V41.9993H33.9961V27.2626C33.9961 26.1459 33.5747 25.075 32.8245 24.2853C32.0744 23.4957 31.057 23.0521 29.9961 23.0521C28.9352 23.0521 27.9178 23.4957 27.1677 24.2853C26.4175 25.075 25.9961 26.1459 25.9961 27.2626V41.9993H17.9961V27.2626C17.9961 23.9125 19.2604 20.6996 21.5108 18.3308C23.7612 15.9619 26.8135 14.6311 29.9961 14.6311V14.6311Z" stroke="black" stroke-width="4" stroke-linecap="round" stroke-linejoin="round"/>
<path d="M29.9961 14.6311C33.1787 14.6311 36.2309 15.9619 38.4814 18.3308C40.7318 20.6996 41.9961 23.9125 41.9961 27.2626V41.9993H33.9961V27.2626C33.9961 26.1459 33.5747 25.075 32.8245 24.2853C32.0744 23.4957 31.057 23.0521 29.9961 23.0521C28.9352 23.0521 27.9178 23.4957 27.1677 24.2853C26.4175 25.075 25.9961 26.1459 25.9961 27.2626V41.9993H17.9961V27.2626C17.9961 23.9125 19.2604 20.6996 21.5108 18.3308C23.7612 15.9619 26.8135 14.6311 29.9961 14.6311V14.6311Z" stroke="black" stroke-width="4" stroke-linecap="round" stroke-linejoin="round"/>
<path d="M29.9961 14.6311C33.1787 14.6311 36.2309 15.9619 38.4814 18.3308C40.7318 20.6996 41.9961 23.9125 41.9961 27.2626V41.9993H33.9961V27.2626C33.9961 26.1459 33.5747 25.075 32.8245 24.2853C32.0744 23.4957 31.057 23.0521 29.9961 23.0521C28.9352 23.0521 27.9178 23.4957 27.1677 24.2853C26.4175 25.075 25.9961 26.1459 25.9961 27.2626V41.9993H17.9961V27.2626C17.9961 23.9125 19.2604 20.6996 21.5108 18.3308C23.7612 15.9619 26.8135 14.6311 29.9961 14.6311V14.6311Z" stroke="black" stroke-width="4" stroke-linecap="round" stroke-linejoin="round"/>
<path d="M29.9961 14.6311C33.1787 14.6311 36.2309 15.9619 38.4814 18.3308C40.7318 20.6996 41.9961 23.9125 41.9961 27.2626V41.9993H33.9961V27.2626C33.9961 26.1459 33.5747 25.075 32.8245 24.2853C32.0744 23.4957 31.057 23.0521 29.9961 23.0521C28.9352 23.0521 27.9178 23.4957 27.1677 24.2853C26.4175 25.075 25.9961 26.1459 25.9961 27.2626V41.9993H17.9961V27.2626C17.9961 23.9125 19.2604 20.6996 21.5108 18.3308C23.7612 15.9619 26.8135 14.6311 29.9961 14.6311V14.6311Z" stroke="black" stroke-width="4" stroke-linecap="round" stroke-linejoin="round"/>
<path d="M29.9961 14.6311C33.1787 14.6311 36.2309 15.9619 38.4814 18.3308C40.7318 20.6996 41.9961 23.9125 41.9961 27.2626V41.9993H33.9961V27.2626C33.9961 26.1459 33.5747 25.075 32.8245 24.2853C32.0744 23.4957 31.057 23.0521 29.9961 23.0521C28.9352 23.0521 27.9178 23.4957 27.1677 24.2853C26.4175 25.075 25.9961 26.1459 25.9961 27.2626V41.9993H17.9961V27.2626C17.9961 23.9125 19.2604 20.6996 21.5108 18.3308C23.7612 15.9619 26.8135 14.6311 29.9961 14.6311V14.6311Z" stroke="black" stroke-width="4" stroke-linecap="round" stroke-linejoin="round"/>
<path d="M29.9961 14.6311C33.1787 14.6311 36.2309 15.9619 38.4814 18.3308C40.7318 20.6996 41.9961 23.9125 41.9961 27.2626V41.9993H33.9961V27.2626C33.9961 26.1459 33.5747 25.075 32.8245 24.2853C32.0744 23.4957 31.057 23.0521 29.9961 23.0521C28.9352 23.0521 27.9178 23.4957 27.1677 24.2853C26.4175 25.075 25.9961 26.1459 25.9961 27.2626V41.9993H17.9961V27.2626C17.9961 23.9125 19.2604 20.6996 21.5108 18.3308C23.7612 15.9619 26.8135 14.6311 29.9961 14.6311V14.6311Z" stroke="black" stroke-width="4" stroke-linecap="round" stroke-linejoin="round"/>
<path d="M29.9961 14.6311C33.1787 14.6311 36.2309 15.9619 38.4814 18.3308C40.7318 20.6996 41.9961 23.9125 41.9961 27.2626V41.9993H33.9961V27.2626C33.9961 26.1459 33.5747 25.075 32.8245 24.2853C32.0744 23.4957 31.057 23.0521 29.9961 23.0521C28.9352 23.0521 27.9178 23.4957 27.1677 24.2853C26.4175 25.075 25.9961 26.1459 25.9961 27.2626V41.9993H17.9961V27.2626C17.9961 23.9125 19.2604 20.6996 21.5108 18.3308C23.7612 15.9619 26.8135 14.6311 29.9961 14.6311V14.6311Z" stroke="black" stroke-width="4" stroke-linecap="round" stroke-linejoin="round"/>
<path d="M29.9961 14.6311C33.1787 14.6311 36.2309 15.9619 38.4814 18.3308C40.7318 20.6996 41.9961 23.9125 41.9961 27.2626V41.9993H33.9961V27.2626C33.9961 26.1459 33.5747 25.075 32.8245 24.2853C32.0744 23.4957 31.057 23.0521 29.9961 23.0521C28.9352 23.0521 27.9178 23.4957 27.1677 24.2853C26.4175 25.075 25.9961 26.1459 25.9961 27.2626V41.9993H17.9961V27.2626C17.9961 23.9125 19.2604 20.6996 21.5108 18.3308C23.7612 15.9619 26.8135 14.6311 29.9961 14.6311V14.6311Z" stroke="black" stroke-width="4" stroke-linecap="round" stroke-linejoin="round"/>
<path d="M29.9961 14.6311C33.1787 14.6311 36.2309 15.9619 38.4814 18.3308C40.7318 20.6996 41.9961 23.9125 41.9961 27.2626V41.9993H33.9961V27.2626C33.9961 26.1459 33.5747 25.075 32.8245 24.2853C32.0744 23.4957 31.057 23.0521 29.9961 23.0521C28.9352 23.0521 27.9178 23.4957 27.1677 24.2853C26.4175 25.075 25.9961 26.1459 25.9961 27.2626V41.9993H17.9961V27.2626C17.9961 23.9125 19.2604 20.6996 21.5108 18.3308C23.7612 15.9619 26.8135 14.6311 29.9961 14.6311V14.6311Z" stroke="black" stroke-width="4" stroke-linecap="round" stroke-linejoin="round"/>
<path d="M29.9961 14.6311C33.1787 14.6311 36.2309 15.9619 38.4814 18.3308C40.7318 20.6996 41.9961 23.9125 41.9961 27.2626V41.9993H33.9961V27.2626C33.9961 26.1459 33.5747 25.075 32.8245 24.2853C32.0744 23.4957 31.057 23.0521 29.9961 23.0521C28.9352 23.0521 27.9178 23.4957 27.1677 24.2853C26.4175 25.075 25.9961 26.1459 25.9961 27.2626V41.9993H17.9961V27.2626C17.9961 23.9125 19.2604 20.6996 21.5108 18.3308C23.7612 15.9619 26.8135 14.6311 29.9961 14.6311V14.6311Z" stroke="black" stroke-width="4" stroke-linecap="round" stroke-linejoin="round"/>
<path d="M29.9961 14.6311C33.1787 14.6311 36.2309 15.9619 38.4814 18.3308C40.7318 20.6996 41.9961 23.9125 41.9961 27.2626V41.9993H33.9961V27.2626C33.9961 26.1459 33.5747 25.075 32.8245 24.2853C32.0744 23.4957 31.057 23.0521 29.9961 23.0521C28.9352 23.0521 27.9178 23.4957 27.1677 24.2853C26.4175 25.075 25.9961 26.1459 25.9961 27.2626V41.9993H17.9961V27.2626C17.9961 23.9125 19.2604 20.6996 21.5108 18.3308C23.7612 15.9619 26.8135 14.6311 29.9961 14.6311V14.6311Z" stroke="black" stroke-width="4" stroke-linecap="round" stroke-linejoin="round"/>
<path d="M29.9961 14.6311C33.1787 14.6311 36.2309 15.9619 38.4814 18.3308C40.7318 20.6996 41.9961 23.9125 41.9961 27.2626V41.9993H33.9961V27.2626C33.9961 26.1459 33.5747 25.075 32.8245 24.2853C32.0744 23.4957 31.057 23.0521 29.9961 23.0521C28.9352 23.0521 27.9178 23.4957 27.1677 24.2853C26.4175 25.075 25.9961 26.1459 25.9961 27.2626V41.9993H17.9961V27.2626C17.9961 23.9125 19.2604 20.6996 21.5108 18.3308C23.7612 15.9619 26.8135 14.6311 29.9961 14.6311V14.6311Z" stroke="black" stroke-width="4" stroke-linecap="round" stroke-linejoin="round"/>
<path d="M29.9961 14.6311C33.1787 14.6311 36.2309 15.9619 38.4814 18.3308C40.7318 20.6996 41.9961 23.9125 41.9961 27.2626V41.9993H33.9961V27.2626C33.9961 26.1459 33.5747 25.075 32.8245 24.2853C32.0744 23.4957 31.057 23.0521 29.9961 23.0521C28.9352 23.0521 27.9178 23.4957 27.1677 24.2853C26.4175 25.075 25.9961 26.1459 25.9961 27.2626V41.9993H17.9961V27.2626C17.9961 23.9125 19.2604 20.6996 21.5108 18.3308C23.7612 15.9619 26.8135 14.6311 29.9961 14.6311V14.6311Z" stroke="black" stroke-width="4" stroke-linecap="round" stroke-linejoin="round"/>
<path d="M29.9961 14.6311C33.1787 14.6311 36.2309 15.9619 38.4814 18.3308C40.7318 20.6996 41.9961 23.9125 41.9961 27.2626V41.9993H33.9961V27.2626C33.9961 26.1459 33.5747 25.075 32.8245 24.2853C32.0744 23.4957 31.057 23.0521 29.9961 23.0521C28.9352 23.0521 27.9178 23.4957 27.1677 24.2853C26.4175 25.075 25.9961 26.1459 25.9961 27.2626V41.9993H17.9961V27.2626C17.9961 23.9125 19.2604 20.6996 21.5108 18.3308C23.7612 15.9619 26.8135 14.6311 29.9961 14.6311V14.6311Z" stroke="black" stroke-width="4" stroke-linecap="round" stroke-linejoin="round"/>
<path d="M29.9961 14.6311C33.1787 14.6311 36.2309 15.9619 38.4814 18.3308C40.7318 20.6996 41.9961 23.9125 41.9961 27.2626V41.9993H33.9961V27.2626C33.9961 26.1459 33.5747 25.075 32.8245 24.2853C32.0744 23.4957 31.057 23.0521 29.9961 23.0521C28.9352 23.0521 27.9178 23.4957 27.1677 24.2853C26.4175 25.075 25.9961 26.1459 25.9961 27.2626V41.9993H17.9961V27.2626C17.9961 23.9125 19.2604 20.6996 21.5108 18.3308C23.7612 15.9619 26.8135 14.6311 29.9961 14.6311V14.6311Z" stroke="black" stroke-width="4" stroke-linecap="round" stroke-linejoin="round"/>
<path d="M29.9961 14.6311C33.1787 14.6311 36.2309 15.9619 38.4814 18.3308C40.7318 20.6996 41.9961 23.9125 41.9961 27.2626V41.9993H33.9961V27.2626C33.9961 26.1459 33.5747 25.075 32.8245 24.2853C32.0744 23.4957 31.057 23.0521 29.9961 23.0521C28.9352 23.0521 27.9178 23.4957 27.1677 24.2853C26.4175 25.075 25.9961 26.1459 25.9961 27.2626V41.9993H17.9961V27.2626C17.9961 23.9125 19.2604 20.6996 21.5108 18.3308C23.7612 15.9619 26.8135 14.6311 29.9961 14.6311V14.6311Z" stroke="black" stroke-width="4" stroke-linecap="round" stroke-linejoin="round"/>
<path d="M29.9961 14.6311C33.1787 14.6311 36.2309 15.9619 38.4814 18.3308C40.7318 20.6996 41.9961 23.9125 41.9961 27.2626V41.9993H33.9961V27.2626C33.9961 26.1459 33.5747 25.075 32.8245 24.2853C32.0744 23.4957 31.057 23.0521 29.9961 23.0521C28.9352 23.0521 27.9178 23.4957 27.1677 24.2853C26.4175 25.075 25.9961 26.1459 25.9961 27.2626V41.9993H17.9961V27.2626C17.9961 23.9125 19.2604 20.6996 21.5108 18.3308C23.7612 15.9619 26.8135 14.6311 29.9961 14.6311V14.6311Z" stroke="black" stroke-width="4" stroke-linecap="round" stroke-linejoin="round"/>
<path d="M29.9961 14.6311C33.1787 14.6311 36.2309 15.9619 38.4814 18.3308C40.7318 20.6996 41.9961 23.9125 41.9961 27.2626V41.9993H33.9961V27.2626C33.9961 26.1459 33.5747 25.075 32.8245 24.2853C32.0744 23.4957 31.057 23.0521 29.9961 23.0521C28.9352 23.0521 27.9178 23.4957 27.1677 24.2853C26.4175 25.075 25.9961 26.1459 25.9961 27.2626V41.9993H17.9961V27.2626C17.9961 23.9125 19.2604 20.6996 21.5108 18.3308C23.7612 15.9619 26.8135 14.6311 29.9961 14.6311V14.6311Z" stroke="black" stroke-width="4" stroke-linecap="round" stroke-linejoin="round"/>
<path d="M29.9961 14.6311C33.1787 14.6311 36.2309 15.9619 38.4814 18.3308C40.7318 20.6996 41.9961 23.9125 41.9961 27.2626V41.9993H33.9961V27.2626C33.9961 26.1459 33.5747 25.075 32.8245 24.2853C32.0744 23.4957 31.057 23.0521 29.9961 23.0521C28.9352 23.0521 27.9178 23.4957 27.1677 24.2853C26.4175 25.075 25.9961 26.1459 25.9961 27.2626V41.9993H17.9961V27.2626C17.9961 23.9125 19.2604 20.6996 21.5108 18.3308C23.7612 15.9619 26.8135 14.6311 29.9961 14.6311V14.6311Z" stroke="black" stroke-width="4" stroke-linecap="round" stroke-linejoin="round"/>
<path d="M29.9961 14.6311C33.1787 14.6311 36.2309 15.9619 38.4814 18.3308C40.7318 20.6996 41.9961 23.9125 41.9961 27.2626V41.9993H33.9961V27.2626C33.9961 26.1459 33.5747 25.075 32.8245 24.2853C32.0744 23.4957 31.057 23.0521 29.9961 23.0521C28.9352 23.0521 27.9178 23.4957 27.1677 24.2853C26.4175 25.075 25.9961 26.1459 25.9961 27.2626V41.9993H17.9961V27.2626C17.9961 23.9125 19.2604 20.6996 21.5108 18.3308C23.7612 15.9619 26.8135 14.6311 29.9961 14.6311V14.6311Z" stroke="black" stroke-width="4" stroke-linecap="round" stroke-linejoin="round"/>
<path d="M29.9961 14.6311C33.1787 14.6311 36.2309 15.9619 38.4814 18.3308C40.7318 20.6996 41.9961 23.9125 41.9961 27.2626V41.9993H33.9961V27.2626C33.9961 26.1459 33.5747 25.075 32.8245 24.2853C32.0744 23.4957 31.057 23.0521 29.9961 23.0521C28.9352 23.0521 27.9178 23.4957 27.1677 24.2853C26.4175 25.075 25.9961 26.1459 25.9961 27.2626V41.9993H17.9961V27.2626C17.9961 23.9125 19.2604 20.6996 21.5108 18.3308C23.7612 15.9619 26.8135 14.6311 29.9961 14.6311V14.6311Z" stroke="black" stroke-width="4" stroke-linecap="round" stroke-linejoin="round"/>
<path d="M29.9961 14.6311C33.1787 14.6311 36.2309 15.9619 38.4814 18.3308C40.7318 20.6996 41.9961 23.9125 41.9961 27.2626V41.9993H33.9961V27.2626C33.9961 26.1459 33.5747 25.075 32.8245 24.2853C32.0744 23.4957 31.057 23.0521 29.9961 23.0521C28.9352 23.0521 27.9178 23.4957 27.1677 24.2853C26.4175 25.075 25.9961 26.1459 25.9961 27.2626V41.9993H17.9961V27.2626C17.9961 23.9125 19.2604 20.6996 21.5108 18.3308C23.7612 15.9619 26.8135 14.6311 29.9961 14.6311V14.6311Z" stroke="black" stroke-width="4" stroke-linecap="round" stroke-linejoin="round"/>
<path d="M29.9961 14.6311C33.1787 14.6311 36.2309 15.9619 38.4814 18.3308C40.7318 20.6996 41.9961 23.9125 41.9961 27.2626V41.9993H33.9961V27.2626C33.9961 26.1459 33.5747 25.075 32.8245 24.2853C32.0744 23.4957 31.057 23.0521 29.9961 23.0521C28.9352 23.0521 27.9178 23.4957 27.1677 24.2853C26.4175 25.075 25.9961 26.1459 25.9961 27.2626V41.9993H17.9961V27.2626C17.9961 23.9125 19.2604 20.6996 21.5108 18.3308C23.7612 15.9619 26.8135 14.6311 29.9961 14.6311V14.6311Z" stroke="black" stroke-width="4" stroke-linecap="round" stroke-linejoin="round"/>
<path d="M29.9961 14.6311C33.1787 14.6311 36.2309 15.9619 38.4814 18.3308C40.7318 20.6996 41.9961 23.9125 41.9961 27.2626V41.9993H33.9961V27.2626C33.9961 26.1459 33.5747 25.075 32.8245 24.2853C32.0744 23.4957 31.057 23.0521 29.9961 23.0521C28.9352 23.0521 27.9178 23.4957 27.1677 24.2853C26.4175 25.075 25.9961 26.1459 25.9961 27.2626V41.9993H17.9961V27.2626C17.9961 23.9125 19.2604 20.6996 21.5108 18.3308C23.7612 15.9619 26.8135 14.6311 29.9961 14.6311V14.6311Z" stroke="black" stroke-width="4" stroke-linecap="round" stroke-linejoin="round"/>
<path d="M29.9961 14.6311C33.1787 14.6311 36.2309 15.9619 38.4814 18.3308C40.7318 20.6996 41.9961 23.9125 41.9961 27.2626V41.9993H33.9961V27.2626C33.9961 26.1459 33.5747 25.075 32.8245 24.2853C32.0744 23.4957 31.057 23.0521 29.9961 23.0521C28.9352 23.0521 27.9178 23.4957 27.1677 24.2853C26.4175 25.075 25.9961 26.1459 25.9961 27.2626V41.9993H17.9961V27.2626C17.9961 23.9125 19.2604 20.6996 21.5108 18.3308C23.7612 15.9619 26.8135 14.6311 29.9961 14.6311V14.6311Z" stroke="black" stroke-width="4" stroke-linecap="round" stroke-linejoin="round"/>
<path d="M29.9961 14.6311C33.1787 14.6311 36.2309 15.9619 38.4814 18.3308C40.7318 20.6996 41.9961 23.9125 41.9961 27.2626V41.9993H33.9961V27.2626C33.9961 26.1459 33.5747 25.075 32.8245 24.2853C32.0744 23.4957 31.057 23.0521 29.9961 23.0521C28.9352 23.0521 27.9178 23.4957 27.1677 24.2853C26.4175 25.075 25.9961 26.1459 25.9961 27.2626V41.9993H17.9961V27.2626C17.9961 23.9125 19.2604 20.6996 21.5108 18.3308C23.7612 15.9619 26.8135 14.6311 29.9961 14.6311V14.6311Z" stroke="black" stroke-width="4" stroke-linecap="round" stroke-linejoin="round"/>
<path d="M29.9961 14.6311C33.1787 14.6311 36.2309 15.9619 38.4814 18.3308C40.7318 20.6996 41.9961 23.9125 41.9961 27.2626V41.9993H33.9961V27.2626C33.9961 26.1459 33.5747 25.075 32.8245 24.2853C32.0744 23.4957 31.057 23.0521 29.9961 23.0521C28.9352 23.0521 27.9178 23.4957 27.1677 24.2853C26.4175 25.075 25.9961 26.1459 25.9961 27.2626V41.9993H17.9961V27.2626C17.9961 23.9125 19.2604 20.6996 21.5108 18.3308C23.7612 15.9619 26.8135 14.6311 29.9961 14.6311V14.6311Z" stroke="black" stroke-width="4" stroke-linecap="round" stroke-linejoin="round"/>
<path d="M29.9961 14.6311C33.1787 14.6311 36.2309 15.9619 38.4814 18.3308C40.7318 20.6996 41.9961 23.9125 41.9961 27.2626V41.9993H33.9961V27.2626C33.9961 26.1459 33.5747 25.075 32.8245 24.2853C32.0744 23.4957 31.057 23.0521 29.9961 23.0521C28.9352 23.0521 27.9178 23.4957 27.1677 24.2853C26.4175 25.075 25.9961 26.1459 25.9961 27.2626V41.9993H17.9961V27.2626C17.9961 23.9125 19.2604 20.6996 21.5108 18.3308C23.7612 15.9619 26.8135 14.6311 29.9961 14.6311V14.6311Z" stroke="black" stroke-width="4" stroke-linecap="round" stroke-linejoin="round"/>
<path d="M29.9961 14.6311C33.1787 14.6311 36.2309 15.9619 38.4814 18.3308C40.7318 20.6996 41.9961 23.9125 41.9961 27.2626V41.9993H33.9961V27.2626C33.9961 26.1459 33.5747 25.075 32.8245 24.2853C32.0744 23.4957 31.057 23.0521 29.9961 23.0521C28.9352 23.0521 27.9178 23.4957 27.1677 24.2853C26.4175 25.075 25.9961 26.1459 25.9961 27.2626V41.9993H17.9961V27.2626C17.9961 23.9125 19.2604 20.6996 21.5108 18.3308C23.7612 15.9619 26.8135 14.6311 29.9961 14.6311V14.6311Z" stroke="black" stroke-width="4" stroke-linecap="round" stroke-linejoin="round"/>
<path d="M29.9961 14.6311C33.1787 14.6311 36.2309 15.9619 38.4814 18.3308C40.7318 20.6996 41.9961 23.9125 41.9961 27.2626V41.9993H33.9961V27.2626C33.9961 26.1459 33.5747 25.075 32.8245 24.2853C32.0744 23.4957 31.057 23.0521 29.9961 23.0521C28.9352 23.0521 27.9178 23.4957 27.1677 24.2853C26.4175 25.075 25.9961 26.1459 25.9961 27.2626V41.9993H17.9961V27.2626C17.9961 23.9125 19.2604 20.6996 21.5108 18.3308C23.7612 15.9619 26.8135 14.6311 29.9961 14.6311V14.6311Z" stroke="black" stroke-width="4" stroke-linecap="round" stroke-linejoin="round"/>
<path d="M29.9961 14.6311C33.1787 14.6311 36.2309 15.9619 38.4814 18.3308C40.7318 20.6996 41.9961 23.9125 41.9961 27.2626V41.9993H33.9961V27.2626C33.9961 26.1459 33.5747 25.075 32.8245 24.2853C32.0744 23.4957 31.057 23.0521 29.9961 23.0521C28.9352 23.0521 27.9178 23.4957 27.1677 24.2853C26.4175 25.075 25.9961 26.1459 25.9961 27.2626V41.9993H17.9961V27.2626C17.9961 23.9125 19.2604 20.6996 21.5108 18.3308C23.7612 15.9619 26.8135 14.6311 29.9961 14.6311V14.6311Z" stroke="black" stroke-width="4" stroke-linecap="round" stroke-linejoin="round"/>
<path d="M29.9961 14.6311C33.1787 14.6311 36.2309 15.9619 38.4814 18.3308C40.7318 20.6996 41.9961 23.9125 41.9961 27.2626V41.9993H33.9961V27.2626C33.9961 26.1459 33.5747 25.075 32.8245 24.2853C32.0744 23.4957 31.057 23.0521 29.9961 23.0521C28.9352 23.0521 27.9178 23.4957 27.1677 24.2853C26.4175 25.075 25.9961 26.1459 25.9961 27.2626V41.9993H17.9961V27.2626C17.9961 23.9125 19.2604 20.6996 21.5108 18.3308C23.7612 15.9619 26.8135 14.6311 29.9961 14.6311V14.6311Z" stroke="black" stroke-width="4" stroke-linecap="round" stroke-linejoin="round"/>
<path d="M29.9961 14.6311C33.1787 14.6311 36.2309 15.9619 38.4814 18.3308C40.7318 20.6996 41.9961 23.9125 41.9961 27.2626V41.9993H33.9961V27.2626C33.9961 26.1459 33.5747 25.075 32.8245 24.2853C32.0744 23.4957 31.057 23.0521 29.9961 23.0521C28.9352 23.0521 27.9178 23.4957 27.1677 24.2853C26.4175 25.075 25.9961 26.1459 25.9961 27.2626V41.9993H17.9961V27.2626C17.9961 23.9125 19.2604 20.6996 21.5108 18.3308C23.7612 15.9619 26.8135 14.6311 29.9961 14.6311V14.6311Z" stroke="black" stroke-width="4" stroke-linecap="round" stroke-linejoin="round"/>
<path d="M29.9961 14.6311C33.1787 14.6311 36.2309 15.9619 38.4814 18.3308C40.7318 20.6996 41.9961 23.9125 41.9961 27.2626V41.9993H33.9961V27.2626C33.9961 26.1459 33.5747 25.075 32.8245 24.2853C32.0744 23.4957 31.057 23.0521 29.9961 23.0521C28.9352 23.0521 27.9178 23.4957 27.1677 24.2853C26.4175 25.075 25.9961 26.1459 25.9961 27.2626V41.9993H17.9961V27.2626C17.9961 23.9125 19.2604 20.6996 21.5108 18.3308C23.7612 15.9619 26.8135 14.6311 29.9961 14.6311V14.6311Z" stroke="black" stroke-width="4" stroke-linecap="round" stroke-linejoin="round"/>
<path d="M29.9961 14.6311C33.1787 14.6311 36.2309 15.9619 38.4814 18.3308C40.7318 20.6996 41.9961 23.9125 41.9961 27.2626V41.9993H33.9961V27.2626C33.9961 26.1459 33.5747 25.075 32.8245 24.2853C32.0744 23.4957 31.057 23.0521 29.9961 23.0521C28.9352 23.0521 27.9178 23.4957 27.1677 24.2853C26.4175 25.075 25.9961 26.1459 25.9961 27.2626V41.9993H17.9961V27.2626C17.9961 23.9125 19.2604 20.6996 21.5108 18.3308C23.7612 15.9619 26.8135 14.6311 29.9961 14.6311V14.6311Z" stroke="black" stroke-width="4" stroke-linecap="round" stroke-linejoin="round"/>
<path d="M29.9961 14.6311C33.1787 14.6311 36.2309 15.9619 38.4814 18.3308C40.7318 20.6996 41.9961 23.9125 41.9961 27.2626V41.9993H33.9961V27.2626C33.9961 26.1459 33.5747 25.075 32.8245 24.2853C32.0744 23.4957 31.057 23.0521 29.9961 23.0521C28.9352 23.0521 27.9178 23.4957 27.1677 24.2853C26.4175 25.075 25.9961 26.1459 25.9961 27.2626V41.9993H17.9961V27.2626C17.9961 23.9125 19.2604 20.6996 21.5108 18.3308C23.7612 15.9619 26.8135 14.6311 29.9961 14.6311V14.6311Z" stroke="black" stroke-width="4" stroke-linecap="round" stroke-linejoin="round"/>
<path d="M29.9961 14.6311C33.1787 14.6311 36.2309 15.9619 38.4814 18.3308C40.7318 20.6996 41.9961 23.9125 41.9961 27.2626V41.9993H33.9961V27.2626C33.9961 26.1459 33.5747 25.075 32.8245 24.2853C32.0744 23.4957 31.057 23.0521 29.9961 23.0521C28.9352 23.0521 27.9178 23.4957 27.1677 24.2853C26.4175 25.075 25.9961 26.1459 25.9961 27.2626V41.9993H17.9961V27.2626C17.9961 23.9125 19.2604 20.6996 21.5108 18.3308C23.7612 15.9619 26.8135 14.6311 29.9961 14.6311V14.6311Z" stroke="black" stroke-width="4" stroke-linecap="round" stroke-linejoin="round"/>
<path d="M29.9961 14.6311C33.1787 14.6311 36.2309 15.9619 38.4814 18.3308C40.7318 20.6996 41.9961 23.9125 41.9961 27.2626V41.9993H33.9961V27.2626C33.9961 26.1459 33.5747 25.075 32.8245 24.2853C32.0744 23.4957 31.057 23.0521 29.9961 23.0521C28.9352 23.0521 27.9178 23.4957 27.1677 24.2853C26.4175 25.075 25.9961 26.1459 25.9961 27.2626V41.9993H17.9961V27.2626C17.9961 23.9125 19.2604 20.6996 21.5108 18.3308C23.7612 15.9619 26.8135 14.6311 29.9961 14.6311V14.6311Z" stroke="black" stroke-width="4" stroke-linecap="round" stroke-linejoin="round"/>
<path d="M29.9961 14.6311C33.1787 14.6311 36.2309 15.9619 38.4814 18.3308C40.7318 20.6996 41.9961 23.9125 41.9961 27.2626V41.9993H33.9961V27.2626C33.9961 26.1459 33.5747 25.075 32.8245 24.2853C32.0744 23.4957 31.057 23.0521 29.9961 23.0521C28.9352 23.0521 27.9178 23.4957 27.1677 24.2853C26.4175 25.075 25.9961 26.1459 25.9961 27.2626V41.9993H17.9961V27.2626C17.9961 23.9125 19.2604 20.6996 21.5108 18.3308C23.7612 15.9619 26.8135 14.6311 29.9961 14.6311V14.6311Z" stroke="black" stroke-width="4" stroke-linecap="round" stroke-linejoin="round"/>
<path d="M29.9961 14.6311C33.1787 14.6311 36.2309 15.9619 38.4814 18.3308C40.7318 20.6996 41.9961 23.9125 41.9961 27.2626V41.9993H33.9961V27.2626C33.9961 26.1459 33.5747 25.075 32.8245 24.2853C32.0744 23.4957 31.057 23.0521 29.9961 23.0521C28.9352 23.0521 27.9178 23.4957 27.1677 24.2853C26.4175 25.075 25.9961 26.1459 25.9961 27.2626V41.9993H17.9961V27.2626C17.9961 23.9125 19.2604 20.6996 21.5108 18.3308C23.7612 15.9619 26.8135 14.6311 29.9961 14.6311V14.6311Z" stroke="black" stroke-width="4" stroke-linecap="round" stroke-linejoin="round"/>
<path d="M29.9961 14.6311C33.1787 14.6311 36.2309 15.9619 38.4814 18.3308C40.7318 20.6996 41.9961 23.9125 41.9961 27.2626V41.9993H33.9961V27.2626C33.9961 26.1459 33.5747 25.075 32.8245 24.2853C32.0744 23.4957 31.057 23.0521 29.9961 23.0521C28.9352 23.0521 27.9178 23.4957 27.1677 24.2853C26.4175 25.075 25.9961 26.1459 25.9961 27.2626V41.9993H17.9961V27.2626C17.9961 23.9125 19.2604 20.6996 21.5108 18.3308C23.7612 15.9619 26.8135 14.6311 29.9961 14.6311V14.6311Z" stroke="black" stroke-width="4" stroke-linecap="round" stroke-linejoin="round"/>
<path d="M29.9961 14.6311C33.1787 14.6311 36.2309 15.9619 38.4814 18.3308C40.7318 20.6996 41.9961 23.9125 41.9961 27.2626V41.9993H33.9961V27.2626C33.9961 26.1459 33.5747 25.075 32.8245 24.2853C32.0744 23.4957 31.057 23.0521 29.9961 23.0521C28.9352 23.0521 27.9178 23.4957 27.1677 24.2853C26.4175 25.075 25.9961 26.1459 25.9961 27.2626V41.9993H17.9961V27.2626C17.9961 23.9125 19.2604 20.6996 21.5108 18.3308C23.7612 15.9619 26.8135 14.6311 29.9961 14.6311V14.6311Z" stroke="black" stroke-width="4" stroke-linecap="round" stroke-linejoin="round"/>
<path d="M29.9961 14.6311C33.1787 14.6311 36.2309 15.9619 38.4814 18.3308C40.7318 20.6996 41.9961 23.9125 41.9961 27.2626V41.9993H33.9961V27.2626C33.9961 26.1459 33.5747 25.075 32.8245 24.2853C32.0744 23.4957 31.057 23.0521 29.9961 23.0521C28.9352 23.0521 27.9178 23.4957 27.1677 24.2853C26.4175 25.075 25.9961 26.1459 25.9961 27.2626V41.9993H17.9961V27.2626C17.9961 23.9125 19.2604 20.6996 21.5108 18.3308C23.7612 15.9619 26.8135 14.6311 29.9961 14.6311V14.6311Z" stroke="black" stroke-width="4" stroke-linecap="round" stroke-linejoin="round"/>
<path d="M29.9961 14.6311C33.1787 14.6311 36.2309 15.9619 38.4814 18.3308C40.7318 20.6996 41.9961 23.9125 41.9961 27.2626V41.9993H33.9961V27.2626C33.9961 26.1459 33.5747 25.075 32.8245 24.2853C32.0744 23.4957 31.057 23.0521 29.9961 23.0521C28.9352 23.0521 27.9178 23.4957 27.1677 24.2853C26.4175 25.075 25.9961 26.1459 25.9961 27.2626V41.9993H17.9961V27.2626C17.9961 23.9125 19.2604 20.6996 21.5108 18.3308C23.7612 15.9619 26.8135 14.6311 29.9961 14.6311V14.6311Z" stroke="black" stroke-width="4" stroke-linecap="round" stroke-linejoin="round"/>
<path d="M29.9961 14.6311C33.1787 14.6311 36.2309 15.9619 38.4814 18.3308C40.7318 20.6996 41.9961 23.9125 41.9961 27.2626V41.9993H33.9961V27.2626C33.9961 26.1459 33.5747 25.075 32.8245 24.2853C32.0744 23.4957 31.057 23.0521 29.9961 23.0521C28.9352 23.0521 27.9178 23.4957 27.1677 24.2853C26.4175 25.075 25.9961 26.1459 25.9961 27.2626V41.9993H17.9961V27.2626C17.9961 23.9125 19.2604 20.6996 21.5108 18.3308C23.7612 15.9619 26.8135 14.6311 29.9961 14.6311V14.6311Z" stroke="black" stroke-width="4" stroke-linecap="round" stroke-linejoin="round"/>
<path d="M29.9961 14.6311C33.1787 14.6311 36.2309 15.9619 38.4814 18.3308C40.7318 20.6996 41.9961 23.9125 41.9961 27.2626V41.9993H33.9961V27.2626C33.9961 26.1459 33.5747 25.075 32.8245 24.2853C32.0744 23.4957 31.057 23.0521 29.9961 23.0521C28.9352 23.0521 27.9178 23.4957 27.1677 24.2853C26.4175 25.075 25.9961 26.1459 25.9961 27.2626V41.9993H17.9961V27.2626C17.9961 23.9125 19.2604 20.6996 21.5108 18.3308C23.7612 15.9619 26.8135 14.6311 29.9961 14.6311V14.6311Z" stroke="black" stroke-width="4" stroke-linecap="round" stroke-linejoin="round"/>
<path d="M29.9961 14.6311C33.1787 14.6311 36.2309 15.9619 38.4814 18.3308C40.7318 20.6996 41.9961 23.9125 41.9961 27.2626V41.9993H33.9961V27.2626C33.9961 26.1459 33.5747 25.075 32.8245 24.2853C32.0744 23.4957 31.057 23.0521 29.9961 23.0521C28.9352 23.0521 27.9178 23.4957 27.1677 24.2853C26.4175 25.075 25.9961 26.1459 25.9961 27.2626V41.9993H17.9961V27.2626C17.9961 23.9125 19.2604 20.6996 21.5108 18.3308C23.7612 15.9619 26.8135 14.6311 29.9961 14.6311V14.6311Z" stroke="black" stroke-width="4" stroke-linecap="round" stroke-linejoin="round"/>
<path d="M29.9961 14.6311C33.1787 14.6311 36.2309 15.9619 38.4814 18.3308C40.7318 20.6996 41.9961 23.9125 41.9961 27.2626V41.9993H33.9961V27.2626C33.9961 26.1459 33.5747 25.075 32.8245 24.2853C32.0744 23.4957 31.057 23.0521 29.9961 23.0521C28.9352 23.0521 27.9178 23.4957 27.1677 24.2853C26.4175 25.075 25.9961 26.1459 25.9961 27.2626V41.9993H17.9961V27.2626C17.9961 23.9125 19.2604 20.6996 21.5108 18.3308C23.7612 15.9619 26.8135 14.6311 29.9961 14.6311V14.6311Z" stroke="black" stroke-width="4" stroke-linecap="round" stroke-linejoin="round"/>
<path d="M29.9961 14.6311C33.1787 14.6311 36.2309 15.9619 38.4814 18.3308C40.7318 20.6996 41.9961 23.9125 41.9961 27.2626V41.9993H33.9961V27.2626C33.9961 26.1459 33.5747 25.075 32.8245 24.2853C32.0744 23.4957 31.057 23.0521 29.9961 23.0521C28.9352 23.0521 27.9178 23.4957 27.1677 24.2853C26.4175 25.075 25.9961 26.1459 25.9961 27.2626V41.9993H17.9961V27.2626C17.9961 23.9125 19.2604 20.6996 21.5108 18.3308C23.7612 15.9619 26.8135 14.6311 29.9961 14.6311V14.6311Z" stroke="black" stroke-width="4" stroke-linecap="round" stroke-linejoin="round"/>
<path d="M29.9961 14.6311C33.1787 14.6311 36.2309 15.9619 38.4814 18.3308C40.7318 20.6996 41.9961 23.9125 41.9961 27.2626V41.9993H33.9961V27.2626C33.9961 26.1459 33.5747 25.075 32.8245 24.2853C32.0744 23.4957 31.057 23.0521 29.9961 23.0521C28.9352 23.0521 27.9178 23.4957 27.1677 24.2853C26.4175 25.075 25.9961 26.1459 25.9961 27.2626V41.9993H17.9961V27.2626C17.9961 23.9125 19.2604 20.6996 21.5108 18.3308C23.7612 15.9619 26.8135 14.6311 29.9961 14.6311V14.6311Z" stroke="black" stroke-width="4" stroke-linecap="round" stroke-linejoin="round"/>
<path d="M29.9961 14.6311C33.1787 14.6311 36.2309 15.9619 38.4814 18.3308C40.7318 20.6996 41.9961 23.9125 41.9961 27.2626V41.9993H33.9961V27.2626C33.9961 26.1459 33.5747 25.075 32.8245 24.2853C32.0744 23.4957 31.057 23.0521 29.9961 23.0521C28.9352 23.0521 27.9178 23.4957 27.1677 24.2853C26.4175 25.075 25.9961 26.1459 25.9961 27.2626V41.9993H17.9961V27.2626C17.9961 23.9125 19.2604 20.6996 21.5108 18.3308C23.7612 15.9619 26.8135 14.6311 29.9961 14.6311V14.6311Z" stroke="black" stroke-width="4" stroke-linecap="round" stroke-linejoin="round"/>
<path d="M29.9961 14.6311C33.1787 14.6311 36.2309 15.9619 38.4814 18.3308C40.7318 20.6996 41.9961 23.9125 41.9961 27.2626V41.9993H33.9961V27.2626C33.9961 26.1459 33.5747 25.075 32.8245 24.2853C32.0744 23.4957 31.057 23.0521 29.9961 23.0521C28.9352 23.0521 27.9178 23.4957 27.1677 24.2853C26.4175 25.075 25.9961 26.1459 25.9961 27.2626V41.9993H17.9961V27.2626C17.9961 23.9125 19.2604 20.6996 21.5108 18.3308C23.7612 15.9619 26.8135 14.6311 29.9961 14.6311V14.6311Z" stroke="black" stroke-width="4" stroke-linecap="round" stroke-linejoin="round"/>
<path d="M29.9961 14.6311C33.1787 14.6311 36.2309 15.9619 38.4814 18.3308C40.7318 20.6996 41.9961 23.9125 41.9961 27.2626V41.9993H33.9961V27.2626C33.9961 26.1459 33.5747 25.075 32.8245 24.2853C32.0744 23.4957 31.057 23.0521 29.9961 23.0521C28.9352 23.0521 27.9178 23.4957 27.1677 24.2853C26.4175 25.075 25.9961 26.1459 25.9961 27.2626V41.9993H17.9961V27.2626C17.9961 23.9125 19.2604 20.6996 21.5108 18.3308C23.7612 15.9619 26.8135 14.6311 29.9961 14.6311V14.6311Z" stroke="black" stroke-width="4" stroke-linecap="round" stroke-linejoin="round"/>
<path d="M29.9961 14.6311C33.1787 14.6311 36.2309 15.9619 38.4814 18.3308C40.7318 20.6996 41.9961 23.9125 41.9961 27.2626V41.9993H33.9961V27.2626C33.9961 26.1459 33.5747 25.075 32.8245 24.2853C32.0744 23.4957 31.057 23.0521 29.9961 23.0521C28.9352 23.0521 27.9178 23.4957 27.1677 24.2853C26.4175 25.075 25.9961 26.1459 25.9961 27.2626V41.9993H17.9961V27.2626C17.9961 23.9125 19.2604 20.6996 21.5108 18.3308C23.7612 15.9619 26.8135 14.6311 29.9961 14.6311V14.6311Z" stroke="black" stroke-width="4" stroke-linecap="round" stroke-linejoin="round"/>
<path d="M29.9961 14.6311C33.1787 14.6311 36.2309 15.9619 38.4814 18.3308C40.7318 20.6996 41.9961 23.9125 41.9961 27.2626V41.9993H33.9961V27.2626C33.9961 26.1459 33.5747 25.075 32.8245 24.2853C32.0744 23.4957 31.057 23.0521 29.9961 23.0521C28.9352 23.0521 27.9178 23.4957 27.1677 24.2853C26.4175 25.075 25.9961 26.1459 25.9961 27.2626V41.9993H17.9961V27.2626C17.9961 23.9125 19.2604 20.6996 21.5108 18.3308C23.7612 15.9619 26.8135 14.6311 29.9961 14.6311V14.6311Z" stroke="black" stroke-width="4" stroke-linecap="round" stroke-linejoin="round"/>
<path d="M29.9961 14.6311C33.1787 14.6311 36.2309 15.9619 38.4814 18.3308C40.7318 20.6996 41.9961 23.9125 41.9961 27.2626V41.9993H33.9961V27.2626C33.9961 26.1459 33.5747 25.075 32.8245 24.2853C32.0744 23.4957 31.057 23.0521 29.9961 23.0521C28.9352 23.0521 27.9178 23.4957 27.1677 24.2853C26.4175 25.075 25.9961 26.1459 25.9961 27.2626V41.9993H17.9961V27.2626C17.9961 23.9125 19.2604 20.6996 21.5108 18.3308C23.7612 15.9619 26.8135 14.6311 29.9961 14.6311V14.6311Z" stroke="black" stroke-width="4" stroke-linecap="round" stroke-linejoin="round"/>
<path d="M29.9961 14.6311C33.1787 14.6311 36.2309 15.9619 38.4814 18.3308C40.7318 20.6996 41.9961 23.9125 41.9961 27.2626V41.9993H33.9961V27.2626C33.9961 26.1459 33.5747 25.075 32.8245 24.2853C32.0744 23.4957 31.057 23.0521 29.9961 23.0521C28.9352 23.0521 27.9178 23.4957 27.1677 24.2853C26.4175 25.075 25.9961 26.1459 25.9961 27.2626V41.9993H17.9961V27.2626C17.9961 23.9125 19.2604 20.6996 21.5108 18.3308C23.7612 15.9619 26.8135 14.6311 29.9961 14.6311V14.6311Z" stroke="black" stroke-width="4" stroke-linecap="round" stroke-linejoin="round"/>
<path d="M29.9961 14.6311C33.1787 14.6311 36.2309 15.9619 38.4814 18.3308C40.7318 20.6996 41.9961 23.9125 41.9961 27.2626V41.9993H33.9961V27.2626C33.9961 26.1459 33.5747 25.075 32.8245 24.2853C32.0744 23.4957 31.057 23.0521 29.9961 23.0521C28.9352 23.0521 27.9178 23.4957 27.1677 24.2853C26.4175 25.075 25.9961 26.1459 25.9961 27.2626V41.9993H17.9961V27.2626C17.9961 23.9125 19.2604 20.6996 21.5108 18.3308C23.7612 15.9619 26.8135 14.6311 29.9961 14.6311V14.6311Z" stroke="black" stroke-width="4" stroke-linecap="round" stroke-linejoin="round"/>
<path d="M29.9961 14.6311C33.1787 14.6311 36.2309 15.9619 38.4814 18.3308C40.7318 20.6996 41.9961 23.9125 41.9961 27.2626V41.9993H33.9961V27.2626C33.9961 26.1459 33.5747 25.075 32.8245 24.2853C32.0744 23.4957 31.057 23.0521 29.9961 23.0521C28.9352 23.0521 27.9178 23.4957 27.1677 24.2853C26.4175 25.075 25.9961 26.1459 25.9961 27.2626V41.9993H17.9961V27.2626C17.9961 23.9125 19.2604 20.6996 21.5108 18.3308C23.7612 15.9619 26.8135 14.6311 29.9961 14.6311V14.6311Z" stroke="black" stroke-width="4" stroke-linecap="round" stroke-linejoin="round"/>
<path d="M29.9961 14.6311C33.1787 14.6311 36.2309 15.9619 38.4814 18.3308C40.7318 20.6996 41.9961 23.9125 41.9961 27.2626V41.9993H33.9961V27.2626C33.9961 26.1459 33.5747 25.075 32.8245 24.2853C32.0744 23.4957 31.057 23.0521 29.9961 23.0521C28.9352 23.0521 27.9178 23.4957 27.1677 24.2853C26.4175 25.075 25.9961 26.1459 25.9961 27.2626V41.9993H17.9961V27.2626C17.9961 23.9125 19.2604 20.6996 21.5108 18.3308C23.7612 15.9619 26.8135 14.6311 29.9961 14.6311V14.6311Z" stroke="black" stroke-width="4" stroke-linecap="round" stroke-linejoin="round"/>
<path d="M29.9961 14.6311C33.1787 14.6311 36.2309 15.9619 38.4814 18.3308C40.7318 20.6996 41.9961 23.9125 41.9961 27.2626V41.9993H33.9961V27.2626C33.9961 26.1459 33.5747 25.075 32.8245 24.2853C32.0744 23.4957 31.057 23.0521 29.9961 23.0521C28.9352 23.0521 27.9178 23.4957 27.1677 24.2853C26.4175 25.075 25.9961 26.1459 25.9961 27.2626V41.9993H17.9961V27.2626C17.9961 23.9125 19.2604 20.6996 21.5108 18.3308C23.7612 15.9619 26.8135 14.6311 29.9961 14.6311V14.6311Z" stroke="black" stroke-width="4" stroke-linecap="round" stroke-linejoin="round"/>
<path d="M29.9961 14.6311C33.1787 14.6311 36.2309 15.9619 38.4814 18.3308C40.7318 20.6996 41.9961 23.9125 41.9961 27.2626V41.9993H33.9961V27.2626C33.9961 26.1459 33.5747 25.075 32.8245 24.2853C32.0744 23.4957 31.057 23.0521 29.9961 23.0521C28.9352 23.0521 27.9178 23.4957 27.1677 24.2853C26.4175 25.075 25.9961 26.1459 25.9961 27.2626V41.9993H17.9961V27.2626C17.9961 23.9125 19.2604 20.6996 21.5108 18.3308C23.7612 15.9619 26.8135 14.6311 29.9961 14.6311V14.6311Z" stroke="black" stroke-width="4" stroke-linecap="round" stroke-linejoin="round"/>
<path d="M29.9961 14.6311C33.1787 14.6311 36.2309 15.9619 38.4814 18.3308C40.7318 20.6996 41.9961 23.9125 41.9961 27.2626V41.9993H33.9961V27.2626C33.9961 26.1459 33.5747 25.075 32.8245 24.2853C32.0744 23.4957 31.057 23.0521 29.9961 23.0521C28.9352 23.0521 27.9178 23.4957 27.1677 24.2853C26.4175 25.075 25.9961 26.1459 25.9961 27.2626V41.9993H17.9961V27.2626C17.9961 23.9125 19.2604 20.6996 21.5108 18.3308C23.7612 15.9619 26.8135 14.6311 29.9961 14.6311V14.6311Z" stroke="black" stroke-width="4" stroke-linecap="round" stroke-linejoin="round"/>
<path d="M29.9961 14.6311C33.1787 14.6311 36.2309 15.9619 38.4814 18.3308C40.7318 20.6996 41.9961 23.9125 41.9961 27.2626V41.9993H33.9961V27.2626C33.9961 26.1459 33.5747 25.075 32.8245 24.2853C32.0744 23.4957 31.057 23.0521 29.9961 23.0521C28.9352 23.0521 27.9178 23.4957 27.1677 24.2853C26.4175 25.075 25.9961 26.1459 25.9961 27.2626V41.9993H17.9961V27.2626C17.9961 23.9125 19.2604 20.6996 21.5108 18.3308C23.7612 15.9619 26.8135 14.6311 29.9961 14.6311V14.6311Z" stroke="black" stroke-width="4" stroke-linecap="round" stroke-linejoin="round"/>
<path d="M29.9961 14.6311C33.1787 14.6311 36.2309 15.9619 38.4814 18.3308C40.7318 20.6996 41.9961 23.9125 41.9961 27.2626V41.9993H33.9961V27.2626C33.9961 26.1459 33.5747 25.075 32.8245 24.2853C32.0744 23.4957 31.057 23.0521 29.9961 23.0521C28.9352 23.0521 27.9178 23.4957 27.1677 24.2853C26.4175 25.075 25.9961 26.1459 25.9961 27.2626V41.9993H17.9961V27.2626C17.9961 23.9125 19.2604 20.6996 21.5108 18.3308C23.7612 15.9619 26.8135 14.6311 29.9961 14.6311V14.6311Z" stroke="black" stroke-width="4" stroke-linecap="round" stroke-linejoin="round"/>
<path d="M29.9961 14.6311C33.1787 14.6311 36.2309 15.9619 38.4814 18.3308C40.7318 20.6996 41.9961 23.9125 41.9961 27.2626V41.9993H33.9961V27.2626C33.9961 26.1459 33.5747 25.075 32.8245 24.2853C32.0744 23.4957 31.057 23.0521 29.9961 23.0521C28.9352 23.0521 27.9178 23.4957 27.1677 24.2853C26.4175 25.075 25.9961 26.1459 25.9961 27.2626V41.9993H17.9961V27.2626C17.9961 23.9125 19.2604 20.6996 21.5108 18.3308C23.7612 15.9619 26.8135 14.6311 29.9961 14.6311V14.6311Z" stroke="black" stroke-width="4" stroke-linecap="round" stroke-linejoin="round"/>
<path d="M29.9961 14.6311C33.1787 14.6311 36.2309 15.9619 38.4814 18.3308C40.7318 20.6996 41.9961 23.9125 41.9961 27.2626V41.9993H33.9961V27.2626C33.9961 26.1459 33.5747 25.075 32.8245 24.2853C32.0744 23.4957 31.057 23.0521 29.9961 23.0521C28.9352 23.0521 27.9178 23.4957 27.1677 24.2853C26.4175 25.075 25.9961 26.1459 25.9961 27.2626V41.9993H17.9961V27.2626C17.9961 23.9125 19.2604 20.6996 21.5108 18.3308C23.7612 15.9619 26.8135 14.6311 29.9961 14.6311V14.6311Z" stroke="black" stroke-width="4" stroke-linecap="round" stroke-linejoin="round"/>
<path d="M29.9961 14.6311C33.1787 14.6311 36.2309 15.9619 38.4814 18.3308C40.7318 20.6996 41.9961 23.9125 41.9961 27.2626V41.9993H33.9961V27.2626C33.9961 26.1459 33.5747 25.075 32.8245 24.2853C32.0744 23.4957 31.057 23.0521 29.9961 23.0521C28.9352 23.0521 27.9178 23.4957 27.1677 24.2853C26.4175 25.075 25.9961 26.1459 25.9961 27.2626V41.9993H17.9961V27.2626C17.9961 23.9125 19.2604 20.6996 21.5108 18.3308C23.7612 15.9619 26.8135 14.6311 29.9961 14.6311V14.6311Z" stroke="black" stroke-width="4" stroke-linecap="round" stroke-linejoin="round"/>
<path d="M29.9961 14.6311C33.1787 14.6311 36.2309 15.9619 38.4814 18.3308C40.7318 20.6996 41.9961 23.9125 41.9961 27.2626V41.9993H33.9961V27.2626C33.9961 26.1459 33.5747 25.075 32.8245 24.2853C32.0744 23.4957 31.057 23.0521 29.9961 23.0521C28.9352 23.0521 27.9178 23.4957 27.1677 24.2853C26.4175 25.075 25.9961 26.1459 25.9961 27.2626V41.9993H17.9961V27.2626C17.9961 23.9125 19.2604 20.6996 21.5108 18.3308C23.7612 15.9619 26.8135 14.6311 29.9961 14.6311V14.6311Z" stroke="black" stroke-width="4" stroke-linecap="round" stroke-linejoin="round"/>
<path d="M29.9961 14.6311C33.1787 14.6311 36.2309 15.9619 38.4814 18.3308C40.7318 20.6996 41.9961 23.9125 41.9961 27.2626V41.9993H33.9961V27.2626C33.9961 26.1459 33.5747 25.075 32.8245 24.2853C32.0744 23.4957 31.057 23.0521 29.9961 23.0521C28.9352 23.0521 27.9178 23.4957 27.1677 24.2853C26.4175 25.075 25.9961 26.1459 25.9961 27.2626V41.9993H17.9961V27.2626C17.9961 23.9125 19.2604 20.6996 21.5108 18.3308C23.7612 15.9619 26.8135 14.6311 29.9961 14.6311V14.6311Z" stroke="black" stroke-width="4" stroke-linecap="round" stroke-linejoin="round"/>
<path d="M29.9961 14.6311C33.1787 14.6311 36.2309 15.9619 38.4814 18.3308C40.7318 20.6996 41.9961 23.9125 41.9961 27.2626V41.9993H33.9961V27.2626C33.9961 26.1459 33.5747 25.075 32.8245 24.2853C32.0744 23.4957 31.057 23.0521 29.9961 23.0521C28.9352 23.0521 27.9178 23.4957 27.1677 24.2853C26.4175 25.075 25.9961 26.1459 25.9961 27.2626V41.9993H17.9961V27.2626C17.9961 23.9125 19.2604 20.6996 21.5108 18.3308C23.7612 15.9619 26.8135 14.6311 29.9961 14.6311V14.6311Z" stroke="black" stroke-width="4" stroke-linecap="round" stroke-linejoin="round"/>
<path d="M29.9961 14.6311C33.1787 14.6311 36.2309 15.9619 38.4814 18.3308C40.7318 20.6996 41.9961 23.9125 41.9961 27.2626V41.9993H33.9961V27.2626C33.9961 26.1459 33.5747 25.075 32.8245 24.2853C32.0744 23.4957 31.057 23.0521 29.9961 23.0521C28.9352 23.0521 27.9178 23.4957 27.1677 24.2853C26.4175 25.075 25.9961 26.1459 25.9961 27.2626V41.9993H17.9961V27.2626C17.9961 23.9125 19.2604 20.6996 21.5108 18.3308C23.7612 15.9619 26.8135 14.6311 29.9961 14.6311V14.6311Z" stroke="black" stroke-width="4" stroke-linecap="round" stroke-linejoin="round"/>
<path d="M29.9961 14.6311C33.1787 14.6311 36.2309 15.9619 38.4814 18.3308C40.7318 20.6996 41.9961 23.9125 41.9961 27.2626V41.9993H33.9961V27.2626C33.9961 26.1459 33.5747 25.075 32.8245 24.2853C32.0744 23.4957 31.057 23.0521 29.9961 23.0521C28.9352 23.0521 27.9178 23.4957 27.1677 24.2853C26.4175 25.075 25.9961 26.1459 25.9961 27.2626V41.9993H17.9961V27.2626C17.9961 23.9125 19.2604 20.6996 21.5108 18.3308C23.7612 15.9619 26.8135 14.6311 29.9961 14.6311V14.6311Z" stroke="black" stroke-width="4" stroke-linecap="round" stroke-linejoin="round"/>
<path d="M29.9961 14.6311C33.1787 14.6311 36.2309 15.9619 38.4814 18.3308C40.7318 20.6996 41.9961 23.9125 41.9961 27.2626V41.9993H33.9961V27.2626C33.9961 26.1459 33.5747 25.075 32.8245 24.2853C32.0744 23.4957 31.057 23.0521 29.9961 23.0521C28.9352 23.0521 27.9178 23.4957 27.1677 24.2853C26.4175 25.075 25.9961 26.1459 25.9961 27.2626V41.9993H17.9961V27.2626C17.9961 23.9125 19.2604 20.6996 21.5108 18.3308C23.7612 15.9619 26.8135 14.6311 29.9961 14.6311V14.6311Z" stroke="black" stroke-width="4" stroke-linecap="round" stroke-linejoin="round"/>
<path d="M29.9961 14.6311C33.1787 14.6311 36.2309 15.9619 38.4814 18.3308C40.7318 20.6996 41.9961 23.9125 41.9961 27.2626V41.9993H33.9961V27.2626C33.9961 26.1459 33.5747 25.075 32.8245 24.2853C32.0744 23.4957 31.057 23.0521 29.9961 23.0521C28.9352 23.0521 27.9178 23.4957 27.1677 24.2853C26.4175 25.075 25.9961 26.1459 25.9961 27.2626V41.9993H17.9961V27.2626C17.9961 23.9125 19.2604 20.6996 21.5108 18.3308C23.7612 15.9619 26.8135 14.6311 29.9961 14.6311V14.6311Z" stroke="black" stroke-width="4" stroke-linecap="round" stroke-linejoin="round"/>
<path d="M29.9961 14.6311C33.1787 14.6311 36.2309 15.9619 38.4814 18.3308C40.7318 20.6996 41.9961 23.9125 41.9961 27.2626V41.9993H33.9961V27.2626C33.9961 26.1459 33.5747 25.075 32.8245 24.2853C32.0744 23.4957 31.057 23.0521 29.9961 23.0521C28.9352 23.0521 27.9178 23.4957 27.1677 24.2853C26.4175 25.075 25.9961 26.1459 25.9961 27.2626V41.9993H17.9961V27.2626C17.9961 23.9125 19.2604 20.6996 21.5108 18.3308C23.7612 15.9619 26.8135 14.6311 29.9961 14.6311V14.6311Z" stroke="black" stroke-width="4" stroke-linecap="round" stroke-linejoin="round"/>
<path d="M29.9961 14.6311C33.1787 14.6311 36.2309 15.9619 38.4814 18.3308C40.7318 20.6996 41.9961 23.9125 41.9961 27.2626V41.9993H33.9961V27.2626C33.9961 26.1459 33.5747 25.075 32.8245 24.2853C32.0744 23.4957 31.057 23.0521 29.9961 23.0521C28.9352 23.0521 27.9178 23.4957 27.1677 24.2853C26.4175 25.075 25.9961 26.1459 25.9961 27.2626V41.9993H17.9961V27.2626C17.9961 23.9125 19.2604 20.6996 21.5108 18.3308C23.7612 15.9619 26.8135 14.6311 29.9961 14.6311V14.6311Z" stroke="black" stroke-width="4" stroke-linecap="round" stroke-linejoin="round"/>
<path d="M29.9961 14.6311C33.1787 14.6311 36.2309 15.9619 38.4814 18.3308C40.7318 20.6996 41.9961 23.9125 41.9961 27.2626V41.9993H33.9961V27.2626C33.9961 26.1459 33.5747 25.075 32.8245 24.2853C32.0744 23.4957 31.057 23.0521 29.9961 23.0521C28.9352 23.0521 27.9178 23.4957 27.1677 24.2853C26.4175 25.075 25.9961 26.1459 25.9961 27.2626V41.9993H17.9961V27.2626C17.9961 23.9125 19.2604 20.6996 21.5108 18.3308C23.7612 15.9619 26.8135 14.6311 29.9961 14.6311V14.6311Z" stroke="black" stroke-width="4" stroke-linecap="round" stroke-linejoin="round"/>
<path d="M29.9961 14.6311C33.1787 14.6311 36.2309 15.9619 38.4814 18.3308C40.7318 20.6996 41.9961 23.9125 41.9961 27.2626V41.9993H33.9961V27.2626C33.9961 26.1459 33.5747 25.075 32.8245 24.2853C32.0744 23.4957 31.057 23.0521 29.9961 23.0521C28.9352 23.0521 27.9178 23.4957 27.1677 24.2853C26.4175 25.075 25.9961 26.1459 25.9961 27.2626V41.9993H17.9961V27.2626C17.9961 23.9125 19.2604 20.6996 21.5108 18.3308C23.7612 15.9619 26.8135 14.6311 29.9961 14.6311V14.6311Z" stroke="black" stroke-width="4" stroke-linecap="round" stroke-linejoin="round"/>
<path d="M29.9961 14.6311C33.1787 14.6311 36.2309 15.9619 38.4814 18.3308C40.7318 20.6996 41.9961 23.9125 41.9961 27.2626V41.9993H33.9961V27.2626C33.9961 26.1459 33.5747 25.075 32.8245 24.2853C32.0744 23.4957 31.057 23.0521 29.9961 23.0521C28.9352 23.0521 27.9178 23.4957 27.1677 24.2853C26.4175 25.075 25.9961 26.1459 25.9961 27.2626V41.9993H17.9961V27.2626C17.9961 23.9125 19.2604 20.6996 21.5108 18.3308C23.7612 15.9619 26.8135 14.6311 29.9961 14.6311V14.6311Z" stroke="black" stroke-width="4" stroke-linecap="round" stroke-linejoin="round"/>
<path d="M29.9961 14.6311C33.1787 14.6311 36.2309 15.9619 38.4814 18.3308C40.7318 20.6996 41.9961 23.9125 41.9961 27.2626V41.9993H33.9961V27.2626C33.9961 26.1459 33.5747 25.075 32.8245 24.2853C32.0744 23.4957 31.057 23.0521 29.9961 23.0521C28.9352 23.0521 27.9178 23.4957 27.1677 24.2853C26.4175 25.075 25.9961 26.1459 25.9961 27.2626V41.9993H17.9961V27.2626C17.9961 23.9125 19.2604 20.6996 21.5108 18.3308C23.7612 15.9619 26.8135 14.6311 29.9961 14.6311V14.6311Z" stroke="black" stroke-width="4" stroke-linecap="round" stroke-linejoin="round"/>
<path d="M29.9961 14.6311C33.1787 14.6311 36.2309 15.9619 38.4814 18.3308C40.7318 20.6996 41.9961 23.9125 41.9961 27.2626V41.9993H33.9961V27.2626C33.9961 26.1459 33.5747 25.075 32.8245 24.2853C32.0744 23.4957 31.057 23.0521 29.9961 23.0521C28.9352 23.0521 27.9178 23.4957 27.1677 24.2853C26.4175 25.075 25.9961 26.1459 25.9961 27.2626V41.9993H17.9961V27.2626C17.9961 23.9125 19.2604 20.6996 21.5108 18.3308C23.7612 15.9619 26.8135 14.6311 29.9961 14.6311V14.6311Z" stroke="black" stroke-width="4" stroke-linecap="round" stroke-linejoin="round"/>
<path d="M29.9961 14.6311C33.1787 14.6311 36.2309 15.9619 38.4814 18.3308C40.7318 20.6996 41.9961 23.9125 41.9961 27.2626V41.9993H33.9961V27.2626C33.9961 26.1459 33.5747 25.075 32.8245 24.2853C32.0744 23.4957 31.057 23.0521 29.9961 23.0521C28.9352 23.0521 27.9178 23.4957 27.1677 24.2853C26.4175 25.075 25.9961 26.1459 25.9961 27.2626V41.9993H17.9961V27.2626C17.9961 23.9125 19.2604 20.6996 21.5108 18.3308C23.7612 15.9619 26.8135 14.6311 29.9961 14.6311V14.6311Z" stroke="black" stroke-width="4" stroke-linecap="round" stroke-linejoin="round"/>
<path d="M29.9961 14.6311C33.1787 14.6311 36.2309 15.9619 38.4814 18.3308C40.7318 20.6996 41.9961 23.9125 41.9961 27.2626V41.9993H33.9961V27.2626C33.9961 26.1459 33.5747 25.075 32.8245 24.2853C32.0744 23.4957 31.057 23.0521 29.9961 23.0521C28.9352 23.0521 27.9178 23.4957 27.1677 24.2853C26.4175 25.075 25.9961 26.1459 25.9961 27.2626V41.9993H17.9961V27.2626C17.9961 23.9125 19.2604 20.6996 21.5108 18.3308C23.7612 15.9619 26.8135 14.6311 29.9961 14.6311V14.6311Z" stroke="black" stroke-width="4" stroke-linecap="round" stroke-linejoin="round"/>
<path d="M29.9961 14.6311C33.1787 14.6311 36.2309 15.9619 38.4814 18.3308C40.7318 20.6996 41.9961 23.9125 41.9961 27.2626V41.9993H33.9961V27.2626C33.9961 26.1459 33.5747 25.075 32.8245 24.2853C32.0744 23.4957 31.057 23.0521 29.9961 23.0521C28.9352 23.0521 27.9178 23.4957 27.1677 24.2853C26.4175 25.075 25.9961 26.1459 25.9961 27.2626V41.9993H17.9961V27.2626C17.9961 23.9125 19.2604 20.6996 21.5108 18.3308C23.7612 15.9619 26.8135 14.6311 29.9961 14.6311V14.6311Z" stroke="black" stroke-width="4" stroke-linecap="round" stroke-linejoin="round"/>
<path d="M29.9961 14.6311C33.1787 14.6311 36.2309 15.9619 38.4814 18.3308C40.7318 20.6996 41.9961 23.9125 41.9961 27.2626V41.9993H33.9961V27.2626C33.9961 26.1459 33.5747 25.075 32.8245 24.2853C32.0744 23.4957 31.057 23.0521 29.9961 23.0521C28.9352 23.0521 27.9178 23.4957 27.1677 24.2853C26.4175 25.075 25.9961 26.1459 25.9961 27.2626V41.9993H17.9961V27.2626C17.9961 23.9125 19.2604 20.6996 21.5108 18.3308C23.7612 15.9619 26.8135 14.6311 29.9961 14.6311V14.6311Z" stroke="black" stroke-width="4" stroke-linecap="round" stroke-linejoin="round"/>
<path d="M29.9961 14.6311C33.1787 14.6311 36.2309 15.9619 38.4814 18.3308C40.7318 20.6996 41.9961 23.9125 41.9961 27.2626V41.9993H33.9961V27.2626C33.9961 26.1459 33.5747 25.075 32.8245 24.2853C32.0744 23.4957 31.057 23.0521 29.9961 23.0521C28.9352 23.0521 27.9178 23.4957 27.1677 24.2853C26.4175 25.075 25.9961 26.1459 25.9961 27.2626V41.9993H17.9961V27.2626C17.9961 23.9125 19.2604 20.6996 21.5108 18.3308C23.7612 15.9619 26.8135 14.6311 29.9961 14.6311V14.6311Z" stroke="black" stroke-width="4" stroke-linecap="round" stroke-linejoin="round"/>
<path d="M29.9961 14.6311C33.1787 14.6311 36.2309 15.9619 38.4814 18.3308C40.7318 20.6996 41.9961 23.9125 41.9961 27.2626V41.9993H33.9961V27.2626C33.9961 26.1459 33.5747 25.075 32.8245 24.2853C32.0744 23.4957 31.057 23.0521 29.9961 23.0521C28.9352 23.0521 27.9178 23.4957 27.1677 24.2853C26.4175 25.075 25.9961 26.1459 25.9961 27.2626V41.9993H17.9961V27.2626C17.9961 23.9125 19.2604 20.6996 21.5108 18.3308C23.7612 15.9619 26.8135 14.6311 29.9961 14.6311V14.6311Z" stroke="black" stroke-width="4" stroke-linecap="round" stroke-linejoin="round"/>
<path d="M29.9961 14.6311C33.1787 14.6311 36.2309 15.9619 38.4814 18.3308C40.7318 20.6996 41.9961 23.9125 41.9961 27.2626V41.9993H33.9961V27.2626C33.9961 26.1459 33.5747 25.075 32.8245 24.2853C32.0744 23.4957 31.057 23.0521 29.9961 23.0521C28.9352 23.0521 27.9178 23.4957 27.1677 24.2853C26.4175 25.075 25.9961 26.1459 25.9961 27.2626V41.9993H17.9961V27.2626C17.9961 23.9125 19.2604 20.6996 21.5108 18.3308C23.7612 15.9619 26.8135 14.6311 29.9961 14.6311V14.6311Z" stroke="black" stroke-width="4" stroke-linecap="round" stroke-linejoin="round"/>
<path d="M29.9961 14.6311C33.1787 14.6311 36.2309 15.9619 38.4814 18.3308C40.7318 20.6996 41.9961 23.9125 41.9961 27.2626V41.9993H33.9961V27.2626C33.9961 26.1459 33.5747 25.075 32.8245 24.2853C32.0744 23.4957 31.057 23.0521 29.9961 23.0521C28.9352 23.0521 27.9178 23.4957 27.1677 24.2853C26.4175 25.075 25.9961 26.1459 25.9961 27.2626V41.9993H17.9961V27.2626C17.9961 23.9125 19.2604 20.6996 21.5108 18.3308C23.7612 15.9619 26.8135 14.6311 29.9961 14.6311V14.6311Z" stroke="black" stroke-width="4" stroke-linecap="round" stroke-linejoin="round"/>
<path d="M29.9961 14.6311C33.1787 14.6311 36.2309 15.9619 38.4814 18.3308C40.7318 20.6996 41.9961 23.9125 41.9961 27.2626V41.9993H33.9961V27.2626C33.9961 26.1459 33.5747 25.075 32.8245 24.2853C32.0744 23.4957 31.057 23.0521 29.9961 23.0521C28.9352 23.0521 27.9178 23.4957 27.1677 24.2853C26.4175 25.075 25.9961 26.1459 25.9961 27.2626V41.9993H17.9961V27.2626C17.9961 23.9125 19.2604 20.6996 21.5108 18.3308C23.7612 15.9619 26.8135 14.6311 29.9961 14.6311V14.6311Z" stroke="black" stroke-width="4" stroke-linecap="round" stroke-linejoin="round"/>
<path d="M29.9961 14.6311C33.1787 14.6311 36.2309 15.9619 38.4814 18.3308C40.7318 20.6996 41.9961 23.9125 41.9961 27.2626V41.9993H33.9961V27.2626C33.9961 26.1459 33.5747 25.075 32.8245 24.2853C32.0744 23.4957 31.057 23.0521 29.9961 23.0521C28.9352 23.0521 27.9178 23.4957 27.1677 24.2853C26.4175 25.075 25.9961 26.1459 25.9961 27.2626V41.9993H17.9961V27.2626C17.9961 23.9125 19.2604 20.6996 21.5108 18.3308C23.7612 15.9619 26.8135 14.6311 29.9961 14.6311V14.6311Z" stroke="black" stroke-width="4" stroke-linecap="round" stroke-linejoin="round"/>
<path d="M29.9961 14.6311C33.1787 14.6311 36.2309 15.9619 38.4814 18.3308C40.7318 20.6996 41.9961 23.9125 41.9961 27.2626V41.9993H33.9961V27.2626C33.9961 26.1459 33.5747 25.075 32.8245 24.2853C32.0744 23.4957 31.057 23.0521 29.9961 23.0521C28.9352 23.0521 27.9178 23.4957 27.1677 24.2853C26.4175 25.075 25.9961 26.1459 25.9961 27.2626V41.9993H17.9961V27.2626C17.9961 23.9125 19.2604 20.6996 21.5108 18.3308C23.7612 15.9619 26.8135 14.6311 29.9961 14.6311V14.6311Z" stroke="black" stroke-width="4" stroke-linecap="round" stroke-linejoin="round"/>
<path d="M29.9961 14.6311C33.1787 14.6311 36.2309 15.9619 38.4814 18.3308C40.7318 20.6996 41.9961 23.9125 41.9961 27.2626V41.9993H33.9961V27.2626C33.9961 26.1459 33.5747 25.075 32.8245 24.2853C32.0744 23.4957 31.057 23.0521 29.9961 23.0521C28.9352 23.0521 27.9178 23.4957 27.1677 24.2853C26.4175 25.075 25.9961 26.1459 25.9961 27.2626V41.9993H17.9961V27.2626C17.9961 23.9125 19.2604 20.6996 21.5108 18.3308C23.7612 15.9619 26.8135 14.6311 29.9961 14.6311V14.6311Z" stroke="black" stroke-width="4" stroke-linecap="round" stroke-linejoin="round"/>
<path d="M29.9961 14.6311C33.1787 14.6311 36.2309 15.9619 38.4814 18.3308C40.7318 20.6996 41.9961 23.9125 41.9961 27.2626V41.9993H33.9961V27.2626C33.9961 26.1459 33.5747 25.075 32.8245 24.2853C32.0744 23.4957 31.057 23.0521 29.9961 23.0521C28.9352 23.0521 27.9178 23.4957 27.1677 24.2853C26.4175 25.075 25.9961 26.1459 25.9961 27.2626V41.9993H17.9961V27.2626C17.9961 23.9125 19.2604 20.6996 21.5108 18.3308C23.7612 15.9619 26.8135 14.6311 29.9961 14.6311V14.6311Z" stroke="black" stroke-width="4" stroke-linecap="round" stroke-linejoin="round"/>
<path d="M29.9961 14.6311C33.1787 14.6311 36.2309 15.9619 38.4814 18.3308C40.7318 20.6996 41.9961 23.9125 41.9961 27.2626V41.9993H33.9961V27.2626C33.9961 26.1459 33.5747 25.075 32.8245 24.2853C32.0744 23.4957 31.057 23.0521 29.9961 23.0521C28.9352 23.0521 27.9178 23.4957 27.1677 24.2853C26.4175 25.075 25.9961 26.1459 25.9961 27.2626V41.9993H17.9961V27.2626C17.9961 23.9125 19.2604 20.6996 21.5108 18.3308C23.7612 15.9619 26.8135 14.6311 29.9961 14.6311V14.6311Z" stroke="black" stroke-width="4" stroke-linecap="round" stroke-linejoin="round"/>
<path d="M29.9961 14.6311C33.1787 14.6311 36.2309 15.9619 38.4814 18.3308C40.7318 20.6996 41.9961 23.9125 41.9961 27.2626V41.9993H33.9961V27.2626C33.9961 26.1459 33.5747 25.075 32.8245 24.2853C32.0744 23.4957 31.057 23.0521 29.9961 23.0521C28.9352 23.0521 27.9178 23.4957 27.1677 24.2853C26.4175 25.075 25.9961 26.1459 25.9961 27.2626V41.9993H17.9961V27.2626C17.9961 23.9125 19.2604 20.6996 21.5108 18.3308C23.7612 15.9619 26.8135 14.6311 29.9961 14.6311V14.6311Z" stroke="black" stroke-width="4" stroke-linecap="round" stroke-linejoin="round"/>
<path d="M29.9961 14.6311C33.1787 14.6311 36.2309 15.9619 38.4814 18.3308C40.7318 20.6996 41.9961 23.9125 41.9961 27.2626V41.9993H33.9961V27.2626C33.9961 26.1459 33.5747 25.075 32.8245 24.2853C32.0744 23.4957 31.057 23.0521 29.9961 23.0521C28.9352 23.0521 27.9178 23.4957 27.1677 24.2853C26.4175 25.075 25.9961 26.1459 25.9961 27.2626V41.9993H17.9961V27.2626C17.9961 23.9125 19.2604 20.6996 21.5108 18.3308C23.7612 15.9619 26.8135 14.6311 29.9961 14.6311V14.6311Z" stroke="black" stroke-width="4" stroke-linecap="round" stroke-linejoin="round"/>
<path d="M29.9961 14.6311C33.1787 14.6311 36.2309 15.9619 38.4814 18.3308C40.7318 20.6996 41.9961 23.9125 41.9961 27.2626V41.9993H33.9961V27.2626C33.9961 26.1459 33.5747 25.075 32.8245 24.2853C32.0744 23.4957 31.057 23.0521 29.9961 23.0521C28.9352 23.0521 27.9178 23.4957 27.1677 24.2853C26.4175 25.075 25.9961 26.1459 25.9961 27.2626V41.9993H17.9961V27.2626C17.9961 23.9125 19.2604 20.6996 21.5108 18.3308C23.7612 15.9619 26.8135 14.6311 29.9961 14.6311V14.6311Z" stroke="black" stroke-width="4" stroke-linecap="round" stroke-linejoin="round"/>
<path d="M29.9961 14.6311C33.1787 14.6311 36.2309 15.9619 38.4814 18.3308C40.7318 20.6996 41.9961 23.9125 41.9961 27.2626V41.9993H33.9961V27.2626C33.9961 26.1459 33.5747 25.075 32.8245 24.2853C32.0744 23.4957 31.057 23.0521 29.9961 23.0521C28.9352 23.0521 27.9178 23.4957 27.1677 24.2853C26.4175 25.075 25.9961 26.1459 25.9961 27.2626V41.9993H17.9961V27.2626C17.9961 23.9125 19.2604 20.6996 21.5108 18.3308C23.7612 15.9619 26.8135 14.6311 29.9961 14.6311V14.6311Z" stroke="black" stroke-width="4" stroke-linecap="round" stroke-linejoin="round"/>
<path d="M29.9961 14.6311C33.1787 14.6311 36.2309 15.9619 38.4814 18.3308C40.7318 20.6996 41.9961 23.9125 41.9961 27.2626V41.9993H33.9961V27.2626C33.9961 26.1459 33.5747 25.075 32.8245 24.2853C32.0744 23.4957 31.057 23.0521 29.9961 23.0521C28.9352 23.0521 27.9178 23.4957 27.1677 24.2853C26.4175 25.075 25.9961 26.1459 25.9961 27.2626V41.9993H17.9961V27.2626C17.9961 23.9125 19.2604 20.6996 21.5108 18.3308C23.7612 15.9619 26.8135 14.6311 29.9961 14.6311V14.6311Z" stroke="black" stroke-width="4" stroke-linecap="round" stroke-linejoin="round"/>
<path d="M29.9961 14.6311C33.1787 14.6311 36.2309 15.9619 38.4814 18.3308C40.7318 20.6996 41.9961 23.9125 41.9961 27.2626V41.9993H33.9961V27.2626C33.9961 26.1459 33.5747 25.075 32.8245 24.2853C32.0744 23.4957 31.057 23.0521 29.9961 23.0521C28.9352 23.0521 27.9178 23.4957 27.1677 24.2853C26.4175 25.075 25.9961 26.1459 25.9961 27.2626V41.9993H17.9961V27.2626C17.9961 23.9125 19.2604 20.6996 21.5108 18.3308C23.7612 15.9619 26.8135 14.6311 29.9961 14.6311V14.6311Z" stroke="black" stroke-width="4" stroke-linecap="round" stroke-linejoin="round"/>
<path d="M29.9961 14.6311C33.1787 14.6311 36.2309 15.9619 38.4814 18.3308C40.7318 20.6996 41.9961 23.9125 41.9961 27.2626V41.9993H33.9961V27.2626C33.9961 26.1459 33.5747 25.075 32.8245 24.2853C32.0744 23.4957 31.057 23.0521 29.9961 23.0521C28.9352 23.0521 27.9178 23.4957 27.1677 24.2853C26.4175 25.075 25.9961 26.1459 25.9961 27.2626V41.9993H17.9961V27.2626C17.9961 23.9125 19.2604 20.6996 21.5108 18.3308C23.7612 15.9619 26.8135 14.6311 29.9961 14.6311V14.6311Z" stroke="black" stroke-width="4" stroke-linecap="round" stroke-linejoin="round"/>
<path d="M10 16.7358H2V41.9988H10V16.7358Z" stroke="black" stroke-width="4" stroke-linecap="round" stroke-linejoin="round"/>
<path d="M6 10.421C8.20914 10.421 10 8.53589 10 6.2105C10 3.8851 8.20914 2 6 2C3.79086 2 2 3.8851 2 6.2105C2 8.53589 3.79086 10.421 6 10.421Z" stroke="black" stroke-width="4" stroke-linecap="round" stroke-linejoin="round"/>
</svg>
