<svg width="44" height="44" viewBox="0 0 44 44" fill="none" xmlns="http://www.w3.org/2000/svg">
<path d="M42 2.02242C40.2589 3.52819 38.3311 4.67986 36.2909 5.43309C35.1959 3.88939 33.7406 2.79526 32.1219 2.29867C30.5032 1.80208 28.7991 1.927 27.2401 2.65652C25.6812 3.38604 24.3426 4.68497 23.4054 6.37764C22.4682 8.0703 21.9776 10.075 22 12.1207V14.3499C18.8048 14.4515 15.6387 13.5826 12.7837 11.8207C9.92862 10.0588 7.4733 7.45862 5.63636 4.25161C5.63636 4.25161 -1.63636 24.3144 14.7273 33.2312C10.9828 36.3475 6.5221 37.9101 2 37.6896C18.3636 48.8356 38.3636 37.6896 38.3636 12.0538C38.362 11.4329 38.3133 10.8135 38.2182 10.2036C40.0738 7.95987 41.3833 5.12705 42 2.02242V2.02242Z" stroke="black" stroke-width="4" stroke-linecap="round" stroke-linejoin="round"/>
<path d="M42 2.02242C40.2589 3.52819 38.3311 4.67986 36.2909 5.43309C35.1959 3.88939 33.7406 2.79526 32.1219 2.29867C30.5032 1.80208 28.7991 1.927 27.2401 2.65652C25.6812 3.38604 24.3426 4.68497 23.4054 6.37764C22.4682 8.0703 21.9776 10.075 22 12.1207V14.3499C18.8048 14.4515 15.6387 13.5826 12.7837 11.8207C9.92862 10.0588 7.4733 7.45862 5.63636 4.25161C5.63636 4.25161 -1.63636 24.3144 14.7273 33.2312C10.9828 36.3475 6.5221 37.9101 2 37.6896C18.3636 48.8356 38.3636 37.6896 38.3636 12.0538C38.362 11.4329 38.3133 10.8135 38.2182 10.2036C40.0738 7.95987 41.3833 5.12705 42 2.02242V2.02242Z" stroke="black" stroke-width="4" stroke-linecap="round" stroke-linejoin="round"/>
<path d="M42 2.02242C40.2589 3.52819 38.3311 4.67986 36.2909 5.43309C35.1959 3.88939 33.7406 2.79526 32.1219 2.29867C30.5032 1.80208 28.7991 1.927 27.2401 2.65652C25.6812 3.38604 24.3426 4.68497 23.4054 6.37764C22.4682 8.0703 21.9776 10.075 22 12.1207V14.3499C18.8048 14.4515 15.6387 13.5826 12.7837 11.8207C9.92862 10.0588 7.4733 7.45862 5.63636 4.25161C5.63636 4.25161 -1.63636 24.3144 14.7273 33.2312C10.9828 36.3475 6.5221 37.9101 2 37.6896C18.3636 48.8356 38.3636 37.6896 38.3636 12.0538C38.362 11.4329 38.3133 10.8135 38.2182 10.2036C40.0738 7.95987 41.3833 5.12705 42 2.02242V2.02242Z" stroke="black" stroke-width="4" stroke-linecap="round" stroke-linejoin="round"/>
<path d="M42 2.02242C40.2589 3.52819 38.3311 4.67986 36.2909 5.43309C35.1959 3.88939 33.7406 2.79526 32.1219 2.29867C30.5032 1.80208 28.7991 1.927 27.2401 2.65652C25.6812 3.38604 24.3426 4.68497 23.4054 6.37764C22.4682 8.0703 21.9776 10.075 22 12.1207V14.3499C18.8048 14.4515 15.6387 13.5826 12.7837 11.8207C9.92862 10.0588 7.4733 7.45862 5.63636 4.25161C5.63636 4.25161 -1.63636 24.3144 14.7273 33.2312C10.9828 36.3475 6.5221 37.9101 2 37.6896C18.3636 48.8356 38.3636 37.6896 38.3636 12.0538C38.362 11.4329 38.3133 10.8135 38.2182 10.2036C40.0738 7.95987 41.3833 5.12705 42 2.02242V2.02242Z" stroke="black" stroke-width="4" stroke-linecap="round" stroke-linejoin="round"/>
<path d="M42 2.02242C40.2589 3.52819 38.3311 4.67986 36.2909 5.43309C35.1959 3.88939 33.7406 2.79526 32.1219 2.29867C30.5032 1.80208 28.7991 1.927 27.2401 2.65652C25.6812 3.38604 24.3426 4.68497 23.4054 6.37764C22.4682 8.0703 21.9776 10.075 22 12.1207V14.3499C18.8048 14.4515 15.6387 13.5826 12.7837 11.8207C9.92862 10.0588 7.4733 7.45862 5.63636 4.25161C5.63636 4.25161 -1.63636 24.3144 14.7273 33.2312C10.9828 36.3475 6.5221 37.9101 2 37.6896C18.3636 48.8356 38.3636 37.6896 38.3636 12.0538C38.362 11.4329 38.3133 10.8135 38.2182 10.2036C40.0738 7.95987 41.3833 5.12705 42 2.02242V2.02242Z" stroke="black" stroke-width="4" stroke-linecap="round" stroke-linejoin="round"/>
<path d="M42 2.02242C40.2589 3.52819 38.3311 4.67986 36.2909 5.43309C35.1959 3.88939 33.7406 2.79526 32.1219 2.29867C30.5032 1.80208 28.7991 1.927 27.2401 2.65652C25.6812 3.38604 24.3426 4.68497 23.4054 6.37764C22.4682 8.0703 21.9776 10.075 22 12.1207V14.3499C18.8048 14.4515 15.6387 13.5826 12.7837 11.8207C9.92862 10.0588 7.4733 7.45862 5.63636 4.25161C5.63636 4.25161 -1.63636 24.3144 14.7273 33.2312C10.9828 36.3475 6.5221 37.9101 2 37.6896C18.3636 48.8356 38.3636 37.6896 38.3636 12.0538C38.362 11.4329 38.3133 10.8135 38.2182 10.2036C40.0738 7.95987 41.3833 5.12705 42 2.02242V2.02242Z" stroke="black" stroke-width="4" stroke-linecap="round" stroke-linejoin="round"/>
<path d="M42 2.02242C40.2589 3.52819 38.3311 4.67986 36.2909 5.43309C35.1959 3.88939 33.7406 2.79526 32.1219 2.29867C30.5032 1.80208 28.7991 1.927 27.2401 2.65652C25.6812 3.38604 24.3426 4.68497 23.4054 6.37764C22.4682 8.0703 21.9776 10.075 22 12.1207V14.3499C18.8048 14.4515 15.6387 13.5826 12.7837 11.8207C9.92862 10.0588 7.4733 7.45862 5.63636 4.25161C5.63636 4.25161 -1.63636 24.3144 14.7273 33.2312C10.9828 36.3475 6.5221 37.9101 2 37.6896C18.3636 48.8356 38.3636 37.6896 38.3636 12.0538C38.362 11.4329 38.3133 10.8135 38.2182 10.2036C40.0738 7.95987 41.3833 5.12705 42 2.02242V2.02242Z" stroke="black" stroke-width="4" stroke-linecap="round" stroke-linejoin="round"/>
<path d="M42 2.02242C40.2589 3.52819 38.3311 4.67986 36.2909 5.43309C35.1959 3.88939 33.7406 2.79526 32.1219 2.29867C30.5032 1.80208 28.7991 1.927 27.2401 2.65652C25.6812 3.38604 24.3426 4.68497 23.4054 6.37764C22.4682 8.0703 21.9776 10.075 22 12.1207V14.3499C18.8048 14.4515 15.6387 13.5826 12.7837 11.8207C9.92862 10.0588 7.4733 7.45862 5.63636 4.25161C5.63636 4.25161 -1.63636 24.3144 14.7273 33.2312C10.9828 36.3475 6.5221 37.9101 2 37.6896C18.3636 48.8356 38.3636 37.6896 38.3636 12.0538C38.362 11.4329 38.3133 10.8135 38.2182 10.2036C40.0738 7.95987 41.3833 5.12705 42 2.02242V2.02242Z" stroke="black" stroke-width="4" stroke-linecap="round" stroke-linejoin="round"/>
<path d="M42 2.02242C40.2589 3.52819 38.3311 4.67986 36.2909 5.43309C35.1959 3.88939 33.7406 2.79526 32.1219 2.29867C30.5032 1.80208 28.7991 1.927 27.2401 2.65652C25.6812 3.38604 24.3426 4.68497 23.4054 6.37764C22.4682 8.0703 21.9776 10.075 22 12.1207V14.3499C18.8048 14.4515 15.6387 13.5826 12.7837 11.8207C9.92862 10.0588 7.4733 7.45862 5.63636 4.25161C5.63636 4.25161 -1.63636 24.3144 14.7273 33.2312C10.9828 36.3475 6.5221 37.9101 2 37.6896C18.3636 48.8356 38.3636 37.6896 38.3636 12.0538C38.362 11.4329 38.3133 10.8135 38.2182 10.2036C40.0738 7.95987 41.3833 5.12705 42 2.02242V2.02242Z" stroke="black" stroke-width="4" stroke-linecap="round" stroke-linejoin="round"/>
<path d="M42 2.02242C40.2589 3.52819 38.3311 4.67986 36.2909 5.43309C35.1959 3.88939 33.7406 2.79526 32.1219 2.29867C30.5032 1.80208 28.7991 1.927 27.2401 2.65652C25.6812 3.38604 24.3426 4.68497 23.4054 6.37764C22.4682 8.0703 21.9776 10.075 22 12.1207V14.3499C18.8048 14.4515 15.6387 13.5826 12.7837 11.8207C9.92862 10.0588 7.4733 7.45862 5.63636 4.25161C5.63636 4.25161 -1.63636 24.3144 14.7273 33.2312C10.9828 36.3475 6.5221 37.9101 2 37.6896C18.3636 48.8356 38.3636 37.6896 38.3636 12.0538C38.362 11.4329 38.3133 10.8135 38.2182 10.2036C40.0738 7.95987 41.3833 5.12705 42 2.02242V2.02242Z" stroke="black" stroke-width="4" stroke-linecap="round" stroke-linejoin="round"/>
</svg>
